<svg width="624" height="189" viewBox="0 0 624 189" fill="none" xmlns="http://www.w3.org/2000/svg">
<g clip-path="url(#clip0_29_3)">
<path d="M102.785 172H130.324V170.34C128.957 167.671 127.915 164.48 127.199 160.77C126.483 157.059 126.125 152.371 126.125 146.707V101.395C126.125 95.2747 124.986 89.9036 122.707 85.2812C120.428 80.5938 117.271 76.7201 113.234 73.6602C109.198 70.6003 104.413 68.2891 98.8789 66.7266C93.4102 65.1641 87.4857 64.3828 81.1055 64.3828C74.0091 64.3828 67.694 65.2943 62.1602 67.1172C56.6914 68.875 52.069 71.2839 48.293 74.3438C44.4518 77.4036 41.5221 80.9518 39.5039 84.9883C37.5508 89.0247 36.5742 93.2891 36.5742 97.7812H63.7227C63.7227 95.8932 63.9831 94.168 64.5039 92.6055C65.0898 91.043 65.9688 89.7083 67.1406 88.6016C68.4427 87.3646 70.1354 86.4206 72.2188 85.7695C74.3021 85.0534 76.776 84.6953 79.6406 84.6953C82.8958 84.6953 85.7279 85.1185 88.1367 85.9648C90.6107 86.7461 92.6615 87.8854 94.2891 89.3828C95.8516 90.8151 97.0234 92.5404 97.8047 94.5586C98.5859 96.5117 98.9766 98.7253 98.9766 101.199V107.449H83.8398C76.0273 107.449 69.0938 108.165 63.0391 109.598C57.0495 110.965 52.0039 112.983 47.9023 115.652C43.3451 118.582 39.9271 122.326 37.6484 126.883C35.3698 131.375 34.2305 136.551 34.2305 142.41C34.2305 146.967 35.1419 151.199 36.9648 155.105C38.7878 158.947 41.3268 162.267 44.582 165.066C47.8372 167.866 51.7109 170.047 56.2031 171.609C60.7604 173.172 65.7409 173.953 71.1445 173.953C74.4648 173.953 77.5573 173.628 80.4219 172.977C83.2865 172.391 85.9232 171.544 88.332 170.438C90.6758 169.396 92.8242 168.159 94.7773 166.727C96.7305 165.294 98.4557 163.764 99.9531 162.137C100.279 164.025 100.669 165.815 101.125 167.508C101.581 169.201 102.134 170.698 102.785 172ZM76.9062 152.957C74.3672 152.957 72.1211 152.664 70.168 152.078C68.2799 151.427 66.6849 150.581 65.3828 149.539C64.0807 148.432 63.0716 147.098 62.3555 145.535C61.7044 143.908 61.3789 142.15 61.3789 140.262C61.3789 137.853 61.8346 135.639 62.7461 133.621C63.6576 131.538 65.0573 129.747 66.9453 128.25C68.8333 126.818 71.2747 125.711 74.2695 124.93C77.2643 124.083 80.8776 123.66 85.1094 123.66H98.9766V141.824C98.1953 143.191 97.1211 144.559 95.7539 145.926C94.3867 147.228 92.7591 148.4 90.8711 149.441C88.9831 150.483 86.8672 151.329 84.5234 151.98C82.1797 152.632 79.6406 152.957 76.9062 152.957ZM252.102 120.242V118.191C252.102 111.811 251.516 105.822 250.344 100.223C249.237 94.6237 247.512 89.5781 245.168 85.0859C243.671 82.2865 241.945 79.7148 239.992 77.3711C238.039 74.9622 235.858 72.9115 233.449 71.2188C230.454 69.0052 227.036 67.3125 223.195 66.1406C219.419 64.9688 215.253 64.3828 210.695 64.3828C207.375 64.3828 204.283 64.7409 201.418 65.457C198.618 66.1081 196.014 67.1172 193.605 68.4844C191.913 69.3958 190.318 70.5026 188.82 71.8047C187.323 73.0417 185.923 74.4089 184.621 75.9062V22H157.473V172H181.887L183.156 160.77C184.263 162.202 185.435 163.536 186.672 164.773C187.909 165.945 189.243 167.02 190.676 167.996C193.345 169.949 196.34 171.414 199.66 172.391C203.046 173.432 206.789 173.953 210.891 173.953C215.383 173.953 219.484 173.367 223.195 172.195C226.971 171.089 230.357 169.461 233.352 167.312C236.672 165.034 239.536 162.169 241.945 158.719C244.419 155.268 246.405 151.427 247.902 147.195C249.27 143.354 250.311 139.188 251.027 134.695C251.743 130.138 252.102 125.32 252.102 120.242ZM224.953 118.191V120.242C224.953 122.977 224.823 125.613 224.562 128.152C224.367 130.691 224.009 133.035 223.488 135.184C222.837 138.113 221.861 140.75 220.559 143.094C219.322 145.372 217.694 147.228 215.676 148.66C214.243 149.702 212.551 150.516 210.598 151.102C208.645 151.688 206.464 151.98 204.055 151.98C201.255 151.98 198.749 151.655 196.535 151.004C194.387 150.353 192.499 149.409 190.871 148.172C189.504 147.195 188.299 146.056 187.258 144.754C186.281 143.387 185.402 141.889 184.621 140.262V98.1719C185.207 96.9349 185.858 95.7956 186.574 94.7539C187.29 93.6471 188.072 92.6706 188.918 91.8242C190.676 90.0664 192.792 88.7318 195.266 87.8203C197.74 86.9089 200.604 86.4531 203.859 86.4531C206.268 86.4531 208.417 86.7461 210.305 87.332C212.193 87.8529 213.885 88.6667 215.383 89.7734C217.661 91.5312 219.354 93.4844 220.461 95.6328C221.633 97.7161 222.577 100.092 223.293 102.762C223.879 105.04 224.302 107.482 224.562 110.086C224.823 112.69 224.953 115.392 224.953 118.191ZM273.293 118.191V120.242C273.293 127.99 274.4 135.151 276.613 141.727C278.827 148.237 282.082 153.901 286.379 158.719C290.611 163.536 295.819 167.312 302.004 170.047C308.254 172.716 315.35 174.051 323.293 174.051C331.171 174.051 338.202 172.716 344.387 170.047C350.572 167.312 355.78 163.536 360.012 158.719C364.243 153.901 367.466 148.237 369.68 141.727C371.893 135.151 373 127.99 373 120.242V118.191C373 110.509 371.893 103.413 369.68 96.9023C367.466 90.3268 364.243 84.6302 360.012 79.8125C355.715 74.9948 350.474 71.2188 344.289 68.4844C338.104 65.75 331.04 64.3828 323.098 64.3828C315.155 64.3828 308.091 65.75 301.906 68.4844C295.786 71.2188 290.611 74.9948 286.379 79.8125C282.082 84.6302 278.827 90.3268 276.613 96.9023C274.4 103.413 273.293 110.509 273.293 118.191ZM300.441 120.242V118.191C300.441 113.895 300.865 109.826 301.711 105.984C302.557 102.143 303.892 98.7578 305.715 95.8281C307.538 92.8984 309.882 90.5872 312.746 88.8945C315.611 87.2018 319.061 86.3555 323.098 86.3555C327.199 86.3555 330.682 87.2018 333.547 88.8945C336.411 90.5872 338.755 92.8984 340.578 95.8281C342.336 98.7578 343.638 102.143 344.484 105.984C345.331 109.826 345.754 113.895 345.754 118.191V120.242C345.754 124.669 345.331 128.836 344.484 132.742C343.638 136.583 342.336 139.936 340.578 142.801C338.755 145.73 336.411 148.042 333.547 149.734C330.682 151.427 327.264 152.273 323.293 152.273C319.191 152.273 315.676 151.427 312.746 149.734C309.882 148.042 307.538 145.73 305.715 142.801C303.892 139.936 302.557 136.583 301.711 132.742C300.865 128.836 300.441 124.669 300.441 120.242ZM466.066 172H490.676V66.3359H463.43V140.457C462.583 142.15 461.574 143.68 460.402 145.047C459.23 146.414 457.896 147.586 456.398 148.562C454.641 149.669 452.59 150.516 450.246 151.102C447.967 151.688 445.396 151.98 442.531 151.98C439.341 151.98 436.639 151.59 434.426 150.809C432.212 150.027 430.422 148.725 429.055 146.902C427.688 145.145 426.678 142.801 426.027 139.871C425.441 136.941 425.148 133.328 425.148 129.031V66.3359H398V128.836C398 136.844 398.879 143.712 400.637 149.441C402.46 155.105 404.999 159.76 408.254 163.406C411.509 167.117 415.415 169.819 419.973 171.512C424.53 173.204 429.543 174.051 435.012 174.051C441.001 174.051 446.503 172.553 451.516 169.559C456.594 166.564 460.923 162.43 464.504 157.156L466.066 172ZM567.043 40.457H539.895V66.3359H515.773V86.3555H539.895V134.402C539.895 141.368 540.806 147.358 542.629 152.371C544.452 157.319 547.056 161.388 550.441 164.578C553.762 167.833 557.766 170.242 562.453 171.805C567.206 173.302 572.479 174.051 578.273 174.051C581.268 174.051 584.296 173.888 587.355 173.562C590.48 173.302 593.475 172.911 596.34 172.391C599.204 171.87 601.906 171.219 604.445 170.438C606.984 169.591 609.198 168.615 611.086 167.508L608.449 148.855C607.212 149.181 605.715 149.507 603.957 149.832C602.264 150.158 600.441 150.451 598.488 150.711C596.47 151.036 594.354 151.297 592.141 151.492C589.992 151.688 587.876 151.785 585.793 151.785C582.928 151.785 580.324 151.46 577.98 150.809C575.702 150.158 573.749 149.051 572.121 147.488C570.493 145.991 569.224 143.973 568.312 141.434C567.466 138.829 567.043 135.607 567.043 131.766V86.3555H606.496V66.3359H567.043V40.457Z" fill="black"/>
<path d="M79.7852 172L78.8907 172.447L79.1671 173H79.7852V172ZM107.324 172V173H108.324V172H107.324ZM107.324 170.34H108.324V170.099L108.214 169.884L107.324 170.34ZM99.707 85.2812L98.8076 85.7184L98.8101 85.7234L99.707 85.2812ZM90.2344 73.6602L90.8385 72.8633L90.2344 73.6602ZM75.8789 66.7266L75.6042 67.6881L75.6072 67.6889L75.8789 66.7266ZM39.1602 67.1172L39.4662 68.0692L39.473 68.067L39.1602 67.1172ZM25.293 74.3438L25.9161 75.1259L25.9226 75.1207L25.293 74.3438ZM16.5039 84.9883L15.6094 84.541L15.6037 84.5527L16.5039 84.9883ZM13.5742 97.7812H12.5742V98.7812H13.5742V97.7812ZM40.7227 97.7812V98.7812H41.7227V97.7812H40.7227ZM41.5039 92.6055L40.5676 92.2543L40.5611 92.2717L40.5552 92.2892L41.5039 92.6055ZM44.1406 88.6016L44.8273 89.3286L44.8294 89.3266L44.1406 88.6016ZM49.2188 85.7695L49.517 86.724L49.5305 86.7198L49.5438 86.7152L49.2188 85.7695ZM65.1367 85.9648L64.8052 86.9083L64.8203 86.9136L64.8356 86.9184L65.1367 85.9648ZM71.2891 89.3828L70.612 90.1187L70.6133 90.12L71.2891 89.3828ZM74.8047 94.5586L73.8721 94.9196L73.8762 94.93L74.8047 94.5586ZM75.9766 107.449V108.449H76.9766V107.449H75.9766ZM40.0391 109.598L40.2616 110.573L40.2693 110.571L40.0391 109.598ZM24.9023 115.652L25.4431 116.494L25.4478 116.49L24.9023 115.652ZM14.6484 126.883L15.5403 127.335L15.5429 127.33L14.6484 126.883ZM13.9648 155.105L13.0586 155.528L13.0614 155.534L13.9648 155.105ZM21.582 165.066L20.93 165.825L21.582 165.066ZM33.2031 171.609L32.8746 172.554L32.8788 172.555L33.2031 171.609ZM57.4219 172.977L57.2215 171.997L57.2108 171.999L57.2003 172.001L57.4219 172.977ZM65.332 170.438L64.9259 169.524L64.9145 169.529L65.332 170.438ZM76.9531 162.137L77.9386 161.967L77.5933 159.964L76.2172 161.46L76.9531 162.137ZM78.125 167.508L77.1594 167.768L78.125 167.508ZM47.168 152.078L46.842 153.023L46.8612 153.03L46.8806 153.036L47.168 152.078ZM42.3828 149.539L41.7352 150.301L41.7465 150.311L41.7581 150.32L42.3828 149.539ZM39.3555 145.535L38.427 145.907L38.4361 145.929L38.4464 145.952L39.3555 145.535ZM39.7461 133.621L40.6575 134.033L40.6623 134.022L39.7461 133.621ZM43.9453 128.25L43.3409 127.453L43.3324 127.46L43.3239 127.467L43.9453 128.25ZM51.2695 124.93L51.522 125.897L51.5317 125.895L51.5415 125.892L51.2695 124.93ZM75.9766 123.66H76.9766V122.66H75.9766V123.66ZM75.9766 141.824L76.8448 142.32L76.9766 142.09V141.824H75.9766ZM72.7539 145.926L73.4436 146.65L73.4524 146.642L73.461 146.633L72.7539 145.926ZM79.7852 173H107.324V171H79.7852V173ZM108.324 172V170.34H106.324V172H108.324ZM108.214 169.884C106.9 167.317 105.884 164.221 105.181 160.58L103.217 160.959C103.947 164.74 105.014 168.024 106.434 170.796L108.214 169.884ZM105.181 160.58C104.481 156.954 104.125 152.336 104.125 146.707H102.125C102.125 152.407 102.485 157.163 103.217 160.959L105.181 160.58ZM104.125 146.707V101.395H102.125V146.707H104.125ZM104.125 101.395C104.125 95.1499 102.962 89.6225 100.604 84.8391L98.8101 85.7234C101.009 90.1848 102.125 95.3996 102.125 101.395H104.125ZM100.606 84.8441C98.2611 80.0193 95.004 76.021 90.8385 72.8633L89.6303 74.4571C93.5377 77.4191 96.5957 81.1682 98.8077 85.7184L100.606 84.8441ZM90.8385 72.8633C86.69 69.7184 81.7885 67.3561 76.1506 65.7642L75.6072 67.6889C81.037 69.2221 85.7058 71.4821 89.6303 74.4571L90.8385 72.8633ZM76.1536 65.765C70.5854 64.1741 64.5675 63.3828 58.1055 63.3828V65.3828C64.4039 65.3828 70.2349 66.154 75.6042 67.6881L76.1536 65.765ZM58.1055 63.3828C50.9252 63.3828 44.5013 64.3049 38.8473 66.1674L39.473 68.067C44.8867 66.2837 51.0931 65.3828 58.1055 65.3828V63.3828ZM38.8541 66.1652C33.2886 67.9541 28.5513 70.4163 24.6634 73.5668L25.9226 75.1207C29.5867 72.1514 34.0942 69.7959 39.4662 68.0692L38.8541 66.1652ZM24.6699 73.5616C20.7252 76.704 17.6983 80.3634 15.6095 84.5411L17.3983 85.4355C19.346 81.5402 22.1785 78.1033 25.916 75.1259L24.6699 73.5616ZM15.6037 84.5527C13.5848 88.7252 12.5742 93.1385 12.5742 97.7812H14.5742C14.5742 93.4396 15.5168 89.3243 17.4041 85.4238L15.6037 84.5527ZM13.5742 98.7812H40.7227V96.7812H13.5742V98.7812ZM41.7227 97.7812C41.7227 95.9853 41.9703 94.3685 42.4526 92.9217L40.5552 92.2892C39.9958 93.9674 39.7227 95.8012 39.7227 97.7812H41.7227ZM42.4402 92.9566C42.9746 91.5316 43.7701 90.327 44.8272 89.3286L43.454 87.8745C42.1674 89.0897 41.2051 90.5543 40.5676 92.2543L42.4402 92.9566ZM44.8294 89.3266C45.9992 88.2152 47.5487 87.3391 49.517 86.724L48.9205 84.8151C46.7221 85.502 44.8862 86.514 43.4519 87.8766L44.8294 89.3266ZM49.5438 86.7152C51.4965 86.044 53.8553 85.6953 56.6406 85.6953V83.6953C53.6968 83.6953 51.1077 84.0628 48.8937 84.8238L49.5438 86.7152ZM56.6406 85.6953C59.8125 85.6953 62.5276 86.1081 64.8052 86.9083L65.4682 85.0214C62.9281 84.1289 59.9792 83.6953 56.6406 83.6953V85.6953ZM64.8356 86.9184C67.1938 87.6631 69.1094 88.7363 70.612 90.1187L71.9661 88.6469C70.2136 87.0345 68.0276 85.8291 65.4379 85.0113L64.8356 86.9184ZM70.6133 90.12C72.06 91.4461 73.1452 93.0417 73.8721 94.9196L75.7373 94.1976C74.9017 92.039 73.6431 90.1841 71.9648 88.6457L70.6133 90.12ZM73.8762 94.93C74.6027 96.7461 74.9766 98.8305 74.9766 101.199H76.9766C76.9766 98.6201 76.5692 96.2773 75.7332 94.1872L73.8762 94.93ZM74.9766 101.199V107.449H76.9766V101.199H74.9766ZM75.9766 106.449H60.8398V108.449H75.9766V106.449ZM60.8398 106.449C52.9686 106.449 45.9553 107.171 39.8089 108.625L40.2693 110.571C46.2322 109.16 53.0861 108.449 60.8398 108.449V106.449ZM39.8165 108.623C33.7402 110.01 28.5788 112.067 24.3569 114.814L25.4478 116.49C29.429 113.9 34.3587 111.92 40.2616 110.573L39.8165 108.623ZM24.3616 114.811C19.6631 117.832 16.1181 121.707 13.754 126.436L15.5429 127.33C17.736 122.944 21.027 119.332 25.4431 116.494L24.3616 114.811ZM13.7566 126.43C11.3961 131.084 10.2305 136.419 10.2305 142.41H12.2305C12.2305 136.682 13.3435 131.666 15.5403 127.335L13.7566 126.43ZM10.2305 142.41C10.2305 147.105 11.1704 151.482 13.0587 155.528L14.871 154.683C13.1134 150.916 12.2305 146.83 12.2305 142.41H10.2305ZM13.0614 155.534C14.9448 159.503 17.57 162.935 20.93 165.825L22.2341 164.308C19.0837 161.599 16.6307 158.39 14.8683 154.677L13.0614 155.534ZM20.93 165.825C24.2901 168.714 28.2766 170.955 32.8746 172.554L33.5316 170.665C29.1453 169.139 25.3843 167.017 22.2341 164.308L20.93 165.825ZM32.8788 172.555C37.5523 174.158 42.6438 174.953 48.1445 174.953V172.953C42.838 172.953 37.9685 172.186 33.5274 170.663L32.8788 172.555ZM48.1445 174.953C51.5299 174.953 54.6975 174.621 57.6435 173.952L57.2003 172.001C54.4171 172.634 51.3998 172.953 48.1445 172.953V174.953ZM57.6223 173.956C60.5541 173.357 63.2646 172.488 65.7495 171.346L64.9145 169.529C62.5818 170.601 60.0188 171.425 57.2215 171.997L57.6223 173.956ZM65.7382 171.351C68.1435 170.282 70.3546 169.01 72.3687 167.533L71.186 165.92C69.2939 167.308 67.2081 168.509 64.9259 169.524L65.7382 171.351ZM72.3687 167.533C74.3692 166.066 76.1439 164.493 77.6891 162.814L76.2172 161.46C74.7676 163.035 73.0917 164.523 71.186 165.92L72.3687 167.533ZM75.9677 162.307C76.2979 164.222 76.695 166.043 77.1594 167.768L79.0906 167.248C78.6436 165.587 78.2594 163.827 77.9386 161.967L75.9677 162.307ZM77.1594 167.768C77.6291 169.513 78.2044 171.075 78.8907 172.447L80.6796 171.553C80.0638 170.321 79.5323 168.889 79.0906 167.248L77.1594 167.768ZM53.9062 151.957C51.4417 151.957 49.2957 151.672 47.4553 151.12L46.8806 153.036C48.9465 153.656 51.2926 153.957 53.9062 153.957V151.957ZM47.494 151.133C45.6934 150.512 44.2045 149.716 43.0075 148.758L41.7581 150.32C43.1653 151.446 44.8665 152.342 46.842 153.023L47.494 151.133ZM43.0305 148.777C41.8404 147.766 40.9202 146.549 40.2645 145.119L38.4464 145.952C39.2231 147.646 40.3211 149.099 41.7352 150.301L43.0305 148.777ZM40.2839 145.164C39.6837 143.663 39.3789 142.032 39.3789 140.262H37.3789C37.3789 142.267 37.7252 144.152 38.427 145.907L40.2839 145.164ZM39.3789 140.262C39.3789 137.982 39.8094 135.911 40.6575 134.033L38.8347 133.21C37.8599 135.368 37.3789 137.724 37.3789 140.262H39.3789ZM40.6623 134.022C41.5043 132.097 42.7989 130.436 44.5667 129.033L43.3239 127.467C41.3157 129.059 39.8108 130.978 38.8299 133.22L40.6623 134.022ZM44.5497 129.047C46.306 127.714 48.6175 126.655 51.522 125.897L51.0171 123.962C47.932 124.767 45.3606 125.921 43.3409 127.453L44.5497 129.047ZM51.5415 125.892C54.4225 125.078 57.939 124.66 62.1094 124.66V122.66C57.8163 122.66 54.1061 123.089 50.9976 123.967L51.5415 125.892ZM62.1094 124.66H75.9766V122.66H62.1094V124.66ZM74.9766 123.66V141.824H76.9766V123.66H74.9766ZM75.1083 141.328C74.3798 142.603 73.3648 143.901 72.0468 145.219L73.461 146.633C74.8774 145.217 76.0108 143.78 76.8448 142.32L75.1083 141.328ZM72.0643 145.202C70.7672 146.437 69.2114 147.56 67.388 148.566L68.3542 150.317C70.3068 149.24 72.0062 148.019 73.4436 146.65L72.0643 145.202ZM67.388 148.566C65.5762 149.565 63.5339 150.384 61.2558 151.017L61.7911 152.944C64.2004 152.275 66.39 151.401 68.3542 150.317L67.388 148.566ZM61.2558 151.017C59.0092 151.641 56.5612 151.957 53.9062 151.957V153.957C56.72 153.957 59.3502 153.622 61.7911 152.944L61.2558 151.017ZM227.344 100.223L226.363 100.417L226.365 100.428L227.344 100.223ZM222.168 85.0859L223.055 84.6233L223.05 84.6143L222.168 85.0859ZM216.992 77.3711L216.215 78.001L216.224 78.0113L216.992 77.3711ZM210.449 71.2188L209.855 72.0229L209.864 72.0301L209.874 72.0369L210.449 71.2188ZM200.195 66.1406L199.899 67.0957L199.904 67.0971L200.195 66.1406ZM178.418 65.457L178.644 66.431L178.653 66.4292L178.661 66.4272L178.418 65.457ZM170.605 68.4844L171.08 69.3648L171.089 69.3596L171.099 69.3541L170.605 68.4844ZM165.82 71.8047L166.457 72.5756L166.467 72.5676L166.476 72.5593L165.82 71.8047ZM161.621 75.9062H160.621V78.5802L162.376 76.5624L161.621 75.9062ZM161.621 22H162.621V21H161.621V22ZM134.473 22V21H133.473V22H134.473ZM134.473 172H133.473V173H134.473V172ZM158.887 172V173H159.78L159.88 172.112L158.887 172ZM160.156 160.77L160.948 160.158L159.44 158.207L159.163 160.657L160.156 160.77ZM163.672 164.773L162.965 165.481L162.974 165.49L162.984 165.499L163.672 164.773ZM167.676 167.996L168.266 167.189L168.253 167.179L168.239 167.17L167.676 167.996ZM176.66 172.391L176.954 171.435L176.942 171.431L176.66 172.391ZM200.195 172.195L199.914 171.236L199.904 171.239L199.894 171.242L200.195 172.195ZM210.352 167.312L209.786 166.488L209.777 166.494L209.769 166.5L210.352 167.312ZM218.945 158.719L218.133 158.136L218.125 158.146L218.945 158.719ZM224.902 147.195L223.96 146.86L223.96 146.862L224.902 147.195ZM228.027 134.695L229.015 134.853L229.015 134.851L228.027 134.695ZM201.562 128.152L200.568 128.05L200.566 128.063L200.565 128.076L201.562 128.152ZM200.488 135.184L199.516 134.948L199.514 134.957L199.512 134.967L200.488 135.184ZM197.559 143.094L196.684 142.608L196.68 142.617L197.559 143.094ZM192.676 148.66L192.097 147.845L192.088 147.851L192.676 148.66ZM173.535 151.004L173.245 151.961L173.253 151.963L173.535 151.004ZM167.871 148.172L168.476 147.376L168.464 147.367L168.452 147.358L167.871 148.172ZM164.258 144.754L163.444 145.335L163.46 145.357L163.477 145.379L164.258 144.754ZM161.621 140.262H160.621V140.489L160.72 140.694L161.621 140.262ZM161.621 98.1719L160.717 97.7438L160.621 97.947V98.1719H161.621ZM163.574 94.7539L164.398 95.3204L164.406 95.3089L164.414 95.2972L163.574 94.7539ZM165.918 91.8242L166.625 92.5313L165.918 91.8242ZM172.266 87.8203L171.92 86.882L172.266 87.8203ZM187.305 87.332L187.008 88.2871L187.023 88.2918L187.039 88.296L187.305 87.332ZM192.383 89.7734L192.994 88.9817L192.985 88.9754L192.977 88.9693L192.383 89.7734ZM197.461 95.6328L196.572 96.0908L196.58 96.1071L196.589 96.1231L197.461 95.6328ZM200.293 102.762L201.262 102.513L201.259 102.503L200.293 102.762ZM230.102 120.242V118.191H228.102V120.242H230.102ZM230.102 118.191C230.102 111.75 229.51 105.691 228.323 100.018L226.365 100.428C227.521 105.952 228.102 111.872 228.102 118.191H230.102ZM228.325 100.029C227.202 94.3478 225.448 89.2101 223.055 84.6234L221.281 85.5485C223.576 89.9462 225.272 94.8996 226.363 100.417L228.325 100.029ZM223.05 84.6143C221.522 81.7573 219.759 79.1289 217.76 76.7309L216.224 78.0113C218.132 80.3008 219.82 82.8156 221.286 85.5576L223.05 84.6143ZM217.769 76.7413C215.761 74.2644 213.513 72.1492 211.024 70.4006L209.874 72.0369C212.204 73.6737 214.317 75.66 216.215 78.0009L217.769 76.7413ZM211.044 70.4146C207.95 68.1283 204.429 66.3866 200.487 65.1841L199.904 67.0971C203.644 68.2384 206.958 69.8821 209.855 72.0229L211.044 70.4146ZM200.492 65.1856C196.606 63.9798 192.338 63.3828 187.695 63.3828V65.3828C192.167 65.3828 196.232 65.9577 199.899 67.0957L200.492 65.1856ZM187.695 63.3828C184.303 63.3828 181.128 63.7486 178.175 64.4869L178.661 66.4272C181.437 65.7331 184.447 65.3828 187.695 65.3828V63.3828ZM178.191 64.483C175.302 65.155 172.607 66.1983 170.112 67.6147L171.099 69.3541C173.421 68.0361 175.935 67.0611 178.644 66.431L178.191 64.483ZM170.131 67.6039C168.371 68.5516 166.716 69.701 165.164 71.0501L166.476 72.5593C167.92 71.3042 169.454 70.2401 171.08 69.3648L170.131 67.6039ZM165.183 71.0337C163.643 72.3064 162.204 73.7121 160.866 75.2501L162.376 76.5624C163.643 75.1056 165.003 73.7769 166.457 72.5756L165.183 71.0337ZM162.621 75.9062V22H160.621V75.9062H162.621ZM161.621 21H134.473V23H161.621V21ZM133.473 22V172H135.473V22H133.473ZM134.473 173H158.887V171H134.473V173ZM159.88 172.112L161.15 160.882L159.163 160.657L157.893 171.888L159.88 172.112ZM159.365 161.381C160.497 162.846 161.697 164.212 162.965 165.481L164.379 164.066C163.173 162.86 162.029 161.558 160.948 160.158L159.365 161.381ZM162.984 165.499C164.261 166.709 165.637 167.816 167.112 168.822L168.239 167.17C166.85 166.223 165.557 165.182 164.36 164.047L162.984 165.499ZM167.085 168.803C169.852 170.828 172.952 172.342 176.378 173.35L176.942 171.431C173.728 170.486 170.838 169.071 168.266 167.189L167.085 168.803ZM176.366 173.346C179.86 174.422 183.705 174.953 187.891 174.953V172.953C183.873 172.953 180.231 172.443 176.954 171.435L176.366 173.346ZM187.891 174.953C192.47 174.953 196.674 174.356 200.496 173.149L199.894 171.242C196.294 172.379 192.296 172.953 187.891 172.953V174.953ZM200.477 173.155C204.353 172.019 207.842 170.343 210.934 168.125L209.769 166.5C206.871 168.578 203.589 170.158 199.914 171.236L200.477 173.155ZM210.917 168.137C214.341 165.787 217.291 162.836 219.765 159.291L218.125 158.146C215.782 161.503 213.002 164.28 209.786 166.488L210.917 168.137ZM219.758 159.301C222.29 155.77 224.318 151.844 225.845 147.529L223.96 146.862C222.492 151.01 220.549 154.766 218.133 158.136L219.758 159.301ZM225.844 147.531C227.234 143.626 228.29 139.399 229.015 134.853L227.04 134.538C226.332 138.976 225.305 143.083 223.96 146.86L225.844 147.531ZM229.015 134.851C229.74 130.237 230.102 125.367 230.102 120.242H228.102C228.102 125.273 227.747 130.039 227.039 134.54L229.015 134.851ZM200.953 118.191V120.242H202.953V118.191H200.953ZM200.953 120.242C200.953 122.945 200.824 125.547 200.568 128.05L202.557 128.254C202.821 125.679 202.953 123.008 202.953 120.242H200.953ZM200.565 128.076C200.374 130.569 200.023 132.859 199.516 134.948L201.46 135.419C201.995 133.211 202.361 130.814 202.56 128.229L200.565 128.076ZM199.512 134.967C198.879 137.813 197.935 140.358 196.684 142.608L198.433 143.579C199.787 141.142 200.795 138.413 201.464 135.401L199.512 134.967ZM196.68 142.617C195.512 144.768 193.985 146.505 192.097 147.845L193.255 149.476C195.403 147.951 197.131 145.977 198.437 143.571L196.68 142.617ZM192.088 147.851C190.759 148.818 189.172 149.585 187.31 150.144L187.885 152.059C189.93 151.446 191.728 150.586 193.264 149.469L192.088 147.851ZM187.31 150.144C185.465 150.697 183.383 150.98 181.055 150.98V152.98C183.544 152.98 185.824 152.678 187.885 152.059L187.31 150.144ZM181.055 150.98C178.331 150.98 175.922 150.664 173.817 150.045L173.253 151.963C175.575 152.646 178.179 152.98 181.055 152.98V150.98ZM173.825 150.047C171.779 149.427 170 148.534 168.476 147.376L167.266 148.968C168.997 150.284 170.994 151.279 173.245 151.961L173.825 150.047ZM168.452 147.358C167.159 146.435 166.022 145.359 165.039 144.129L163.477 145.379C164.577 146.753 165.848 147.956 167.29 148.986L168.452 147.358ZM165.072 144.173C164.131 142.856 163.281 141.408 162.523 139.829L160.72 140.694C161.524 142.37 162.432 143.918 163.444 145.335L165.072 144.173ZM162.621 140.262V98.1719H160.621V140.262H162.621ZM162.525 98.6C163.09 97.4073 163.715 96.3147 164.398 95.3204L162.75 94.1874C162.001 95.2764 161.324 96.4625 160.717 97.7438L162.525 98.6ZM164.414 95.2972C165.095 94.2436 165.833 93.3231 166.625 92.5313L165.211 91.1171C164.31 92.018 163.485 93.0506 162.735 94.2107L164.414 95.2972ZM166.625 92.5313C168.274 90.882 170.265 89.6232 172.611 88.7587L171.92 86.882C169.319 87.8404 167.077 89.2508 165.211 91.1171L166.625 92.5313ZM172.611 88.7587C174.952 87.8963 177.695 87.4531 180.859 87.4531V85.4531C177.513 85.4531 174.527 85.9214 171.92 86.882L172.611 88.7587ZM180.859 87.4531C183.189 87.4531 185.235 87.7366 187.008 88.2871L187.601 86.377C185.599 85.7556 183.348 85.4531 180.859 85.4531V87.4531ZM187.039 88.296C188.815 88.7859 190.395 89.5476 191.788 90.5776L192.977 88.9693C191.376 87.7858 189.571 86.9198 187.571 86.368L187.039 88.296ZM191.772 90.5652C193.956 92.2504 195.544 94.0952 196.572 96.0908L198.35 95.1749C197.164 92.8736 195.366 90.8121 192.994 88.9817L191.772 90.5652ZM196.589 96.1231C197.714 98.1233 198.629 100.42 199.327 103.021L201.259 102.503C200.524 99.7649 199.551 97.309 198.333 95.1426L196.589 96.1231ZM199.324 103.011C199.896 105.235 200.312 107.626 200.567 110.185L202.558 109.986C202.293 107.337 201.861 104.846 201.261 102.513L199.324 103.011ZM200.567 110.185C200.824 112.754 200.953 115.423 200.953 118.191H202.953C202.953 115.361 202.821 112.626 202.558 109.986L200.567 110.185ZM253.613 141.727L252.666 142.046L252.667 142.048L253.613 141.727ZM263.379 158.719L264.13 158.059L264.125 158.053L263.379 158.719ZM279.004 170.047L278.6 170.962L278.611 170.967L279.004 170.047ZM321.387 170.047L321.783 170.965L321.791 170.961L321.387 170.047ZM337.012 158.719L337.763 159.379L337.012 158.719ZM346.68 141.727L347.626 142.048L347.627 142.046L346.68 141.727ZM346.68 96.9023L345.732 97.2214L345.733 97.2242L346.68 96.9023ZM337.012 79.8125L337.763 79.1525L337.758 79.1469L337.012 79.8125ZM278.906 68.4844L278.502 67.5698L278.498 67.5714L278.906 68.4844ZM263.379 79.8125L264.125 80.4781L264.13 80.4724L263.379 79.8125ZM253.613 96.9023L254.56 97.2242L254.561 97.2214L253.613 96.9023ZM289.746 88.8945L289.237 88.0336L289.746 88.8945ZM317.578 95.8281L318.436 95.3136L318.431 95.3067L318.427 95.2998L317.578 95.8281ZM321.484 105.984L320.508 106.2L321.484 105.984ZM321.484 132.742L322.461 132.957L322.462 132.954L321.484 132.742ZM317.578 142.801L318.427 143.329L318.43 143.324L317.578 142.801ZM289.746 149.734L289.237 150.595L289.246 150.6L289.746 149.734ZM282.715 142.801L283.564 142.272L283.559 142.264L282.715 142.801ZM278.711 132.742L277.734 132.954L277.734 132.957L278.711 132.742ZM249.293 118.191V120.242H251.293V118.191H249.293ZM249.293 120.242C249.293 128.086 250.414 135.356 252.666 142.046L254.561 141.408C252.386 134.946 251.293 127.894 251.293 120.242H249.293ZM252.667 142.048C254.92 148.677 258.241 154.46 262.633 159.384L264.125 158.053C259.923 153.342 256.733 147.797 254.56 141.405L252.667 142.048ZM262.628 159.379C266.96 164.311 272.289 168.172 278.6 170.961L279.408 169.132C273.349 166.453 268.261 162.762 264.13 158.059L262.628 159.379ZM278.611 170.967C285.004 173.697 292.238 175.051 300.293 175.051V173.051C292.463 173.051 285.503 171.735 279.397 169.127L278.611 170.967ZM300.293 175.051C308.284 175.051 315.454 173.697 321.783 170.965L320.99 169.129C314.95 171.736 308.057 173.051 300.293 173.051V175.051ZM321.791 170.961C328.101 168.172 333.43 164.311 337.763 159.379L336.26 158.059C332.13 162.762 327.042 166.453 320.982 169.132L321.791 170.961ZM337.763 159.379C342.088 154.455 345.374 148.674 347.626 142.048L345.733 141.405C343.559 147.8 340.399 153.347 336.26 158.059L337.763 159.379ZM347.627 142.046C349.879 135.356 351 128.086 351 120.242H349C349 127.894 347.907 134.946 345.732 141.408L347.627 142.046ZM351 120.242V118.191H349V120.242H351ZM351 118.191C351 110.412 349.879 103.206 347.626 96.5804L345.733 97.2242C347.907 103.62 349 110.606 349 118.191H351ZM347.627 96.5833C345.375 89.8926 342.089 84.0777 337.763 79.1526L336.26 80.4724C340.398 85.1827 343.557 90.761 345.732 97.2214L347.627 96.5833ZM337.758 79.1469C333.362 74.2177 328.002 70.359 321.693 67.5698L320.885 69.399C326.946 72.0785 332.068 75.7719 336.265 80.4781L337.758 79.1469ZM321.693 67.5698C315.361 64.7701 308.156 63.3828 300.098 63.3828V65.3828C307.925 65.3828 314.847 66.7299 320.885 69.399L321.693 67.5698ZM300.098 63.3828C292.04 63.3828 284.834 64.7701 278.502 67.5698L279.311 69.399C285.348 66.7299 292.27 65.3828 300.098 65.3828V63.3828ZM278.498 67.5714C272.253 70.3617 266.959 74.2219 262.628 79.1526L264.13 80.4724C268.263 75.7677 273.32 72.0758 279.314 69.3974L278.498 67.5714ZM262.633 79.1469C258.239 84.0727 254.919 89.8895 252.666 96.5833L254.561 97.2214C256.735 90.7641 259.925 85.1877 264.125 80.4781L262.633 79.1469ZM252.667 96.5804C250.414 103.206 249.293 110.412 249.293 118.191H251.293C251.293 110.606 252.386 103.62 254.56 97.2242L252.667 96.5804ZM278.441 120.242V118.191H276.441V120.242H278.441ZM278.441 118.191C278.441 113.96 278.858 109.964 279.688 106.2L277.734 105.769C276.871 109.687 276.441 113.829 276.441 118.191H278.441ZM279.688 106.2C280.513 102.454 281.809 99.1773 283.564 96.3564L281.866 95.2998C279.975 98.3383 278.602 101.832 277.734 105.769L279.688 106.2ZM283.564 96.3564C285.305 93.5581 287.534 91.3632 290.255 89.7555L289.237 88.0336C286.229 89.8113 283.77 92.2387 281.866 95.2998L283.564 96.3564ZM290.255 89.7555C292.936 88.1714 296.202 87.3555 300.098 87.3555V85.3555C295.92 85.3555 292.286 86.2322 289.237 88.0336L290.255 89.7555ZM300.098 87.3555C304.062 87.3555 307.36 88.1728 310.038 89.7555L311.056 88.0336C308.005 86.2309 304.337 85.3555 300.098 85.3555V87.3555ZM310.038 89.7555C312.759 91.3632 314.988 93.5581 316.729 96.3564L318.427 95.2998C316.522 92.2387 314.064 89.8113 311.056 88.0336L310.038 89.7555ZM316.721 96.3426C318.415 99.1668 319.681 102.448 320.508 106.2L322.461 105.769C321.595 101.838 320.257 98.3488 318.436 95.3136L316.721 96.3426ZM320.508 106.2C321.337 109.964 321.754 113.96 321.754 118.191H323.754C323.754 113.829 323.324 109.687 322.461 105.769L320.508 106.2ZM321.754 118.191V120.242H323.754V118.191H321.754ZM321.754 120.242C321.754 124.606 321.337 128.701 320.507 132.53L322.462 132.954C323.325 128.971 323.754 124.733 323.754 120.242H321.754ZM320.508 132.527C319.681 136.277 318.416 139.523 316.726 142.278L318.43 143.324C320.256 140.35 321.595 136.889 322.461 132.957L320.508 132.527ZM316.729 142.272C314.988 145.071 312.759 147.266 310.038 148.873L311.056 150.595C314.064 148.818 316.522 146.39 318.427 143.329L316.729 142.272ZM310.038 148.873C307.355 150.459 304.12 151.273 300.293 151.273V153.273C304.408 153.273 308.01 152.395 311.056 150.595L310.038 148.873ZM300.293 151.273C296.33 151.273 292.995 150.456 290.246 148.869L289.246 150.6C292.357 152.398 296.053 153.273 300.293 153.273V151.273ZM290.255 148.873C287.534 147.266 285.305 145.071 283.564 142.272L281.866 143.329C283.77 146.39 286.229 148.818 289.237 150.595L290.255 148.873ZM283.559 142.264C281.807 139.512 280.513 136.272 279.688 132.527L277.734 132.957C278.602 136.895 279.976 140.36 281.871 143.338L283.559 142.264ZM279.688 132.53C278.858 128.701 278.441 124.606 278.441 120.242H276.441C276.441 124.733 276.871 128.971 277.734 132.954L279.688 132.53ZM443.066 172L442.072 172.105L442.166 173H443.066V172ZM467.676 172V173H468.676V172H467.676ZM467.676 66.3359H468.676V65.3359H467.676V66.3359ZM440.43 66.3359V65.3359H439.43V66.3359H440.43ZM440.43 140.457L441.324 140.904L441.43 140.693V140.457H440.43ZM433.398 148.562L433.931 149.409L433.938 149.404L433.945 149.4L433.398 148.562ZM427.246 151.102L427.004 150.131L426.997 150.133L427.246 151.102ZM411.426 150.809L411.759 149.866L411.426 150.809ZM406.055 146.902L406.855 146.302L406.849 146.295L406.844 146.288L406.055 146.902ZM403.027 139.871L402.047 140.067L402.049 140.078L402.051 140.088L403.027 139.871ZM402.148 66.3359H403.148V65.3359H402.148V66.3359ZM375 66.3359V65.3359H374V66.3359H375ZM377.637 149.441L376.681 149.735L376.685 149.748L377.637 149.441ZM385.254 163.406L386.006 162.747L386 162.74L385.254 163.406ZM428.516 169.559L428.008 168.697L428.003 168.7L428.516 169.559ZM441.504 157.156L442.498 157.052L442.212 154.333L440.677 156.594L441.504 157.156ZM443.066 173H467.676V171H443.066V173ZM468.676 172V66.3359H466.676V172H468.676ZM467.676 65.3359H440.43V67.3359H467.676V65.3359ZM439.43 66.3359V140.457H441.43V66.3359H439.43ZM439.535 140.01C438.724 141.633 437.759 143.094 436.643 144.396L438.162 145.698C439.389 144.265 440.443 142.666 441.324 140.904L439.535 140.01ZM436.643 144.396C435.533 145.692 434.269 146.801 432.852 147.725L433.945 149.4C435.522 148.371 436.928 147.136 438.162 145.698L436.643 144.396ZM432.866 147.716C431.211 148.758 429.261 149.567 427.004 150.131L427.489 152.072C429.919 151.464 432.071 150.58 433.931 149.409L432.866 147.716ZM426.997 150.133C424.815 150.694 422.329 150.98 419.531 150.98V152.98C422.462 152.98 425.12 152.681 427.495 152.07L426.997 150.133ZM419.531 150.98C416.417 150.98 413.835 150.598 411.759 149.866L411.093 151.752C413.444 152.581 416.266 152.98 419.531 152.98V150.98ZM411.759 149.866C409.725 149.148 408.1 147.962 406.855 146.302L405.255 147.502C406.744 149.488 408.699 150.907 411.093 151.752L411.759 149.866ZM406.844 146.288C405.594 144.681 404.633 142.487 404.004 139.654L402.051 140.088C402.724 143.115 403.781 145.608 405.265 147.516L406.844 146.288ZM404.008 139.675C403.439 136.831 403.148 133.288 403.148 129.031H401.148C401.148 133.368 401.444 137.052 402.047 140.067L404.008 139.675ZM403.148 129.031V66.3359H401.148V129.031H403.148ZM402.148 65.3359H375V67.3359H402.148V65.3359ZM374 66.3359V128.836H376V66.3359H374ZM374 128.836C374 136.912 374.886 143.885 376.681 149.735L378.593 149.148C376.872 143.54 376 136.776 376 128.836H374ZM376.685 149.748C378.541 155.517 381.142 160.302 384.508 164.072L386 162.74C382.856 159.219 380.378 154.694 378.589 149.135L376.685 149.748ZM384.502 164.066C387.865 167.899 391.909 170.698 396.624 172.449L397.321 170.574C392.922 168.94 389.153 166.335 386.006 162.747L384.502 164.066ZM396.624 172.449C401.306 174.188 406.439 175.051 412.012 175.051V173.051C406.647 173.051 401.754 172.221 397.321 170.574L396.624 172.449ZM412.012 175.051C418.177 175.051 423.856 173.507 429.028 170.417L428.003 168.7C423.149 171.6 417.826 173.051 412.012 173.051V175.051ZM429.024 170.42C434.239 167.344 438.674 163.104 442.331 157.718L440.677 156.594C437.172 161.756 432.948 165.783 428.008 168.697L429.024 170.42ZM440.509 157.261L442.072 172.105L444.061 171.895L442.498 157.052L440.509 157.261ZM544.043 40.457H545.043V39.457H544.043V40.457ZM516.895 40.457V39.457H515.895V40.457H516.895ZM516.895 66.3359V67.3359H517.895V66.3359H516.895ZM492.773 66.3359V65.3359H491.773V66.3359H492.773ZM492.773 86.3555H491.773V87.3555H492.773V86.3555ZM516.895 86.3555H517.895V85.3555H516.895V86.3555ZM519.629 152.371L518.689 152.713L518.691 152.717L519.629 152.371ZM527.441 164.578L528.141 163.864L528.134 163.857L528.127 163.85L527.441 164.578ZM539.453 171.805L539.137 172.753L539.145 172.756L539.153 172.758L539.453 171.805ZM564.355 173.562L564.272 172.566L564.261 172.567L564.25 172.568L564.355 173.562ZM581.445 170.438L581.739 171.393L581.751 171.39L581.762 171.386L581.445 170.438ZM588.086 167.508L588.592 168.371L589.17 168.032L589.076 167.368L588.086 167.508ZM585.449 148.855L586.439 148.715L586.282 147.602L585.195 147.888L585.449 148.855ZM580.957 149.832L580.775 148.849L580.768 148.85L580.957 149.832ZM575.488 150.711L575.356 149.72L575.343 149.722L575.329 149.724L575.488 150.711ZM569.141 151.492L569.053 150.496L569.05 150.496L569.141 151.492ZM554.98 150.809L554.706 151.77L554.713 151.772L554.98 150.809ZM549.121 147.488L549.814 146.767L549.806 146.76L549.798 146.752L549.121 147.488ZM545.312 141.434L544.361 141.743L544.366 141.757L544.371 141.771L545.312 141.434ZM544.043 86.3555V85.3555H543.043V86.3555H544.043ZM583.496 86.3555V87.3555H584.496V86.3555H583.496ZM583.496 66.3359H584.496V65.3359H583.496V66.3359ZM544.043 66.3359H543.043V67.3359H544.043V66.3359ZM544.043 39.457H516.895V41.457H544.043V39.457ZM515.895 40.457V66.3359H517.895V40.457H515.895ZM516.895 65.3359H492.773V67.3359H516.895V65.3359ZM491.773 66.3359V86.3555H493.773V66.3359H491.773ZM492.773 87.3555H516.895V85.3555H492.773V87.3555ZM515.895 86.3555V134.402H517.895V86.3555H515.895ZM515.895 134.402C515.895 141.451 516.816 147.563 518.689 152.713L520.569 152.029C518.796 147.154 517.895 141.286 517.895 134.402H515.895ZM518.691 152.717C520.56 157.79 523.243 161.996 526.756 165.306L528.127 163.85C524.869 160.78 522.344 156.848 520.567 152.025L518.691 152.717ZM526.741 165.292C530.177 168.66 534.315 171.146 539.137 172.753L539.769 170.856C535.217 169.338 531.347 167.006 528.141 163.864L526.741 165.292ZM539.153 172.758C544.017 174.291 549.393 175.051 555.273 175.051V173.051C549.565 173.051 544.395 172.313 539.754 170.851L539.153 172.758ZM555.273 175.051C558.305 175.051 561.367 174.886 564.461 174.557L564.25 172.568C561.224 172.89 558.232 173.051 555.273 173.051V175.051ZM564.439 174.559C567.593 174.296 570.62 173.902 573.519 173.374L573.161 171.407C570.33 171.921 567.368 172.308 564.272 172.566L564.439 174.559ZM573.519 173.374C576.419 172.847 579.159 172.187 581.739 171.393L581.151 169.482C578.653 170.25 575.99 170.892 573.161 171.407L573.519 173.374ZM581.762 171.386C584.353 170.523 586.632 169.519 588.592 168.371L587.58 166.645C585.764 167.71 583.616 168.66 581.129 169.489L581.762 171.386ZM589.076 167.368L586.439 148.715L584.459 148.995L587.096 167.648L589.076 167.368ZM585.195 147.888C583.989 148.206 582.517 148.526 580.775 148.849L581.139 150.815C582.913 150.487 584.436 150.156 585.704 149.823L585.195 147.888ZM580.768 148.85C579.097 149.171 577.293 149.461 575.356 149.72L575.62 151.702C577.59 151.44 579.432 151.144 581.146 150.814L580.768 148.85ZM575.329 149.724C573.336 150.045 571.244 150.303 569.053 150.496L569.229 152.488C571.464 152.291 573.604 152.028 575.648 151.698L575.329 149.724ZM569.05 150.496C566.931 150.689 564.845 150.785 562.793 150.785V152.785C564.908 152.785 567.054 152.686 569.231 152.488L569.05 150.496ZM562.793 150.785C560.003 150.785 557.491 150.468 555.248 149.845L554.713 151.772C557.158 152.451 559.854 152.785 562.793 152.785V150.785ZM555.255 149.847C553.125 149.238 551.318 148.211 549.814 146.767L548.429 148.21C550.18 149.891 552.278 151.077 554.706 151.77L555.255 149.847ZM549.798 146.752C548.313 145.386 547.122 143.516 546.254 141.096L544.371 141.771C545.326 144.43 546.674 146.596 548.444 148.224L549.798 146.752ZM546.264 141.125C545.46 138.651 545.043 135.541 545.043 131.766H543.043C543.043 135.673 543.473 139.007 544.361 141.743L546.264 141.125ZM545.043 131.766V86.3555H543.043V131.766H545.043ZM544.043 87.3555H583.496V85.3555H544.043V87.3555ZM584.496 86.3555V66.3359H582.496V86.3555H584.496ZM583.496 65.3359H544.043V67.3359H583.496V65.3359ZM545.043 66.3359V40.457H543.043V66.3359H545.043Z" fill="black"/>
</g>
<defs>
<clipPath id="clip0_29_3">
<rect width="624" height="189" fill="white"/>
</clipPath>
</defs>
</svg>
