<svg width="964" height="249" viewBox="0 0 964 249" fill="none" xmlns="http://www.w3.org/2000/svg">
<path d="M82.7148 197.312L83.6779 197.043L83.4736 196.312H82.7148V197.312ZM91.0156 227L90.0526 227.269L90.2569 228H91.0156V227ZM119.922 227V228H121.294L120.874 226.694L119.922 227ZM74.2188 84.8125L75.1708 84.5065L74.9477 83.8125H74.2188V84.8125ZM49.3164 84.8125V83.8125H48.5917L48.3661 84.5012L49.3164 84.8125ZM2.73438 227L1.78407 226.689L1.35447 228H2.73438V227ZM31.6406 227V228H32.397L32.6029 227.272L31.6406 227ZM40.0391 197.312V196.312H39.2827L39.0768 197.04L40.0391 197.312ZM46.7773 173.973L45.8158 173.698L45.452 174.973H46.7773V173.973ZM61.7188 121.629L62.6822 121.361L61.7315 117.941L60.7572 121.354L61.7188 121.629ZM76.2695 173.973V174.973H77.5854L77.233 173.705L76.2695 173.973ZM81.7518 197.582L90.0526 227.269L91.9787 226.731L83.6779 197.043L81.7518 197.582ZM91.0156 228H119.922V226H91.0156V228ZM120.874 226.694L75.1708 84.5065L73.2667 85.1185L118.97 227.306L120.874 226.694ZM74.2188 83.8125H49.3164V85.8125H74.2188V83.8125ZM48.3661 84.5012L1.78407 226.689L3.68468 227.311L50.2667 85.1238L48.3661 84.5012ZM2.73438 228H31.6406V226H2.73438V228ZM32.6029 227.272L41.0013 197.585L39.0768 197.04L30.6784 226.728L32.6029 227.272ZM40.0391 198.312H82.7148V196.312H40.0391V198.312ZM47.7389 174.247L62.6803 121.903L60.7572 121.354L45.8158 173.698L47.7389 174.247ZM60.7553 121.897L75.3061 174.24L77.233 173.705L62.6822 121.361L60.7553 121.897ZM76.2695 172.973H46.7773V174.973H76.2695V172.973ZM181.152 173.875L182.045 173.425L181.768 172.875H181.152V173.875ZM207.91 227L207.017 227.45L207.294 228H207.91V227ZM237.305 227V228H238.305V227H237.305ZM237.305 225.73H238.305V225.486L238.192 225.269L237.305 225.73ZM206.738 167.039L206.328 166.127L205.362 166.562L205.851 167.501L206.738 167.039ZM217.285 160.789L216.683 159.991L216.675 159.997L217.285 160.789ZM225.488 152.293L226.308 152.866L226.31 152.863L225.488 152.293ZM230.566 141.453L229.609 141.164L229.606 141.174L230.566 141.453ZM228.711 109.129L227.799 109.54L227.804 109.549L228.711 109.129ZM218.359 95.75L218.983 94.968L218.977 94.9637L218.359 95.75ZM201.953 87.6445L201.669 88.6035L201.678 88.6061L201.953 87.6445ZM132.91 84.8125V83.8125H131.91V84.8125H132.91ZM132.91 227H131.91V228H132.91V227ZM160.352 227V228H161.352V227H160.352ZM160.352 173.875V172.875H159.352V173.875H160.352ZM160.352 151.609H159.352V152.609H160.352V151.609ZM160.352 107.078V106.078H159.352V107.078H160.352ZM198.047 112.352L197.404 113.118L197.409 113.122L198.047 112.352ZM203.125 119.578L202.19 119.932L202.194 119.944L202.199 119.957L203.125 119.578ZM203.516 138.035L202.574 137.697L202.571 137.708L202.567 137.719L203.516 138.035ZM199.707 144.578L198.974 143.898L198.966 143.906L198.958 143.915L199.707 144.578ZM191.797 149.852L192.142 150.79L192.152 150.786L191.797 149.852ZM180.259 174.325L207.017 227.45L208.803 226.55L182.045 173.425L180.259 174.325ZM207.91 228H237.305V226H207.91V228ZM238.305 227V225.73H236.305V227H238.305ZM238.192 225.269L207.625 166.577L205.851 167.501L236.418 226.192L238.192 225.269ZM207.149 167.951C211.12 166.164 214.704 164.041 217.896 161.581L216.675 159.997C213.616 162.354 210.169 164.399 206.328 166.127L207.149 167.951ZM217.888 161.587C221.161 159.116 223.968 156.208 226.308 152.866L224.669 151.72C222.451 154.888 219.79 157.645 216.683 159.991L217.888 161.587ZM226.31 152.863C228.59 149.577 230.327 145.864 231.527 141.732L229.606 141.174C228.462 145.115 226.814 148.629 224.667 151.723L226.31 152.863ZM231.524 141.742C232.794 137.531 233.422 132.842 233.422 127.684H231.422C231.422 132.681 230.813 137.172 229.609 141.164L231.524 141.742ZM233.422 127.684C233.422 120.535 232.164 114.202 229.618 108.708L227.804 109.549C230.206 114.733 231.422 120.77 231.422 127.684H233.422ZM229.622 108.718C227.15 103.237 223.601 98.6497 218.983 94.968L217.736 96.532C222.102 100.012 225.455 104.343 227.799 109.54L229.622 108.718ZM218.977 94.9637C214.304 91.2921 208.715 88.5364 202.228 86.683L201.678 88.6061C207.952 90.3985 213.3 93.0464 217.742 96.5363L218.977 94.9637ZM202.237 86.6856C195.749 84.7659 188.523 83.8125 180.566 83.8125V85.8125C188.365 85.8125 195.396 86.7471 201.669 88.6034L202.237 86.6856ZM180.566 83.8125H132.91V85.8125H180.566V83.8125ZM131.91 84.8125V227H133.91V84.8125H131.91ZM132.91 228H160.352V226H132.91V228ZM161.352 227V173.875H159.352V227H161.352ZM160.352 174.875H181.152V172.875H160.352V174.875ZM161.352 151.609V107.078H159.352V151.609H161.352ZM160.352 108.078H180.566V106.078H160.352V108.078ZM180.566 108.078C184.264 108.078 187.514 108.525 190.328 109.4L190.922 107.49C187.877 106.543 184.421 106.078 180.566 106.078V108.078ZM190.328 109.4C193.152 110.279 195.503 111.523 197.404 113.118L198.689 111.585C196.554 109.795 193.958 108.435 190.922 107.49L190.328 109.4ZM197.409 113.122C199.546 114.892 201.14 117.154 202.19 119.932L204.06 119.225C202.896 116.143 201.105 113.587 198.685 111.582L197.409 113.122ZM202.199 119.957C203.313 122.678 203.883 125.865 203.883 129.539H205.883C205.883 125.661 205.281 122.208 204.051 119.199L202.199 119.957ZM203.883 129.539C203.883 132.567 203.441 135.282 202.574 137.697L204.457 138.373C205.413 135.71 205.883 132.761 205.883 129.539H203.883ZM202.567 137.719C201.762 140.133 200.563 142.187 198.974 143.898L200.44 145.259C202.237 143.323 203.576 141.015 204.464 138.351L202.567 137.719ZM198.958 143.915C197.062 146.056 194.568 147.729 191.442 148.917L192.152 150.786C195.537 149.5 198.316 147.657 200.456 145.241L198.958 143.915ZM191.452 148.913C188.396 150.036 184.806 150.609 180.664 150.609V152.609C184.986 152.609 188.818 152.011 192.142 150.79L191.452 148.913ZM180.664 150.609H160.352V152.609H180.664V150.609ZM357.52 107.176V108.176H358.52V107.176H357.52ZM357.52 84.8125H358.52V83.8125H357.52V84.8125ZM242.871 84.8125V83.8125H241.871V84.8125H242.871ZM242.871 107.176H241.871V108.176H242.871V107.176ZM286.133 107.176H287.133V106.176H286.133V107.176ZM286.133 227H285.133V228H286.133V227ZM313.672 227V228H314.672V227H313.672ZM313.672 107.176V106.176H312.672V107.176H313.672ZM358.52 107.176V84.8125H356.52V107.176H358.52ZM357.52 83.8125H242.871V85.8125H357.52V83.8125ZM241.871 84.8125V107.176H243.871V84.8125H241.871ZM242.871 108.176H286.133V106.176H242.871V108.176ZM285.133 107.176V227H287.133V107.176H285.133ZM286.133 228H313.672V226H286.133V228ZM314.672 227V107.176H312.672V227H314.672ZM313.672 108.176H357.52V106.176H313.672V108.176ZM379.199 84.8125V83.8125H378.199V84.8125H379.199ZM379.199 106.98H378.199V107.98H379.199V106.98ZM406.25 106.98H407.25V105.98H406.25V106.98ZM406.25 204.93V205.93H407.25V204.93H406.25ZM379.199 204.93V203.93H378.199V204.93H379.199ZM379.199 227H378.199V228H379.199V227ZM461.426 227V228H462.426V227H461.426ZM461.426 204.93H462.426V203.93H461.426V204.93ZM433.691 204.93H432.691V205.93H433.691V204.93ZM433.691 106.98V105.98H432.691V106.98H433.691ZM461.426 106.98V107.98H462.426V106.98H461.426ZM461.426 84.8125H462.426V83.8125H461.426V84.8125ZM378.199 84.8125V106.98H380.199V84.8125H378.199ZM379.199 107.98H406.25V105.98H379.199V107.98ZM405.25 106.98V204.93H407.25V106.98H405.25ZM406.25 203.93H379.199V205.93H406.25V203.93ZM378.199 204.93V227H380.199V204.93H378.199ZM379.199 228H461.426V226H379.199V228ZM462.426 227V204.93H460.426V227H462.426ZM461.426 203.93H433.691V205.93H461.426V203.93ZM434.691 204.93V106.98H432.691V204.93H434.691ZM433.691 107.98H461.426V105.98H433.691V107.98ZM462.426 106.98V84.8125H460.426V106.98H462.426ZM461.426 83.8125H379.199V85.8125H461.426V83.8125ZM565.527 196.922L566.422 197.369L566.427 197.358L565.527 196.922ZM561.035 202.293L560.427 201.499L561.035 202.293ZM553.809 205.809L553.525 204.85L553.519 204.851L553.809 205.809ZM532.812 205.711L532.553 206.677L532.557 206.678L532.812 205.711ZM524.121 201.414L524.751 200.637L524.741 200.629L524.121 201.414ZM516.113 182.859L517.113 182.829L517.083 181.859H516.113V182.859ZM489.16 182.859V181.859H488.16V182.859H489.16ZM493.359 202.098L492.469 202.553L492.474 202.562L493.359 202.098ZM504.98 216.355L504.343 217.126L504.35 217.132L504.357 217.137L504.98 216.355ZM523.047 225.73L522.75 226.685L522.76 226.689L523.047 225.73ZM564.16 226.316L564.427 227.28L564.436 227.278L564.16 226.316ZM579.98 218.602L579.38 217.802L579.373 217.807L579.98 218.602ZM590.332 206.395L589.445 205.933L589.442 205.938L590.332 206.395ZM575.781 156.004L576.378 155.202L576.362 155.19L576.346 155.179L575.781 156.004ZM549.609 144.285L549.879 143.322L549.871 143.32L549.609 144.285ZM537.305 140.281L536.933 141.21L536.939 141.212L537.305 140.281ZM528.125 135.496L528.694 134.674L528.687 134.669L528.68 134.664L528.125 135.496ZM522.266 129.734L521.41 130.253L521.416 130.262L521.422 130.271L522.266 129.734ZM521.777 115.477L520.872 115.051L520.867 115.063L521.777 115.477ZM526.27 109.715L525.645 108.934L525.637 108.94L525.629 108.947L526.27 109.715ZM533.398 106.102L533.688 107.059L533.695 107.057L533.702 107.054L533.398 106.102ZM553.516 106.395L553.162 107.33L553.175 107.335L553.187 107.339L553.516 106.395ZM561.035 110.789L561.742 110.082L561.73 110.07L561.718 110.059L561.035 110.789ZM565.43 117.723L564.491 118.066L564.494 118.076L564.498 118.086L565.43 117.723ZM567.188 126.512L566.188 126.553L566.227 127.512H567.188V126.512ZM593.945 126.512V127.512H594.945V126.512H593.945ZM579.883 95.0664L580.544 94.3165L580.538 94.3111L579.883 95.0664ZM563.965 86.082L563.634 87.0256L563.637 87.0267L563.965 86.082ZM523.73 85.6914L524.016 86.6498L524.025 86.647L523.73 85.6914ZM496.289 136.863L495.369 137.256L495.374 137.267L496.289 136.863ZM504.883 148.973L504.188 149.692L504.883 148.973ZM519.434 159.031L518.975 159.92L518.979 159.922L519.434 159.031ZM540.234 166.844L539.971 167.809L539.974 167.809L540.234 166.844ZM552.93 171.336L552.496 172.237L552.507 172.242L552.517 172.247L552.93 171.336ZM561.328 176.512L562.012 175.782L562 175.771L561.988 175.761L561.328 176.512ZM565.723 182.762L564.789 183.119L564.793 183.131L564.798 183.142L565.723 182.762ZM566.09 189.891C566.09 192.288 565.599 194.482 564.628 196.486L566.427 197.358C567.539 195.065 568.09 192.571 568.09 189.891H566.09ZM564.633 196.475C563.663 198.415 562.266 200.089 560.427 201.499L561.644 203.087C563.71 201.502 565.308 199.596 566.422 197.369L564.633 196.475ZM560.427 201.499C558.589 202.908 556.297 204.031 553.525 204.85L554.092 206.768C557.05 205.894 559.575 204.673 561.644 203.087L560.427 201.499ZM553.519 204.851C550.833 205.663 547.711 206.078 544.141 206.078V208.078C547.861 208.078 551.185 207.647 554.098 206.766L553.519 204.851ZM544.141 206.078C540.113 206.078 536.424 205.631 533.068 204.744L532.557 206.678C536.102 207.614 539.965 208.078 544.141 208.078V206.078ZM533.072 204.745C529.805 203.865 527.038 202.491 524.751 200.637L523.491 202.191C526.022 204.243 529.05 205.733 532.553 206.677L533.072 204.745ZM524.741 200.629C522.402 198.782 520.578 196.409 519.272 193.487L517.446 194.302C518.875 197.5 520.893 200.139 523.501 202.199L524.741 200.629ZM519.272 193.487C517.971 190.574 517.24 187.031 517.113 182.829L515.114 182.89C515.247 187.282 516.013 191.095 517.446 194.302L519.272 193.487ZM516.113 181.859H489.16V183.859H516.113V181.859ZM488.16 182.859C488.16 190.344 489.585 196.918 492.469 202.553L494.25 201.642C491.535 196.34 490.16 190.089 490.16 182.859H488.16ZM492.474 202.562C495.401 208.151 499.361 213.007 504.343 217.126L505.618 215.585C500.835 211.631 497.046 206.982 494.245 201.634L492.474 202.562ZM504.357 217.137C509.606 221.324 515.742 224.504 522.75 226.685L523.344 224.776C516.55 222.66 510.641 219.59 505.604 215.574L504.357 217.137ZM522.76 226.689C529.817 228.799 536.945 229.855 544.141 229.855V227.855C537.144 227.855 530.209 226.829 523.333 224.772L522.76 226.689ZM544.141 229.855C551.445 229.855 558.209 229 564.427 227.28L563.894 225.353C557.872 227.018 551.289 227.855 544.141 227.855V229.855ZM564.436 227.278C570.659 225.49 576.049 222.867 580.588 219.396L579.373 217.807C575.058 221.107 569.901 223.627 563.884 225.355L564.436 227.278ZM580.58 219.402C585.126 215.992 588.677 211.807 591.222 206.851L589.442 205.938C587.039 210.618 583.689 214.57 579.38 217.802L580.58 219.402ZM591.219 206.856C593.842 201.812 595.141 196.084 595.141 189.695H593.141C593.141 195.807 591.9 201.211 589.445 205.933L591.219 206.856ZM595.141 189.695C595.141 182.31 593.442 175.748 590.018 170.04L588.303 171.069C591.519 176.43 593.141 182.628 593.141 189.695H595.141ZM590.018 170.04C586.625 164.385 582.073 159.44 576.378 155.202L575.184 156.806C580.687 160.901 585.055 165.656 588.303 171.069L590.018 170.04ZM576.346 155.179C572.581 152.602 568.457 150.327 563.978 148.351L563.171 150.181C567.546 152.111 571.56 154.327 575.217 156.829L576.346 155.179ZM563.978 148.351C559.505 146.378 554.805 144.702 549.879 143.322L549.34 145.248C554.179 146.603 558.789 148.247 563.171 150.181L563.978 148.351ZM549.871 143.32C545.342 142.091 541.276 140.767 537.67 139.35L536.939 141.212C540.625 142.66 544.762 144.006 549.347 145.25L549.871 143.32ZM537.676 139.353C534.149 137.942 531.159 136.38 528.694 134.674L527.556 136.318C530.17 138.128 533.299 139.756 536.933 141.21L537.676 139.353ZM528.68 134.664C526.234 133.034 524.388 131.208 523.109 129.197L521.422 130.271C522.877 132.558 524.938 134.573 527.57 136.328L528.68 134.664ZM523.121 129.216C521.919 127.234 521.312 125.006 521.312 122.508H519.312C519.312 125.348 520.008 127.938 521.41 130.253L523.121 129.216ZM521.312 122.508C521.312 120.101 521.775 117.899 522.688 115.89L520.867 115.063C519.827 117.351 519.312 119.837 519.312 122.508H521.312ZM522.682 115.902C523.659 113.826 525.064 112.021 526.91 110.483L525.629 108.947C523.569 110.664 521.979 112.7 520.873 115.051L522.682 115.902ZM526.894 110.496C528.733 109.025 530.99 107.874 533.688 107.059L533.109 105.144C530.208 106.021 527.713 107.28 525.645 108.934L526.894 110.496ZM533.702 107.054C536.45 106.18 539.6 105.734 543.164 105.734V103.734C539.436 103.734 536.076 104.2 533.095 105.149L533.702 107.054ZM543.164 105.734C547.046 105.734 550.371 106.276 553.162 107.33L553.869 105.459C550.801 104.3 547.225 103.734 543.164 103.734V105.734ZM553.187 107.339C556.069 108.342 558.45 109.74 560.352 111.519L561.718 110.059C559.584 108.062 556.951 106.531 553.844 105.45L553.187 107.339ZM560.328 111.496C562.175 113.343 563.562 115.529 564.491 118.066L566.369 117.379C565.344 114.577 563.801 112.141 561.742 110.082L560.328 111.496ZM564.498 118.086C565.495 120.641 566.062 123.46 566.188 126.553L568.187 126.471C568.052 123.183 567.447 120.143 566.361 117.359L564.498 118.086ZM567.188 127.512H593.945V125.512H567.188V127.512ZM594.945 126.512C594.945 119.999 593.682 113.994 591.142 108.513L589.327 109.354C591.735 114.55 592.945 120.264 592.945 126.512H594.945ZM591.142 108.513C588.609 103.049 585.075 98.3141 580.544 94.3166L579.221 95.8162C583.545 99.6312 586.912 104.142 589.327 109.354L591.142 108.513ZM580.538 94.3111C576.004 90.3774 570.584 87.3227 564.293 85.1374L563.637 87.0267C569.716 89.1382 574.907 92.0731 579.227 95.8217L580.538 94.3111ZM564.296 85.1385C558.056 82.9477 551.171 81.8594 543.652 81.8594V83.8594C550.977 83.8594 557.634 84.9195 563.634 87.0256L564.296 85.1385ZM543.652 81.8594C536.403 81.8594 529.661 82.8151 523.436 84.7358L524.025 86.647C530.039 84.7917 536.579 83.8594 543.652 83.8594V81.8594ZM523.445 84.733C517.223 86.5864 511.804 89.2747 507.203 92.8085L508.422 94.3946C512.805 91.0274 517.998 88.4422 524.016 86.6498L523.445 84.733ZM507.203 92.8085C502.599 96.3453 498.987 100.624 496.378 105.64L498.153 106.563C500.623 101.813 504.042 97.7589 508.422 94.3946L507.203 92.8085ZM496.378 105.64C493.759 110.678 492.457 116.274 492.457 122.41H494.457C494.457 116.567 495.694 111.291 498.153 106.563L496.378 105.64ZM492.457 122.41C492.457 127.742 493.424 132.695 495.369 137.256L497.209 136.471C495.378 132.178 494.457 127.495 494.457 122.41H492.457ZM495.374 137.267C497.384 141.822 500.327 145.964 504.188 149.692L505.577 148.253C501.887 144.69 499.101 140.758 497.204 136.46L495.374 137.267ZM504.188 149.692C508.05 153.421 512.986 156.827 518.975 159.92L519.892 158.143C514.032 155.116 509.268 151.816 505.577 148.253L504.188 149.692ZM518.979 159.922C525.041 163.019 532.041 165.646 539.971 167.809L540.497 165.879C532.673 163.745 525.806 161.164 519.889 158.141L518.979 159.922ZM539.974 167.809C545.015 169.166 549.184 170.645 552.496 172.237L553.363 170.435C549.905 168.772 545.61 167.256 540.494 165.878L539.974 167.809ZM552.517 172.247C555.905 173.781 558.613 175.457 560.668 177.263L561.988 175.761C559.746 173.79 556.855 172.016 553.342 170.425L552.517 172.247ZM560.644 177.241C562.639 179.112 564.006 181.073 564.789 183.119L566.657 182.405C565.746 180.023 564.184 177.818 562.012 175.782L560.644 177.241ZM564.798 183.142C565.657 185.228 566.09 187.474 566.09 189.891H568.09C568.09 187.229 567.611 184.723 566.647 182.381L564.798 183.142ZM717.871 107.176V108.176H718.871V107.176H717.871ZM717.871 84.8125H718.871V83.8125H717.871V84.8125ZM603.223 84.8125V83.8125H602.223V84.8125H603.223ZM603.223 107.176H602.223V108.176H603.223V107.176ZM646.484 107.176H647.484V106.176H646.484V107.176ZM646.484 227H645.484V228H646.484V227ZM674.023 227V228H675.023V227H674.023ZM674.023 107.176V106.176H673.023V107.176H674.023ZM718.871 107.176V84.8125H716.871V107.176H718.871ZM717.871 83.8125H603.223V85.8125H717.871V83.8125ZM602.223 84.8125V107.176H604.223V84.8125H602.223ZM603.223 108.176H646.484V106.176H603.223V108.176ZM645.484 107.176V227H647.484V107.176H645.484ZM646.484 228H674.023V226H646.484V228ZM675.023 227V107.176H673.023V227H675.023ZM674.023 108.176H717.871V106.176H674.023V108.176ZM739.551 84.8125V83.8125H738.551V84.8125H739.551ZM739.551 106.98H738.551V107.98H739.551V106.98ZM766.602 106.98H767.602V105.98H766.602V106.98ZM766.602 204.93V205.93H767.602V204.93H766.602ZM739.551 204.93V203.93H738.551V204.93H739.551ZM739.551 227H738.551V228H739.551V227ZM821.777 227V228H822.777V227H821.777ZM821.777 204.93H822.777V203.93H821.777V204.93ZM794.043 204.93H793.043V205.93H794.043V204.93ZM794.043 106.98V105.98H793.043V106.98H794.043ZM821.777 106.98V107.98H822.777V106.98H821.777ZM821.777 84.8125H822.777V83.8125H821.777V84.8125ZM738.551 84.8125V106.98H740.551V84.8125H738.551ZM739.551 107.98H766.602V105.98H739.551V107.98ZM765.602 106.98V204.93H767.602V106.98H765.602ZM766.602 203.93H739.551V205.93H766.602V203.93ZM738.551 204.93V227H740.551V204.93H738.551ZM739.551 228H821.777V226H739.551V228ZM822.777 227V204.93H820.777V227H822.777ZM821.777 203.93H794.043V205.93H821.777V203.93ZM795.043 204.93V106.98H793.043V204.93H795.043ZM794.043 107.98H821.777V105.98H794.043V107.98ZM822.777 106.98V84.8125H820.777V106.98H822.777ZM821.777 83.8125H739.551V85.8125H821.777V83.8125ZM952.344 182.469L953.342 182.532L953.409 181.469H952.344V182.469ZM924.902 182.469V181.469H923.961L923.904 182.408L924.902 182.469ZM922.754 193.504L921.82 193.146L922.754 193.504ZM893.652 205.809L893.362 206.766L893.379 206.771L893.396 206.775L893.652 205.809ZM887.793 202.879L888.388 202.075L888.377 202.067L887.793 202.879ZM883.398 198.484L882.581 199.06L882.588 199.07L882.595 199.08L883.398 198.484ZM880.176 192.43L879.245 192.795L879.247 192.801L880.176 192.43ZM877.246 180.809L876.254 180.938L876.256 180.946L876.257 180.954L877.246 180.809ZM876.953 134.617L877.947 134.726L877.947 134.724L876.953 134.617ZM878.809 124.656L877.848 124.379L877.846 124.384L878.809 124.656ZM883.203 114.598L882.363 114.056L882.359 114.061L883.203 114.598ZM890.039 107.859L889.535 106.996L889.534 106.996L890.039 107.859ZM895.117 105.809L894.883 104.836L894.875 104.838L895.117 105.809ZM911.523 106.785L911.163 107.718L911.176 107.723L911.188 107.727L911.523 106.785ZM918.848 111.473L919.599 110.813L919.588 110.8L919.577 110.789L918.848 111.473ZM923.145 119.48L922.188 119.773L922.191 119.782L922.194 119.791L923.145 119.48ZM925.098 130.613L924.1 130.675L924.157 131.613H925.098V130.613ZM952.441 130.613V131.613H953.533L953.438 130.526L952.441 130.613ZM921.973 86.082L921.629 87.0212L921.633 87.0224L921.973 86.082ZM886.328 84.8125L886.603 85.7741L886.612 85.7714L886.328 84.8125ZM873.73 90.4766L873.189 89.6358L873.178 89.6429L873.167 89.6503L873.73 90.4766ZM862.207 101.219L861.426 100.594L862.207 101.219ZM854.004 115.672L854.929 116.053L854.933 116.042L854.937 116.032L854.004 115.672ZM849.902 130.125L850.887 130.299L850.887 130.297L849.902 130.125ZM850 182.957L849.016 183.133L849.018 183.144L850 182.957ZM854.395 197.996L853.471 198.379L853.475 198.39L854.395 197.996ZM861.523 210.496L860.72 211.092L860.727 211.1L861.523 210.496ZM871.289 220.164L870.698 220.971L870.704 220.975L871.289 220.164ZM884.668 226.805L884.367 227.758L884.374 227.761L884.382 227.763L884.668 226.805ZM921.289 225.828L921.62 226.772L921.629 226.769L921.289 225.828ZM937.109 216.453L937.783 217.192L937.109 216.453ZM947.656 201.805L946.75 201.382L946.746 201.391L947.656 201.805ZM952.344 181.469H924.902V183.469H952.344V181.469ZM923.904 182.408C923.648 186.633 922.946 190.206 921.82 193.146L923.688 193.862C924.905 190.682 925.636 186.898 925.901 182.529L923.904 182.408ZM921.82 193.146C920.692 196.092 919.171 198.469 917.273 200.305L918.664 201.742C920.803 199.672 922.472 197.035 923.688 193.862L921.82 193.146ZM917.273 200.305C915.374 202.143 913.069 203.499 910.341 204.367L910.948 206.273C913.949 205.318 916.527 203.81 918.664 201.742L917.273 200.305ZM910.341 204.367C907.591 205.242 904.473 205.688 900.977 205.688V207.688C904.641 207.688 907.968 207.221 910.948 206.273L910.341 204.367ZM900.977 205.688C898.38 205.688 896.026 205.402 893.908 204.842L893.396 206.775C895.706 207.387 898.235 207.688 900.977 207.688V205.688ZM893.942 204.852C891.901 204.233 890.051 203.307 888.388 202.075L887.198 203.682C889.05 205.055 891.107 206.082 893.362 206.766L893.942 204.852ZM888.377 202.067C886.841 200.961 885.448 199.571 884.202 197.889L882.595 199.08C883.953 200.913 885.49 202.453 887.209 203.69L888.377 202.067ZM884.216 197.909C883.03 196.223 881.991 194.275 881.104 192.058L879.247 192.801C880.184 195.142 881.293 197.23 882.581 199.06L884.216 197.909ZM881.107 192.065C879.838 188.83 878.878 185.033 878.235 180.663L876.257 180.954C876.916 185.438 877.909 189.388 879.245 192.795L881.107 192.065ZM878.238 180.679C877.659 176.239 877.367 171.205 877.367 165.574H875.367C875.367 171.271 875.662 176.394 876.254 180.938L878.238 180.679ZM877.367 165.574V146.238H875.367V165.574H877.367ZM877.367 146.238C877.367 142.102 877.561 138.265 877.947 134.726L875.959 134.509C875.564 138.131 875.367 142.041 875.367 146.238H877.367ZM877.947 134.724C878.333 131.124 878.942 127.86 879.771 124.928L877.846 124.384C876.982 127.442 876.354 130.818 875.959 134.511L877.947 134.724ZM879.77 124.933C880.854 121.168 882.283 117.906 884.047 115.135L882.359 114.061C880.477 117.019 878.976 120.462 877.848 124.379L879.77 124.933ZM884.044 115.139C885.858 112.325 888.027 110.196 890.544 108.722L889.534 106.996C886.713 108.648 884.325 111.011 882.363 114.056L884.044 115.139ZM890.543 108.723C892.021 107.861 893.625 107.212 895.36 106.779L894.875 104.838C892.964 105.316 891.182 106.035 889.535 106.996L890.543 108.723ZM895.352 106.781C897.155 106.345 899.094 106.125 901.172 106.125V104.125C898.953 104.125 896.855 104.36 894.883 104.837L895.352 106.781ZM901.172 106.125C905.122 106.125 908.443 106.667 911.163 107.718L911.884 105.852C908.874 104.69 905.295 104.125 901.172 104.125V106.125ZM911.188 107.727C913.982 108.72 916.284 110.2 918.118 112.157L919.577 110.789C917.506 108.579 914.925 106.933 911.858 105.843L911.188 107.727ZM918.096 112.133C919.877 114.158 921.246 116.696 922.188 119.773L924.101 119.188C923.09 115.884 921.595 113.084 919.599 110.813L918.096 112.133ZM922.194 119.791C923.203 122.882 923.843 126.506 924.1 130.675L926.096 130.552C925.831 126.257 925.169 122.459 924.095 119.17L922.194 119.791ZM925.098 131.613H952.441V129.613H925.098V131.613ZM953.438 130.526C952.779 123.018 951.196 116.242 948.677 110.208L946.831 110.979C949.26 116.795 950.802 123.365 951.445 130.701L953.438 130.526ZM948.677 110.208C946.154 104.167 942.693 99.0358 938.288 94.8313L936.907 96.278C941.096 100.277 944.406 105.172 946.831 110.979L948.677 110.208ZM938.288 94.8313C933.882 90.6251 928.551 87.3979 922.313 85.1417L921.633 87.0224C927.634 89.1933 932.72 92.2812 936.907 96.278L938.288 94.8313ZM922.316 85.1428C916.131 82.8816 909.077 81.7617 901.172 81.7617V83.7617C908.891 83.7617 915.705 84.8554 921.629 87.0212L922.316 85.1428ZM901.172 81.7617C895.811 81.7617 890.767 82.4567 886.044 83.8536L886.612 85.7714C891.134 84.4339 895.986 83.7617 901.172 83.7617V81.7617ZM886.053 83.851C881.405 85.179 877.116 87.1068 873.189 89.6358L874.272 91.3173C878.028 88.8984 882.136 87.0502 886.603 85.774L886.053 83.851ZM873.167 89.6503C868.785 92.6383 864.871 96.288 861.426 100.594L862.988 101.843C866.314 97.686 870.082 94.1742 874.294 91.3028L873.167 89.6503ZM861.426 100.594C857.972 104.911 855.189 109.819 853.071 115.312L854.937 116.032C856.986 110.717 859.671 105.99 862.988 101.843L861.426 100.594ZM853.079 115.291C851.226 119.792 849.84 124.68 848.917 129.953L850.887 130.297C851.788 125.153 853.136 120.406 854.929 116.053L853.079 115.291ZM848.918 129.951C847.995 135.157 847.535 140.651 847.535 146.434H849.535C849.535 140.757 849.987 135.38 850.887 130.299L848.918 129.951ZM847.535 146.434V165.574H849.535V146.434H847.535ZM847.535 165.574C847.535 171.747 848.028 177.601 849.016 183.133L850.984 182.781C850.019 177.376 849.535 171.641 849.535 165.574H847.535ZM849.018 183.144C850.07 188.672 851.553 193.751 853.471 198.379L855.318 197.613C853.46 193.127 852.013 188.18 850.982 182.77L849.018 183.144ZM853.475 198.39C855.457 203.015 857.872 207.25 860.72 211.092L862.327 209.901C859.576 206.19 857.238 202.092 855.314 197.602L853.475 198.39ZM860.727 211.1C863.647 214.95 866.971 218.242 870.698 220.971L871.88 219.357C868.316 216.748 865.129 213.594 862.32 209.892L860.727 211.1ZM870.704 220.975C874.767 223.906 879.323 226.166 884.367 227.758L884.969 225.851C880.117 224.319 875.754 222.152 871.874 219.353L870.704 220.975ZM884.382 227.763C889.498 229.291 895.032 230.051 900.977 230.051V228.051C895.203 228.051 889.864 227.313 884.954 225.847L884.382 227.763ZM900.977 230.051C908.495 230.051 915.38 228.962 921.62 226.772L920.958 224.885C914.959 226.991 908.302 228.051 900.977 228.051V230.051ZM921.629 226.769C927.862 224.514 933.251 221.324 937.783 217.192L936.436 215.714C932.114 219.655 926.956 222.715 920.949 224.888L921.629 226.769ZM937.783 217.192C942.315 213.06 945.909 208.065 948.567 202.218L946.746 201.391C944.195 207.003 940.758 211.774 936.436 215.714L937.783 217.192ZM948.563 202.227C951.291 196.371 952.879 189.801 953.342 182.532L951.346 182.405C950.897 189.459 949.36 195.78 946.75 201.382L948.563 202.227Z" fill="black"/>
<path d="M80.7852 210H108.324V208.34C106.957 205.671 105.915 202.48 105.199 198.77C104.483 195.059 104.125 190.371 104.125 184.707V139.395C104.125 133.275 102.986 127.904 100.707 123.281C98.4284 118.594 95.2708 114.72 91.2344 111.66C87.1979 108.6 82.4128 106.289 76.8789 104.727C71.4102 103.164 65.4857 102.383 59.1055 102.383C52.0091 102.383 45.694 103.294 40.1602 105.117C34.6914 106.875 30.069 109.284 26.293 112.344C22.4518 115.404 19.5221 118.952 17.5039 122.988C15.5508 127.025 14.5742 131.289 14.5742 135.781H41.7227C41.7227 133.893 41.9831 132.168 42.5039 130.605C43.0898 129.043 43.9688 127.708 45.1406 126.602C46.4427 125.365 48.1354 124.421 50.2188 123.77C52.3021 123.053 54.776 122.695 57.6406 122.695C60.8958 122.695 63.7279 123.118 66.1367 123.965C68.6107 124.746 70.6615 125.885 72.2891 127.383C73.8516 128.815 75.0234 130.54 75.8047 132.559C76.5859 134.512 76.9766 136.725 76.9766 139.199V145.449H61.8398C54.0273 145.449 47.0938 146.165 41.0391 147.598C35.0495 148.965 30.0039 150.983 25.9023 153.652C21.3451 156.582 17.9271 160.326 15.6484 164.883C13.3698 169.375 12.2305 174.551 12.2305 180.41C12.2305 184.967 13.1419 189.199 14.9648 193.105C16.7878 196.947 19.3268 200.267 22.582 203.066C25.8372 205.866 29.7109 208.047 34.2031 209.609C38.7604 211.172 43.7409 211.953 49.1445 211.953C52.4648 211.953 55.5573 211.628 58.4219 210.977C61.2865 210.391 63.9232 209.544 66.332 208.438C68.6758 207.396 70.8242 206.159 72.7773 204.727C74.7305 203.294 76.4557 201.764 77.9531 200.137C78.2786 202.025 78.6693 203.815 79.125 205.508C79.5807 207.201 80.1341 208.698 80.7852 210ZM54.9062 190.957C52.3672 190.957 50.1211 190.664 48.168 190.078C46.2799 189.427 44.6849 188.581 43.3828 187.539C42.0807 186.432 41.0716 185.098 40.3555 183.535C39.7044 181.908 39.3789 180.15 39.3789 178.262C39.3789 175.853 39.8346 173.639 40.7461 171.621C41.6576 169.538 43.0573 167.747 44.9453 166.25C46.8333 164.818 49.2747 163.711 52.2695 162.93C55.2643 162.083 58.8776 161.66 63.1094 161.66H76.9766V179.824C76.1953 181.191 75.1211 182.559 73.7539 183.926C72.3867 185.228 70.7591 186.4 68.8711 187.441C66.9831 188.483 64.8672 189.329 62.5234 189.98C60.1797 190.632 57.6406 190.957 54.9062 190.957ZM210.766 102.383C203.669 102.383 197.126 104.108 191.137 107.559C185.147 110.944 180.004 115.632 175.707 121.621L175.512 119.277L174.438 104.336H149.145V210H176.293V146.523C177.53 143.529 179.092 140.924 180.98 138.711C182.868 136.497 185.147 134.674 187.816 133.242C190.03 132.005 192.536 131.094 195.336 130.508C198.201 129.857 201.391 129.531 204.906 129.531C208.292 129.531 211.84 129.759 215.551 130.215C219.327 130.605 223.005 131.224 226.586 132.07L230.59 105.02C228.441 104.368 225.609 103.783 222.094 103.262C218.643 102.676 214.867 102.383 210.766 102.383ZM304.809 78.457H277.66V104.336H253.539V124.355H277.66V172.402C277.66 179.368 278.572 185.358 280.395 190.371C282.217 195.319 284.822 199.388 288.207 202.578C291.527 205.833 295.531 208.242 300.219 209.805C304.971 211.302 310.245 212.051 316.039 212.051C319.034 212.051 322.061 211.888 325.121 211.562C328.246 211.302 331.241 210.911 334.105 210.391C336.97 209.87 339.672 209.219 342.211 208.438C344.75 207.591 346.964 206.615 348.852 205.508L346.215 186.855C344.978 187.181 343.48 187.507 341.723 187.832C340.03 188.158 338.207 188.451 336.254 188.711C334.236 189.036 332.12 189.297 329.906 189.492C327.758 189.688 325.642 189.785 323.559 189.785C320.694 189.785 318.09 189.46 315.746 188.809C313.467 188.158 311.514 187.051 309.887 185.488C308.259 183.991 306.99 181.973 306.078 179.434C305.232 176.829 304.809 173.607 304.809 169.766V124.355H344.262V104.336H304.809V78.457ZM382.348 104.336V126.504H412.426V187.93H382.348V210H468.48V187.93H439.867V104.336H382.348ZM410.473 77.2852C410.473 79.3685 410.831 81.3216 411.547 83.1445C412.328 84.9023 413.402 86.3997 414.77 87.6367C416.137 88.9388 417.764 89.9479 419.652 90.6641C421.605 91.3802 423.754 91.7383 426.098 91.7383C430.915 91.7383 434.724 90.4036 437.523 87.7344C440.388 85 441.82 81.5169 441.82 77.2852C441.82 73.0534 440.388 69.6029 437.523 66.9336C434.724 64.1992 430.915 62.832 426.098 62.832C423.754 62.832 421.605 63.1901 419.652 63.9062C417.764 64.6224 416.137 65.599 414.77 66.8359C413.402 68.138 412.328 69.7005 411.547 71.5234C410.831 73.2812 410.473 75.2018 410.473 77.2852ZM563.402 180.996C563.402 182.624 562.979 184.121 562.133 185.488C561.352 186.855 560.147 188.06 558.52 189.102C556.827 190.143 554.646 190.99 551.977 191.641C549.372 192.227 546.312 192.52 542.797 192.52C539.867 192.52 537.003 192.227 534.203 191.641C531.469 191.055 529.027 190.111 526.879 188.809C524.73 187.572 522.973 185.944 521.605 183.926C520.238 181.842 519.457 179.368 519.262 176.504H493.383C493.383 180.801 494.424 185.098 496.508 189.395C498.656 193.626 501.781 197.402 505.883 200.723C509.984 204.108 515.062 206.842 521.117 208.926C527.237 211.009 534.268 212.051 542.211 212.051C549.438 212.051 555.98 211.27 561.84 209.707C567.699 208.079 572.712 205.833 576.879 202.969C580.98 200.104 584.138 196.719 586.352 192.812C588.63 188.841 589.77 184.512 589.77 179.824C589.77 174.746 588.63 170.384 586.352 166.738C584.138 163.027 581.046 159.87 577.074 157.266C573.103 154.727 568.383 152.643 562.914 151.016C557.445 149.388 551.521 148.053 545.141 147.012C540.714 146.361 537.068 145.612 534.203 144.766C531.339 143.854 529.092 142.845 527.465 141.738C525.772 140.697 524.6 139.525 523.949 138.223C523.298 136.855 522.973 135.391 522.973 133.828C522.973 132.266 523.331 130.801 524.047 129.434C524.828 128.001 525.935 126.764 527.367 125.723C528.93 124.551 530.948 123.639 533.422 122.988C535.896 122.337 538.793 122.012 542.113 122.012C546.02 122.012 549.34 122.5 552.074 123.477C554.874 124.453 557.087 125.755 558.715 127.383C559.887 128.62 560.766 130.02 561.352 131.582C561.938 133.079 562.23 134.707 562.23 136.465H589.379C589.379 131.582 588.305 127.057 586.156 122.891C584.008 118.724 580.915 115.111 576.879 112.051C572.777 109.056 567.797 106.712 561.938 105.02C556.078 103.262 549.47 102.383 542.113 102.383C535.082 102.383 528.767 103.262 523.168 105.02C517.569 106.777 512.816 109.154 508.91 112.148C505.004 115.143 502.009 118.626 499.926 122.598C497.842 126.569 496.801 130.736 496.801 135.098C496.801 139.59 497.81 143.561 499.828 147.012C501.911 150.462 504.776 153.49 508.422 156.094C512.068 158.763 516.43 161.042 521.508 162.93C526.651 164.753 532.315 166.283 538.5 167.52C543.383 168.431 547.419 169.342 550.609 170.254C553.799 171.165 556.371 172.142 558.324 173.184C560.212 174.29 561.514 175.462 562.23 176.699C563.012 177.936 563.402 179.368 563.402 180.996ZM665.16 78.457H638.012V104.336H613.891V124.355H638.012V172.402C638.012 179.368 638.923 185.358 640.746 190.371C642.569 195.319 645.173 199.388 648.559 202.578C651.879 205.833 655.883 208.242 660.57 209.805C665.323 211.302 670.596 212.051 676.391 212.051C679.385 212.051 682.413 211.888 685.473 211.562C688.598 211.302 691.592 210.911 694.457 210.391C697.322 209.87 700.023 209.219 702.562 208.438C705.102 207.591 707.315 206.615 709.203 205.508L706.566 186.855C705.329 187.181 703.832 187.507 702.074 187.832C700.382 188.158 698.559 188.451 696.605 188.711C694.587 189.036 692.471 189.297 690.258 189.492C688.109 189.688 685.993 189.785 683.91 189.785C681.046 189.785 678.441 189.46 676.098 188.809C673.819 188.158 671.866 187.051 670.238 185.488C668.611 183.991 667.341 181.973 666.43 179.434C665.583 176.829 665.16 173.607 665.16 169.766V124.355H704.613V104.336H665.16V78.457ZM742.699 104.336V126.504H772.777V187.93H742.699V210H828.832V187.93H800.219V104.336H742.699ZM770.824 77.2852C770.824 79.3685 771.182 81.3216 771.898 83.1445C772.68 84.9023 773.754 86.3997 775.121 87.6367C776.488 88.9388 778.116 89.9479 780.004 90.6641C781.957 91.3802 784.105 91.7383 786.449 91.7383C791.267 91.7383 795.076 90.4036 797.875 87.7344C800.74 85 802.172 81.5169 802.172 77.2852C802.172 73.0534 800.74 69.6029 797.875 66.9336C795.076 64.1992 791.267 62.832 786.449 62.832C784.105 62.832 781.957 63.1901 780.004 63.9062C778.116 64.6224 776.488 65.599 775.121 66.8359C773.754 68.138 772.68 69.7005 771.898 71.5234C771.182 73.2812 770.824 75.2018 770.824 77.2852ZM902.367 190.273C898.005 190.273 894.392 189.395 891.527 187.637C888.728 185.879 886.514 183.535 884.887 180.605C883.194 177.741 882.022 174.421 881.371 170.645C880.72 166.803 880.395 162.832 880.395 158.73V155.801C880.395 151.764 880.72 147.858 881.371 144.082C882.087 140.306 883.292 136.953 884.984 134.023C886.612 131.094 888.826 128.75 891.625 126.992C894.424 125.234 897.973 124.355 902.27 124.355C905.199 124.355 907.901 124.876 910.375 125.918C912.849 126.895 914.965 128.229 916.723 129.922C918.48 131.615 919.815 133.633 920.727 135.977C921.638 138.32 922.029 140.794 921.898 143.398H947.484C947.615 137.148 946.573 131.517 944.359 126.504C942.146 121.426 939.053 117.096 935.082 113.516C931.046 110 926.26 107.266 920.727 105.312C915.193 103.359 909.171 102.383 902.66 102.383C894.522 102.383 887.361 103.783 881.176 106.582C875.056 109.382 869.913 113.19 865.746 118.008C861.579 122.826 858.454 128.49 856.371 135C854.288 141.445 853.246 148.379 853.246 155.801V158.73C853.246 166.152 854.288 173.118 856.371 179.629C858.52 186.074 861.677 191.706 865.844 196.523C869.945 201.341 875.089 205.15 881.273 207.949C887.458 210.684 894.652 212.051 902.855 212.051C908.91 212.051 914.639 211.107 920.043 209.219C925.512 207.266 930.297 204.596 934.398 201.211C938.5 197.826 941.723 193.789 944.066 189.102C946.475 184.414 947.615 179.336 947.484 173.867H921.898C922.029 176.341 921.573 178.587 920.531 180.605C919.555 182.624 918.155 184.349 916.332 185.781C914.509 187.214 912.393 188.32 909.984 189.102C907.576 189.883 905.036 190.273 902.367 190.273Z" fill="#FF94E1"/>
</svg>
