<svg width="841" height="119" viewBox="0 0 841 119" fill="none" xmlns="http://www.w3.org/2000/svg">
<g clip-path="url(#clip0_8_105)">
<path d="M44.8242 38.1914C41.276 38.1914 38.0046 39.054 35.0098 40.7793C32.015 42.472 29.4434 44.8158 27.2949 47.8105L27.1973 46.6387L26.6602 39.168H14.0137V92H27.5879V60.2617C28.2064 58.7643 28.9876 57.4622 29.9316 56.3555C30.8757 55.2487 32.015 54.3372 33.3496 53.6211C34.4564 53.0026 35.7096 52.5469 37.1094 52.2539C38.5417 51.9284 40.1367 51.7656 41.8945 51.7656C43.5872 51.7656 45.3613 51.8796 47.2168 52.1074C49.1048 52.3027 50.944 52.612 52.7344 53.0352L54.7363 39.5098C53.6621 39.1842 52.2461 38.8913 50.4883 38.6309C48.763 38.3379 46.875 38.1914 44.8242 38.1914ZM92.5781 92.9766C97.6888 92.9766 102.116 91.9837 105.859 89.998C109.603 88.0124 112.337 85.7988 114.062 83.3574L107.275 76.0332C105.713 78.0514 103.678 79.5651 101.172 80.5742C98.6654 81.5833 96.0775 82.0879 93.4082 82.0879C91.5202 82.0879 89.7786 81.7949 88.1836 81.209C86.5885 80.623 85.1725 79.793 83.9355 78.7188C82.7311 77.6771 81.7708 76.5215 81.0547 75.252C80.3385 73.9499 79.7526 72.2409 79.2969 70.125V69.9785H115.137V64.2168C115.137 60.3431 114.6 56.8112 113.525 53.6211C112.451 50.3984 110.889 47.6478 108.838 45.3691C106.755 43.0905 104.215 41.3327 101.221 40.0957C98.2585 38.8262 94.873 38.1914 91.0645 38.1914C87.3861 38.1914 83.9844 38.8587 80.8594 40.1934C77.7344 41.528 75.0326 43.3997 72.7539 45.8086C70.4753 48.2174 68.7012 51.0983 67.4316 54.4512C66.1621 57.7715 65.5273 61.4499 65.5273 65.4863V67.4395C65.5273 70.9876 66.1621 74.3242 67.4316 77.4492C68.7337 80.5417 70.5729 83.2272 72.9492 85.5059C75.3255 87.8171 78.1738 89.64 81.4941 90.9746C84.8145 92.3092 88.5091 92.9766 92.5781 92.9766ZM90.9668 49.1777C92.6921 49.1777 94.2057 49.4544 95.5078 50.0078C96.8424 50.5286 97.9655 51.2448 98.877 52.1562C99.7884 53.1003 100.505 54.207 101.025 55.4766C101.546 56.7461 101.807 58.097 101.807 59.5293V60.6035H79.541C79.8665 58.8783 80.3548 57.3158 81.0059 55.916C81.6569 54.5163 82.4707 53.3118 83.4473 52.3027C84.3913 51.2936 85.498 50.5286 86.7676 50.0078C88.0371 49.4544 89.4368 49.1777 90.9668 49.1777ZM151.904 26.2285H138.33V39.168H126.27V49.1777H138.33V73.2012C138.33 76.6842 138.786 79.679 139.697 82.1855C140.609 84.6595 141.911 86.694 143.604 88.2891C145.264 89.9167 147.266 91.1211 149.609 91.9023C151.986 92.651 154.622 93.0254 157.52 93.0254C159.017 93.0254 160.531 92.944 162.061 92.7812C163.623 92.651 165.12 92.4557 166.553 92.1953C167.985 91.9349 169.336 91.6094 170.605 91.2188C171.875 90.7956 172.982 90.3073 173.926 89.7539L172.607 80.4277C171.989 80.5905 171.24 80.7533 170.361 80.916C169.515 81.0788 168.604 81.2253 167.627 81.3555C166.618 81.5182 165.56 81.6484 164.453 81.7461C163.379 81.8438 162.321 81.8926 161.279 81.8926C159.847 81.8926 158.545 81.7298 157.373 81.4043C156.234 81.0788 155.257 80.5254 154.443 79.7441C153.63 78.9954 152.995 77.9863 152.539 76.7168C152.116 75.4147 151.904 73.8034 151.904 71.8828V49.1777H171.631V39.168H151.904V26.2285ZM225 38.1914C221.452 38.1914 218.18 39.054 215.186 40.7793C212.191 42.472 209.619 44.8158 207.471 47.8105L207.373 46.6387L206.836 39.168H194.189V92H207.764V60.2617C208.382 58.7643 209.163 57.4622 210.107 56.3555C211.051 55.2487 212.191 54.3372 213.525 53.6211C214.632 53.0026 215.885 52.5469 217.285 52.2539C218.717 51.9284 220.312 51.7656 222.07 51.7656C223.763 51.7656 225.537 51.8796 227.393 52.1074C229.281 52.3027 231.12 52.612 232.91 53.0352L234.912 39.5098C233.838 39.1842 232.422 38.8913 230.664 38.6309C228.939 38.3379 227.051 38.1914 225 38.1914ZM245.264 65.0957V66.1211C245.264 69.9948 245.817 73.5755 246.924 76.8633C248.031 80.1185 249.658 82.9505 251.807 85.3594C253.923 87.7682 256.527 89.6562 259.619 91.0234C262.744 92.3581 266.292 93.0254 270.264 93.0254C274.202 93.0254 277.718 92.3581 280.811 91.0234C283.903 89.6562 286.507 87.7682 288.623 85.3594C290.739 82.9505 292.35 80.1185 293.457 76.8633C294.564 73.5755 295.117 69.9948 295.117 66.1211V65.0957C295.117 61.2546 294.564 57.7064 293.457 54.4512C292.35 51.1634 290.739 48.3151 288.623 45.9062C286.475 43.4974 283.854 41.6094 280.762 40.2422C277.669 38.875 274.137 38.1914 270.166 38.1914C266.195 38.1914 262.663 38.875 259.57 40.2422C256.51 41.6094 253.923 43.4974 251.807 45.9062C249.658 48.3151 248.031 51.1634 246.924 54.4512C245.817 57.7064 245.264 61.2546 245.264 65.0957ZM258.838 66.1211V65.0957C258.838 62.9473 259.049 60.9128 259.473 58.9922C259.896 57.0716 260.563 55.3789 261.475 53.9141C262.386 52.4492 263.558 51.2936 264.99 50.4473C266.423 49.6009 268.148 49.1777 270.166 49.1777C272.217 49.1777 273.958 49.6009 275.391 50.4473C276.823 51.2936 277.995 52.4492 278.906 53.9141C279.785 55.3789 280.436 57.0716 280.859 58.9922C281.283 60.9128 281.494 62.9473 281.494 65.0957V66.1211C281.494 68.3346 281.283 70.418 280.859 72.3711C280.436 74.2917 279.785 75.9681 278.906 77.4004C277.995 78.8652 276.823 80.0208 275.391 80.8672C273.958 81.7135 272.249 82.1367 270.264 82.1367C268.213 82.1367 266.455 81.7135 264.99 80.8672C263.558 80.0208 262.386 78.8652 261.475 77.4004C260.563 75.9681 259.896 74.2917 259.473 72.3711C259.049 70.418 258.838 68.3346 258.838 66.1211ZM400.244 92H414.014V91.1699C413.33 89.8353 412.809 88.2402 412.451 86.3848C412.093 84.5293 411.914 82.1855 411.914 79.3535V56.6973C411.914 53.6374 411.344 50.9518 410.205 48.6406C409.066 46.2969 407.487 44.36 405.469 42.8301C403.451 41.3001 401.058 40.1445 398.291 39.3633C395.557 38.582 392.594 38.1914 389.404 38.1914C385.856 38.1914 382.699 38.6471 379.932 39.5586C377.197 40.4375 374.886 41.6419 372.998 43.1719C371.077 44.7018 369.613 46.4759 368.604 48.4941C367.627 50.5124 367.139 52.6445 367.139 54.8906H380.713C380.713 53.9466 380.843 53.084 381.104 52.3027C381.396 51.5215 381.836 50.8542 382.422 50.3008C383.073 49.6823 383.919 49.2103 384.961 48.8848C386.003 48.5267 387.24 48.3477 388.672 48.3477C390.299 48.3477 391.715 48.5592 392.92 48.9824C394.157 49.373 395.182 49.9427 395.996 50.6914C396.777 51.4076 397.363 52.2702 397.754 53.2793C398.145 54.2559 398.34 55.3626 398.34 56.5996V59.7246H390.771C386.865 59.7246 383.398 60.0827 380.371 60.7988C377.376 61.4824 374.854 62.4915 372.803 63.8262C370.524 65.291 368.815 67.1628 367.676 69.4414C366.536 71.6875 365.967 74.2754 365.967 77.2051C365.967 79.4837 366.423 81.5996 367.334 83.5527C368.245 85.4733 369.515 87.1335 371.143 88.5332C372.77 89.9329 374.707 91.0234 376.953 91.8047C379.232 92.5859 381.722 92.9766 384.424 92.9766C386.084 92.9766 387.63 92.8138 389.062 92.4883C390.495 92.1953 391.813 91.7721 393.018 91.2188C394.189 90.6979 395.264 90.0794 396.24 89.3633C397.217 88.6471 398.079 87.8822 398.828 87.0684C398.991 88.0124 399.186 88.9076 399.414 89.7539C399.642 90.6003 399.919 91.349 400.244 92ZM387.305 82.4785C386.035 82.4785 384.912 82.332 383.936 82.0391C382.992 81.7135 382.194 81.2904 381.543 80.7695C380.892 80.2161 380.387 79.5488 380.029 78.7676C379.704 77.9538 379.541 77.0749 379.541 76.1309C379.541 74.9264 379.769 73.8197 380.225 72.8105C380.68 71.7689 381.38 70.8737 382.324 70.125C383.268 69.4089 384.489 68.8555 385.986 68.4648C387.484 68.0417 389.29 67.8301 391.406 67.8301H398.34V76.9121C397.949 77.5957 397.412 78.2793 396.729 78.9629C396.045 79.6139 395.231 80.1999 394.287 80.7207C393.343 81.2415 392.285 81.6647 391.113 81.9902C389.941 82.3158 388.672 82.4785 387.305 82.4785ZM465.234 38.1914C461.686 38.1914 458.415 39.054 455.42 40.7793C452.425 42.472 449.854 44.8158 447.705 47.8105L447.607 46.6387L447.07 39.168H434.424V92H447.998V60.2617C448.617 58.7643 449.398 57.4622 450.342 56.3555C451.286 55.2487 452.425 54.3372 453.76 53.6211C454.867 53.0026 456.12 52.5469 457.52 52.2539C458.952 51.9284 460.547 51.7656 462.305 51.7656C463.997 51.7656 465.771 51.8796 467.627 52.1074C469.515 52.3027 471.354 52.612 473.145 53.0352L475.146 39.5098C474.072 39.1842 472.656 38.8913 470.898 38.6309C469.173 38.3379 467.285 38.1914 465.234 38.1914ZM512.256 26.2285H498.682V39.168H486.621V49.1777H498.682V73.2012C498.682 76.6842 499.137 79.679 500.049 82.1855C500.96 84.6595 502.262 86.694 503.955 88.2891C505.615 89.9167 507.617 91.1211 509.961 91.9023C512.337 92.651 514.974 93.0254 517.871 93.0254C519.368 93.0254 520.882 92.944 522.412 92.7812C523.975 92.651 525.472 92.4557 526.904 92.1953C528.337 91.9349 529.688 91.6094 530.957 91.2188C532.227 90.7956 533.333 90.3073 534.277 89.7539L532.959 80.4277C532.34 80.5905 531.592 80.7533 530.713 80.916C529.867 81.0788 528.955 81.2253 527.979 81.3555C526.969 81.5182 525.911 81.6484 524.805 81.7461C523.73 81.8438 522.673 81.8926 521.631 81.8926C520.199 81.8926 518.896 81.7298 517.725 81.4043C516.585 81.0788 515.609 80.5254 514.795 79.7441C513.981 78.9954 513.346 77.9863 512.891 76.7168C512.467 75.4147 512.256 73.8034 512.256 71.8828V49.1777H531.982V39.168H512.256V26.2285ZM551.025 39.168V50.252H566.064V80.9648H551.025V92H594.092V80.9648H579.785V39.168H551.025ZM565.088 25.6426C565.088 26.6842 565.267 27.6608 565.625 28.5723C566.016 29.4512 566.553 30.1999 567.236 30.8184C567.92 31.4694 568.734 31.974 569.678 32.332C570.654 32.6901 571.729 32.8691 572.9 32.8691C575.309 32.8691 577.214 32.2018 578.613 30.8672C580.046 29.5 580.762 27.7585 580.762 25.6426C580.762 23.5267 580.046 21.8014 578.613 20.4668C577.214 19.0996 575.309 18.416 572.9 18.416C571.729 18.416 570.654 18.5951 569.678 18.9531C568.734 19.3112 567.92 19.7995 567.236 20.418C566.553 21.069 566.016 21.8503 565.625 22.7617C565.267 23.6406 565.088 24.6009 565.088 25.6426ZM641.553 77.498C641.553 78.3118 641.341 79.0605 640.918 79.7441C640.527 80.4277 639.925 81.0299 639.111 81.5508C638.265 82.0716 637.174 82.4948 635.84 82.8203C634.538 83.1133 633.008 83.2598 631.25 83.2598C629.785 83.2598 628.353 83.1133 626.953 82.8203C625.586 82.5273 624.365 82.0553 623.291 81.4043C622.217 80.7858 621.338 79.972 620.654 78.9629C619.971 77.9212 619.58 76.6842 619.482 75.252H606.543C606.543 77.4004 607.064 79.5488 608.105 81.6973C609.18 83.8132 610.742 85.7012 612.793 87.3613C614.844 89.054 617.383 90.4212 620.41 91.4629C623.47 92.5046 626.986 93.0254 630.957 93.0254C634.57 93.0254 637.842 92.6348 640.771 91.8535C643.701 91.0397 646.208 89.9167 648.291 88.4844C650.342 87.0521 651.921 85.3594 653.027 83.4062C654.167 81.4206 654.736 79.2559 654.736 76.9121C654.736 74.373 654.167 72.1921 653.027 70.3691C651.921 68.5137 650.374 66.9349 648.389 65.6328C646.403 64.3633 644.043 63.3216 641.309 62.5078C638.574 61.694 635.612 61.0267 632.422 60.5059C630.208 60.1803 628.385 59.806 626.953 59.3828C625.521 58.9271 624.398 58.4225 623.584 57.8691C622.738 57.3483 622.152 56.7624 621.826 56.1113C621.501 55.4277 621.338 54.6953 621.338 53.9141C621.338 53.1328 621.517 52.4004 621.875 51.7168C622.266 51.0007 622.819 50.3822 623.535 49.8613C624.316 49.2754 625.326 48.8197 626.562 48.4941C627.799 48.1686 629.248 48.0059 630.908 48.0059C632.861 48.0059 634.521 48.25 635.889 48.7383C637.288 49.2266 638.395 49.8776 639.209 50.6914C639.795 51.3099 640.234 52.0098 640.527 52.791C640.82 53.5397 640.967 54.3535 640.967 55.2324H654.541C654.541 52.791 654.004 50.5286 652.93 48.4453C651.855 46.362 650.309 44.5553 648.291 43.0254C646.24 41.528 643.75 40.3561 640.82 39.5098C637.891 38.6309 634.587 38.1914 630.908 38.1914C627.393 38.1914 624.235 38.6309 621.436 39.5098C618.636 40.3887 616.26 41.5768 614.307 43.0742C612.354 44.5716 610.856 46.3132 609.814 48.2988C608.773 50.2845 608.252 52.3678 608.252 54.5488C608.252 56.7949 608.757 58.7806 609.766 60.5059C610.807 62.2311 612.24 63.7448 614.062 65.0469C615.885 66.3815 618.066 67.5208 620.605 68.4648C623.177 69.3763 626.009 70.1413 629.102 70.7598C631.543 71.2155 633.561 71.6712 635.156 72.127C636.751 72.5827 638.037 73.071 639.014 73.5918C639.958 74.1452 640.609 74.7311 640.967 75.3496C641.357 75.9681 641.553 76.6842 641.553 77.498ZM692.432 26.2285H678.857V39.168H666.797V49.1777H678.857V73.2012C678.857 76.6842 679.313 79.679 680.225 82.1855C681.136 84.6595 682.438 86.694 684.131 88.2891C685.791 89.9167 687.793 91.1211 690.137 91.9023C692.513 92.651 695.15 93.0254 698.047 93.0254C699.544 93.0254 701.058 92.944 702.588 92.7812C704.15 92.651 705.648 92.4557 707.08 92.1953C708.512 91.9349 709.863 91.6094 711.133 91.2188C712.402 90.7956 713.509 90.3073 714.453 89.7539L713.135 80.4277C712.516 80.5905 711.768 80.7533 710.889 80.916C710.042 81.0788 709.131 81.2253 708.154 81.3555C707.145 81.5182 706.087 81.6484 704.98 81.7461C703.906 81.8438 702.848 81.8926 701.807 81.8926C700.374 81.8926 699.072 81.7298 697.9 81.4043C696.761 81.0788 695.785 80.5254 694.971 79.7441C694.157 78.9954 693.522 77.9863 693.066 76.7168C692.643 75.4147 692.432 73.8034 692.432 71.8828V49.1777H712.158V39.168H692.432V26.2285ZM731.201 39.168V50.252H746.24V80.9648H731.201V92H774.268V80.9648H759.961V39.168H731.201ZM745.264 25.6426C745.264 26.6842 745.443 27.6608 745.801 28.5723C746.191 29.4512 746.729 30.1999 747.412 30.8184C748.096 31.4694 748.91 31.974 749.854 32.332C750.83 32.6901 751.904 32.8691 753.076 32.8691C755.485 32.8691 757.389 32.2018 758.789 30.8672C760.221 29.5 760.938 27.7585 760.938 25.6426C760.938 23.5267 760.221 21.8014 758.789 20.4668C757.389 19.0996 755.485 18.416 753.076 18.416C751.904 18.416 750.83 18.5951 749.854 18.9531C748.91 19.3112 748.096 19.7995 747.412 20.418C746.729 21.069 746.191 21.8503 745.801 22.7617C745.443 23.6406 745.264 24.6009 745.264 25.6426ZM811.035 82.1367C808.854 82.1367 807.048 81.6973 805.615 80.8184C804.215 79.9395 803.109 78.7676 802.295 77.3027C801.449 75.8704 800.863 74.2103 800.537 72.3223C800.212 70.4017 800.049 68.416 800.049 66.3652V64.9004C800.049 62.8822 800.212 60.929 800.537 59.041C800.895 57.153 801.497 55.4766 802.344 54.0117C803.158 52.5469 804.264 51.375 805.664 50.4961C807.064 49.6172 808.838 49.1777 810.986 49.1777C812.451 49.1777 813.802 49.4382 815.039 49.959C816.276 50.4473 817.334 51.1146 818.213 51.9609C819.092 52.8073 819.759 53.8164 820.215 54.9883C820.671 56.1602 820.866 57.3971 820.801 58.6992H833.594C833.659 55.5742 833.138 52.7585 832.031 50.252C830.924 47.7129 829.378 45.5482 827.393 43.7578C825.374 42 822.982 40.6328 820.215 39.6562C817.448 38.6797 814.437 38.1914 811.182 38.1914C807.113 38.1914 803.532 38.8913 800.439 40.291C797.38 41.6908 794.808 43.5951 792.725 46.0039C790.641 48.4128 789.079 51.2448 788.037 54.5C786.995 57.7227 786.475 61.1895 786.475 64.9004V66.3652C786.475 70.0762 786.995 73.5592 788.037 76.8145C789.111 80.0371 790.69 82.8529 792.773 85.2617C794.824 87.6706 797.396 89.5749 800.488 90.9746C803.581 92.3418 807.178 93.0254 811.279 93.0254C814.307 93.0254 817.171 92.5534 819.873 91.6094C822.607 90.6328 825 89.2982 827.051 87.6055C829.102 85.9128 830.713 83.8945 831.885 81.5508C833.089 79.207 833.659 76.668 833.594 73.9336H820.801C820.866 75.1706 820.638 76.2936 820.117 77.3027C819.629 78.3118 818.929 79.1745 818.018 79.8906C817.106 80.6068 816.048 81.1602 814.844 81.5508C813.639 81.9414 812.37 82.1367 811.035 82.1367Z" fill="black"/>
<path d="M30.5176 71.4375L31.4107 70.9877L31.1336 70.4375H30.5176V71.4375ZM43.8965 98L43.0034 98.4498L43.2805 99H43.8965V98ZM58.5938 98V99H59.5938V98H58.5938ZM58.5938 97.3652H59.5938V97.1204L59.4807 96.9033L58.5938 97.3652ZM43.3105 68.0195L42.9002 67.1076L41.9345 67.5422L42.4236 68.4814L43.3105 68.0195ZM48.584 64.8945L47.9814 64.0965L47.9735 64.1025L48.584 64.8945ZM52.6855 60.6465L53.5048 61.22L53.5071 61.2166L52.6855 60.6465ZM55.2246 55.2266L54.2672 54.9378L54.2643 54.9478L55.2246 55.2266ZM54.2969 39.0645L53.3853 39.4758L53.3896 39.4849L54.2969 39.0645ZM49.1211 32.375L49.7444 31.593L49.7389 31.5887L49.1211 32.375ZM40.918 28.3223L40.6342 29.2812L40.6432 29.2838L40.918 28.3223ZM6.39648 26.9062V25.9062H5.39648V26.9062H6.39648ZM6.39648 98H5.39648V99H6.39648V98ZM20.1172 98V99H21.1172V98H20.1172ZM20.1172 71.4375V70.4375H19.1172V71.4375H20.1172ZM20.1172 60.3047H19.1172V61.3047H20.1172V60.3047ZM20.1172 38.0391V37.0391H19.1172V38.0391H20.1172ZM38.9648 40.6758L38.3222 41.442L38.3268 41.4458L38.9648 40.6758ZM41.5039 44.2891L40.5684 44.6425L40.5732 44.6551L40.5784 44.6677L41.5039 44.2891ZM41.6992 53.5176L40.758 53.1797L40.7542 53.1905L40.7505 53.2014L41.6992 53.5176ZM39.7949 56.7891L39.0621 56.1086L39.0541 56.1172L39.0463 56.126L39.7949 56.7891ZM35.8398 59.4258L36.1847 60.3645L36.1951 60.3606L35.8398 59.4258ZM29.6245 71.8873L43.0034 98.4498L44.7896 97.5502L31.4107 70.9877L29.6245 71.8873ZM43.8965 99H58.5938V97H43.8965V99ZM59.5938 98V97.3652H57.5938V98H59.5938ZM59.4807 96.9033L44.1975 67.5576L42.4236 68.4814L57.7068 97.8271L59.4807 96.9033ZM43.7209 68.9315C45.7392 68.0232 47.5652 66.9425 49.1945 65.6865L47.9735 64.1025C46.4778 65.2554 44.7882 66.258 42.9002 67.1076L43.7209 68.9315ZM49.1866 65.6926C50.8646 64.4255 52.3051 62.9338 53.5048 61.2199L51.8663 60.073C50.7874 61.6144 49.4934 62.9547 47.9814 64.0965L49.1866 65.6926ZM53.5071 61.2166C54.6805 59.5255 55.5713 57.619 56.185 55.5054L54.2643 54.9478C53.706 56.8706 52.9041 58.5773 51.864 60.0764L53.5071 61.2166ZM56.182 55.5153C56.8334 53.3554 57.1523 50.9611 57.1523 48.3418H55.1523C55.1523 50.8006 54.8528 52.9961 54.2672 54.9378L56.182 55.5153ZM57.1523 48.3418C57.1523 44.7089 56.513 41.4682 55.2042 38.644L53.3896 39.4849C54.5547 41.9992 55.1523 44.9435 55.1523 48.3418H57.1523ZM55.2084 38.6532C53.94 35.8421 52.1171 33.4843 49.7444 31.593L48.4978 33.157C50.6173 34.8464 52.2449 36.9482 53.3854 39.4757L55.2084 38.6532ZM49.7389 31.5887C47.3447 29.7075 44.4895 28.3027 41.1927 27.3607L40.6432 29.2838C43.7266 30.1648 46.3402 31.4618 48.5033 33.1613L49.7389 31.5887ZM41.2017 27.3634C37.9044 26.3876 34.2424 25.9062 30.2246 25.9062V27.9062C34.0845 27.9062 37.5513 28.3689 40.6342 29.2812L41.2017 27.3634ZM30.2246 25.9062H6.39648V27.9062H30.2246V25.9062ZM5.39648 26.9062V98H7.39648V26.9062H5.39648ZM6.39648 99H20.1172V97H6.39648V99ZM21.1172 98V71.4375H19.1172V98H21.1172ZM20.1172 72.4375H30.5176V70.4375H20.1172V72.4375ZM21.1172 60.3047V38.0391H19.1172V60.3047H21.1172ZM20.1172 39.0391H30.2246V37.0391H20.1172V39.0391ZM30.2246 39.0391C32.0342 39.0391 33.6074 39.2577 34.9568 39.6775L35.551 37.7678C33.9708 37.2762 32.1911 37.0391 30.2246 37.0391V39.0391ZM34.9568 39.6775C36.3157 40.1003 37.43 40.6936 38.3222 41.442L39.6075 39.9096C38.4815 38.9652 37.1218 38.2565 35.551 37.7678L34.9568 39.6775ZM38.3268 41.4458C39.3247 42.2726 40.0727 43.3301 40.5684 44.6425L42.4394 43.9357C41.8284 42.3183 40.8837 40.967 39.6029 39.9058L38.3268 41.4458ZM40.5784 44.6677C41.1056 45.9565 41.3828 47.4836 41.3828 49.2695H43.3828C43.3828 47.2795 43.0741 45.4862 42.4295 43.9104L40.5784 44.6677ZM41.3828 49.2695C41.3828 50.7348 41.1692 52.0342 40.758 53.1797L42.6404 53.8554C43.1407 52.4618 43.3828 50.9293 43.3828 49.2695H41.3828ZM40.7505 53.2014C40.369 54.3459 39.8041 55.3095 39.0621 56.1086L40.5277 57.4695C41.4784 56.4457 42.1831 55.2283 42.6479 53.8338L40.7505 53.2014ZM39.0463 56.126C38.159 57.1279 36.983 57.9216 35.4846 58.491L36.1951 60.3606C37.9519 59.693 39.4126 58.7289 40.5435 57.4521L39.0463 56.126ZM35.495 58.4871C34.0337 59.0239 32.2994 59.3047 30.2734 59.3047V61.3047C32.4792 61.3047 34.4558 60.9995 36.1847 60.3645L35.495 58.4871ZM30.2734 59.3047H20.1172V61.3047H30.2734V59.3047ZM110.205 66.8477V67.8477H111.205V66.8477H110.205ZM110.205 56.0078H111.205V55.0078H110.205V56.0078ZM81.0059 56.0078H80.0059V57.0078H81.0059V56.0078ZM81.0059 38.0879V37.0879H80.0059V38.0879H81.0059ZM114.99 38.0879V39.0879H115.99V38.0879H114.99ZM114.99 26.9062H115.99V25.9062H114.99V26.9062ZM67.2363 26.9062V25.9062H66.2363V26.9062H67.2363ZM67.2363 98H66.2363V99H67.2363V98ZM115.137 98V99H116.137V98H115.137ZM115.137 86.916H116.137V85.916H115.137V86.916ZM81.0059 86.916H80.0059V87.916H81.0059V86.916ZM81.0059 66.8477V65.8477H80.0059V66.8477H81.0059ZM111.205 66.8477V56.0078H109.205V66.8477H111.205ZM110.205 55.0078H81.0059V57.0078H110.205V55.0078ZM82.0059 56.0078V38.0879H80.0059V56.0078H82.0059ZM81.0059 39.0879H114.99V37.0879H81.0059V39.0879ZM115.99 38.0879V26.9062H113.99V38.0879H115.99ZM114.99 25.9062H67.2363V27.9062H114.99V25.9062ZM66.2363 26.9062V98H68.2363V26.9062H66.2363ZM67.2363 99H115.137V97H67.2363V99ZM116.137 98V86.916H114.137V98H116.137ZM115.137 85.916H81.0059V87.916H115.137V85.916ZM82.0059 86.916V66.8477H80.0059V86.916H82.0059ZM81.0059 67.8477H110.205V65.8477H81.0059V67.8477ZM178.76 38.0879V39.0879H179.76V38.0879H178.76ZM178.76 26.9062H179.76V25.9062H178.76V26.9062ZM121.436 26.9062V25.9062H120.436V26.9062H121.436ZM121.436 38.0879H120.436V39.0879H121.436V38.0879ZM143.066 38.0879H144.066V37.0879H143.066V38.0879ZM143.066 98H142.066V99H143.066V98ZM156.836 98V99H157.836V98H156.836ZM156.836 38.0879V37.0879H155.836V38.0879H156.836ZM179.76 38.0879V26.9062H177.76V38.0879H179.76ZM178.76 25.9062H121.436V27.9062H178.76V25.9062ZM120.436 26.9062V38.0879H122.436V26.9062H120.436ZM121.436 39.0879H143.066V37.0879H121.436V39.0879ZM142.066 38.0879V98H144.066V38.0879H142.066ZM143.066 99H156.836V97H143.066V99ZM157.836 98V38.0879H155.836V98H157.836ZM156.836 39.0879H178.76V37.0879H156.836V39.0879ZM210.693 71.4375L211.586 70.9877L211.309 70.4375H210.693V71.4375ZM224.072 98L223.179 98.4498L223.456 99H224.072V98ZM238.77 98V99H239.77V98H238.77ZM238.77 97.3652H239.77V97.1204L239.656 96.9033L238.77 97.3652ZM223.486 68.0195L223.076 67.1076L222.11 67.5422L222.599 68.4814L223.486 68.0195ZM228.76 64.8945L228.157 64.0965L228.149 64.1025L228.76 64.8945ZM232.861 60.6465L233.681 61.22L233.683 61.2166L232.861 60.6465ZM235.4 55.2266L234.443 54.9378L234.44 54.9478L235.4 55.2266ZM234.473 39.0645L233.561 39.4758L233.565 39.4849L234.473 39.0645ZM229.297 32.375L229.92 31.593L229.915 31.5887L229.297 32.375ZM221.094 28.3223L220.81 29.2812L220.819 29.2838L221.094 28.3223ZM186.572 26.9062V25.9062H185.572V26.9062H186.572ZM186.572 98H185.572V99H186.572V98ZM200.293 98V99H201.293V98H200.293ZM200.293 71.4375V70.4375H199.293V71.4375H200.293ZM200.293 60.3047H199.293V61.3047H200.293V60.3047ZM200.293 38.0391V37.0391H199.293V38.0391H200.293ZM219.141 40.6758L218.498 41.442L218.503 41.4458L219.141 40.6758ZM221.68 44.2891L220.744 44.6425L220.749 44.6551L220.754 44.6677L221.68 44.2891ZM221.875 53.5176L220.934 53.1797L220.93 53.1905L220.926 53.2014L221.875 53.5176ZM219.971 56.7891L219.238 56.1086L219.23 56.1172L219.222 56.126L219.971 56.7891ZM216.016 59.4258L216.36 60.3645L216.371 60.3606L216.016 59.4258ZM209.8 71.8873L223.179 98.4498L224.965 97.5502L211.586 70.9877L209.8 71.8873ZM224.072 99H238.77V97H224.072V99ZM239.77 98V97.3652H237.77V98H239.77ZM239.656 96.9033L224.373 67.5576L222.599 68.4814L237.883 97.8271L239.656 96.9033ZM223.897 68.9315C225.915 68.0232 227.741 66.9425 229.37 65.6865L228.149 64.1025C226.654 65.2554 224.964 66.258 223.076 67.1076L223.897 68.9315ZM229.362 65.6926C231.04 64.4255 232.481 62.9338 233.681 61.2199L232.042 60.073C230.963 61.6144 229.669 62.9547 228.157 64.0965L229.362 65.6926ZM233.683 61.2166C234.856 59.5255 235.747 57.619 236.361 55.5054L234.44 54.9478C233.882 56.8706 233.08 58.5773 232.04 60.0764L233.683 61.2166ZM236.358 55.5153C237.009 53.3554 237.328 50.9611 237.328 48.3418H235.328C235.328 50.8006 235.029 52.9961 234.443 54.9378L236.358 55.5153ZM237.328 48.3418C237.328 44.7089 236.689 41.4682 235.38 38.644L233.565 39.4849C234.731 41.9992 235.328 44.9435 235.328 48.3418H237.328ZM235.384 38.6532C234.116 35.8421 232.293 33.4843 229.92 31.593L228.674 33.157C230.793 34.8464 232.421 36.9482 233.561 39.4757L235.384 38.6532ZM229.915 31.5887C227.52 29.7075 224.665 28.3027 221.368 27.3607L220.819 29.2838C223.902 30.1648 226.516 31.4618 228.679 33.1613L229.915 31.5887ZM221.378 27.3634C218.08 26.3876 214.418 25.9062 210.4 25.9062V27.9062C214.26 27.9062 217.727 28.3689 220.81 29.2812L221.378 27.3634ZM210.4 25.9062H186.572V27.9062H210.4V25.9062ZM185.572 26.9062V98H187.572V26.9062H185.572ZM186.572 99H200.293V97H186.572V99ZM201.293 98V71.4375H199.293V98H201.293ZM200.293 72.4375H210.693V70.4375H200.293V72.4375ZM201.293 60.3047V38.0391H199.293V60.3047H201.293ZM200.293 39.0391H210.4V37.0391H200.293V39.0391ZM210.4 39.0391C212.21 39.0391 213.783 39.2577 215.133 39.6775L215.727 37.7678C214.147 37.2762 212.367 37.0391 210.4 37.0391V39.0391ZM215.133 39.6775C216.492 40.1003 217.606 40.6936 218.498 41.442L219.783 39.9096C218.657 38.9652 217.298 38.2565 215.727 37.7678L215.133 39.6775ZM218.503 41.4458C219.5 42.2726 220.248 43.3301 220.744 44.6425L222.615 43.9357C222.004 42.3183 221.059 40.967 219.779 39.9058L218.503 41.4458ZM220.754 44.6677C221.281 45.9565 221.559 47.4836 221.559 49.2695H223.559C223.559 47.2795 223.25 45.4862 222.605 43.9104L220.754 44.6677ZM221.559 49.2695C221.559 50.7348 221.345 52.0342 220.934 53.1797L222.816 53.8554C223.316 52.4618 223.559 50.9293 223.559 49.2695H221.559ZM220.926 53.2014C220.545 54.3459 219.98 55.3095 219.238 56.1086L220.703 57.4695C221.654 56.4457 222.359 55.2283 222.824 53.8338L220.926 53.2014ZM219.222 56.126C218.335 57.1279 217.159 57.9216 215.66 58.491L216.371 60.3606C218.128 59.693 219.588 58.7289 220.719 57.4521L219.222 56.126ZM215.671 58.4871C214.21 59.0239 212.475 59.3047 210.449 59.3047V61.3047C212.655 61.3047 214.632 60.9995 216.36 60.3645L215.671 58.4871ZM210.449 59.3047H200.293V61.3047H210.449V59.3047ZM295.312 48.1953L294.333 48.3957L294.335 48.4064L295.312 48.1953ZM292.725 40.2852L293.629 39.8576L293.625 39.8505L293.622 39.8435L292.725 40.2852ZM288.965 34.4746L288.19 35.1063L288.197 35.1148L288.965 34.4746ZM283.936 29.9824L283.374 30.8101L283.384 30.8167L283.394 30.8231L283.936 29.9824ZM277.441 27.0039L277.153 27.9614L277.161 27.9637L277.168 27.9659L277.441 27.0039ZM256.006 29.8848L255.441 29.0595L255.438 29.0616L256.006 29.8848ZM250.977 34.5723L250.197 33.9458L250.19 33.9544L250.977 34.5723ZM247.314 40.6758L246.402 40.2659L246.399 40.2743L247.314 40.6758ZM244.922 48.4395L243.941 48.2455L243.939 48.2565L244.922 48.4395ZM244.824 76.0273L243.839 76.1977L243.841 76.2094L244.824 76.0273ZM246.924 83.3516L245.997 83.7276L246 83.7336L246.924 83.3516ZM250.684 89.9434L249.89 90.5518L249.895 90.5582L250.684 89.9434ZM255.762 94.875L255.175 95.6849L255.188 95.694L255.201 95.7027L255.762 94.875ZM277.1 98L276.838 97.0349L276.829 97.0372L276.821 97.0395L277.1 98ZM283.35 95.3633L283.866 96.2195L283.873 96.2154L283.88 96.2113L283.35 95.3633ZM288.916 90.4805L289.684 91.1207L288.916 90.4805ZM293.018 84.0352L293.922 84.4622L293.927 84.4518L293.931 84.4413L293.018 84.0352ZM295.41 76.418L296.39 76.6163L296.391 76.6141L295.41 76.418ZM282.031 72.7559L281.038 72.6367L281.037 72.6465L281.036 72.6564L282.031 72.7559ZM281.25 77.248L280.283 76.9947L280.282 76.9971L281.25 77.248ZM279.395 81.9844L278.521 81.497L278.517 81.5041L279.395 81.9844ZM276.611 85.4023L275.976 84.6304L275.969 84.6357L275.963 84.6411L276.611 85.4023ZM265.967 87.0625L265.61 87.9966L265.619 87.9999L265.967 87.0625ZM262.988 85.2559L262.307 85.9878L262.315 85.9956L262.324 86.0033L262.988 85.2559ZM260.498 81.8379L259.596 82.2686L259.602 82.2811L259.608 82.2934L260.498 81.8379ZM258.936 77.1016L259.915 76.8983L259.912 76.8841L259.908 76.8699L258.936 77.1016ZM258.252 52.0039L257.257 51.9063L257.256 51.916L257.255 51.9257L258.252 52.0039ZM258.984 47.4141L259.958 47.6406L259.958 47.6402L258.984 47.4141ZM260.742 42.6289L259.874 42.1328L259.869 42.1406L259.865 42.1486L260.742 42.6289ZM263.574 39.2109L262.969 38.4148L262.954 38.4266L262.939 38.439L263.574 39.2109ZM266.309 37.7949L266.01 36.8404L266.002 36.8432L266.309 37.7949ZM273.389 37.8438L273.072 38.7925L273.081 38.7952L273.389 37.8438ZM276.367 39.3574L276.989 38.5743L276.976 38.5639L276.962 38.5539L276.367 39.3574ZM279.248 42.7754L278.383 43.278L278.389 43.2869L279.248 42.7754ZM281.201 47.4629L280.238 47.7305L280.238 47.7317L281.201 47.4629ZM282.031 52.0527L281.036 52.1503L281.037 52.1611L281.038 52.1719L282.031 52.0527ZM297.24 67.6777V57.3262H295.24V67.6777H297.24ZM297.24 57.3262C297.24 54.0395 296.925 50.9247 296.29 47.9843L294.335 48.4064C294.937 51.1951 295.24 54.1675 295.24 57.3262H297.24ZM296.292 47.9949C295.692 45.0594 294.805 42.3455 293.629 39.8576L291.821 40.7127C292.923 43.0425 293.761 45.6021 294.333 48.3957L296.292 47.9949ZM293.622 39.8435C292.546 37.6587 291.25 35.6549 289.733 33.8344L288.197 35.1148C289.609 36.8099 290.82 38.6798 291.827 40.7268L293.622 39.8435ZM289.74 33.8429C288.241 32.003 286.485 30.4352 284.477 29.1417L283.394 30.8231C285.227 32.0036 286.824 33.4306 288.19 35.1063L289.74 33.8429ZM284.497 29.1547C282.481 27.7882 280.218 26.7523 277.714 26.0419L277.168 27.9659C279.483 28.6227 281.549 29.5725 283.374 30.8101L284.497 29.1547ZM277.73 26.0464C275.251 25.2994 272.598 24.9297 269.775 24.9297V26.9297C272.422 26.9297 274.879 27.2761 277.153 27.9614L277.73 26.0464ZM269.775 24.9297C266.989 24.9297 264.386 25.2822 261.972 25.9961L262.539 27.914C264.748 27.2607 267.158 26.9297 269.775 26.9297V24.9297ZM261.972 25.9961C259.568 26.7072 257.389 27.7269 255.441 29.0595L256.571 30.7101C258.334 29.5036 260.321 28.5701 262.539 27.914L261.972 25.9961ZM255.438 29.0616C253.469 30.4197 251.721 32.0489 250.197 33.9459L251.756 35.1987C253.161 33.4498 254.767 31.954 256.574 30.708L255.438 29.0616ZM250.19 33.9544C248.705 35.8452 247.443 37.9503 246.402 40.266L248.227 41.0856C249.204 38.9091 250.384 36.9452 251.763 35.1901L250.19 33.9544ZM246.399 40.2743C245.325 42.7235 244.507 45.3817 243.941 48.2455L245.903 48.6334C246.444 45.8982 247.221 43.3807 248.23 41.0773L246.399 40.2743ZM243.939 48.2565C243.406 51.1219 243.141 54.1457 243.141 57.3262H245.141C245.141 54.2567 245.396 51.356 245.905 48.6224L243.939 48.2565ZM243.141 57.3262V67.6777H245.141V57.3262H243.141ZM243.141 67.6777C243.141 70.6592 243.373 73.4997 243.839 76.1977L245.81 75.857C245.364 73.2816 245.141 70.5557 245.141 67.6777H243.141ZM243.841 76.2094C244.34 78.9056 245.058 81.4127 245.997 83.7276L247.85 82.9755C246.967 80.7982 246.285 78.4225 245.808 75.8453L243.841 76.2094ZM246 83.7336C247.04 86.2499 248.336 88.5243 249.89 90.5518L251.477 89.3349C250.037 87.4561 248.826 85.336 247.848 82.9696L246 83.7336ZM249.895 90.5582C251.448 92.5497 253.208 94.2601 255.175 95.6849L256.348 94.0651C254.54 92.7555 252.914 91.1782 251.472 89.3285L249.895 90.5582ZM255.201 95.7027C257.208 97.0639 259.432 98.115 261.866 98.8587L262.45 96.946C260.197 96.2574 258.156 95.2902 256.323 94.0473L255.201 95.7027ZM261.866 98.8587C264.316 99.6072 266.971 99.9766 269.824 99.9766V97.9766C267.144 97.9766 264.688 97.6297 262.45 96.946L261.866 98.8587ZM269.824 99.9766C272.512 99.9766 275.032 99.6405 277.378 98.9605L276.821 97.0395C274.675 97.6616 272.345 97.9766 269.824 97.9766V99.9766ZM277.362 98.9651C279.723 98.324 281.893 97.41 283.866 96.2195L282.833 94.5071C281.03 95.5952 279.033 96.439 276.838 97.0349L277.362 98.9651ZM283.88 96.2113C286.056 94.851 287.991 93.1524 289.684 91.1207L288.148 89.8403C286.586 91.7148 284.81 93.2713 282.82 94.5153L283.88 96.2113ZM289.684 91.1207C291.367 89.1012 292.78 86.8809 293.922 84.4622L292.113 83.6081C291.042 85.8769 289.72 87.9534 288.148 89.8403L289.684 91.1207ZM293.931 84.4413C295.005 82.0254 295.824 79.416 296.39 76.6163L294.43 76.2196C293.89 78.8887 293.113 81.3574 292.104 83.629L293.931 84.4413ZM296.391 76.6141C296.958 73.7774 297.24 70.798 297.24 67.6777H295.24C295.24 70.6773 294.969 73.5247 294.43 76.2219L296.391 76.6141ZM281.324 57.2285V67.6777H283.324V57.2285H281.324ZM281.324 67.6777C281.324 69.3986 281.229 71.0514 281.038 72.6367L283.024 72.875C283.225 71.2051 283.324 69.4725 283.324 67.6777H281.324ZM281.036 72.6564C280.878 74.2399 280.626 75.6851 280.283 76.9947L282.217 77.5014C282.591 76.0766 282.859 74.527 283.026 72.8554L281.036 72.6564ZM280.282 76.9971C279.845 78.6831 279.256 80.1808 278.521 81.497L280.268 82.4717C281.096 80.9885 281.744 79.3286 282.218 77.499L280.282 76.9971ZM278.517 81.5041C277.825 82.7693 276.976 83.8067 275.976 84.6304L277.247 86.1743C278.46 85.1751 279.467 83.9338 280.272 82.4647L278.517 81.5041ZM275.963 84.6411C275.184 85.3049 274.286 85.8137 273.26 86.1654L273.908 88.0573C275.161 87.6277 276.281 86.9971 277.26 86.1636L275.963 84.6411ZM273.26 86.1654C272.238 86.5157 271.096 86.6973 269.824 86.6973V88.6973C271.287 88.6973 272.652 88.4882 273.908 88.0573L273.26 86.1654ZM269.824 86.6973C268.49 86.6973 267.325 86.5002 266.315 86.1251L265.619 87.9999C266.887 88.4711 268.294 88.6973 269.824 88.6973V86.6973ZM266.324 86.1284C265.329 85.7481 264.441 85.2088 263.653 84.5085L262.324 86.0033C263.294 86.8654 264.391 87.5306 265.61 87.9966L266.324 86.1284ZM263.67 84.524C262.827 83.7396 262.063 82.7005 261.388 81.3824L259.608 82.2934C260.366 83.7747 261.261 85.0143 262.307 85.9878L263.67 84.524ZM261.401 81.4072C260.755 80.0548 260.258 78.5535 259.915 76.8983L257.956 77.3048C258.329 79.1002 258.874 80.7564 259.596 82.2686L261.401 81.4072ZM259.908 76.8699C259.596 75.5584 259.375 74.1281 259.249 72.5768L257.255 72.7396C257.389 74.3784 257.624 75.9104 257.963 77.3332L259.908 76.8699ZM259.249 72.5768C259.121 71.0109 259.057 69.3779 259.057 67.6777H257.057C257.057 69.4281 257.123 71.1155 257.255 72.7396L259.249 72.5768ZM259.057 67.6777V57.2285H257.057V67.6777H259.057ZM259.057 57.2285C259.057 55.4293 259.121 53.7139 259.249 52.0821L257.255 51.9257C257.123 53.6142 257.057 55.3819 257.057 57.2285H259.057ZM259.247 52.1015C259.406 50.478 259.644 48.9917 259.958 47.6406L258.01 47.1875C257.674 48.6359 257.423 50.2095 257.257 51.9063L259.247 52.1015ZM259.958 47.6402C260.365 45.8889 260.922 44.3824 261.619 43.1092L259.865 42.1486C259.065 43.6098 258.45 45.2934 258.01 47.1879L259.958 47.6402ZM261.61 43.125C262.337 41.8528 263.206 40.81 264.21 39.9829L262.939 38.439C261.729 39.4348 260.709 40.6707 259.874 42.1328L261.61 43.125ZM264.179 40.0071C264.9 39.4594 265.71 39.0388 266.616 38.7466L266.002 36.8432C264.889 37.2021 263.876 37.7255 262.969 38.4148L264.179 40.0071ZM266.607 38.7494C267.538 38.4585 268.591 38.3066 269.775 38.3066V36.3066C268.421 36.3066 267.163 36.4803 266.01 36.8404L266.607 38.7494ZM269.775 38.3066C271.021 38.3066 272.117 38.4738 273.072 38.7924L273.705 36.8951C272.512 36.4976 271.199 36.3066 269.775 36.3066V38.3066ZM273.081 38.7952C274.091 39.122 274.986 39.5785 275.772 40.161L276.962 38.5539C275.991 37.8343 274.9 37.2816 273.696 36.8923L273.081 38.7952ZM275.745 40.1405C276.741 40.9314 277.623 41.9705 278.384 43.278L280.113 42.2728C279.245 40.7808 278.207 39.5412 276.989 38.5743L275.745 40.1405ZM278.389 43.2869C279.151 44.5676 279.77 46.046 280.238 47.7305L282.165 47.1952C281.656 45.3641 280.973 43.7176 280.107 42.2639L278.389 43.2869ZM280.238 47.7317C280.611 49.0679 280.878 50.5398 281.036 52.1503L283.026 51.9552C282.859 50.2454 282.573 48.6574 282.164 47.1941L280.238 47.7317ZM281.038 52.1719C281.228 53.7559 281.324 55.4411 281.324 57.2285H283.324C283.324 55.3701 283.225 53.6048 283.024 51.9336L281.038 52.1719ZM401.709 83.1562L402.672 82.887L402.468 82.1562H401.709V83.1562ZM405.859 98L404.896 98.2693L405.101 99H405.859V98ZM420.312 98V99H421.684L421.265 97.694L420.312 98ZM397.461 26.9062L398.413 26.6002L398.19 25.9062H397.461V26.9062ZM385.01 26.9062V25.9062H384.285L384.059 26.5949L385.01 26.9062ZM361.719 98L360.768 97.6887L360.339 99H361.719V98ZM376.172 98V99H376.928L377.134 98.2722L376.172 98ZM380.371 83.1562V82.1562H379.615L379.409 82.884L380.371 83.1562ZM383.74 71.4863L382.779 71.2118L382.415 72.4863H383.74V71.4863ZM391.211 45.3145L392.174 45.0466L391.224 41.6266L390.249 45.04L391.211 45.3145ZM398.486 71.4863V72.4863H399.802L399.45 71.2185L398.486 71.4863ZM400.746 83.4255L404.896 98.2693L406.822 97.7307L402.672 82.887L400.746 83.4255ZM405.859 99H420.312V97H405.859V99ZM421.265 97.694L398.413 26.6002L396.509 27.2123L419.36 98.306L421.265 97.694ZM397.461 25.9062H385.01V27.9062H397.461V25.9062ZM384.059 26.5949L360.768 97.6887L362.669 98.3113L385.96 27.2176L384.059 26.5949ZM361.719 99H376.172V97H361.719V99ZM377.134 98.2722L381.333 83.4285L379.409 82.884L375.21 97.7278L377.134 98.2722ZM380.371 84.1562H401.709V82.1562H380.371V84.1562ZM384.702 71.7608L392.173 45.5889L390.249 45.04L382.779 71.2118L384.702 71.7608ZM390.247 45.5823L397.523 71.7542L399.45 71.2185L392.174 45.0466L390.247 45.5823ZM398.486 70.4863H383.74V72.4863H398.486V70.4863ZM450.928 71.4375L451.821 70.9877L451.544 70.4375H450.928V71.4375ZM464.307 98L463.414 98.4498L463.691 99H464.307V98ZM479.004 98V99H480.004V98H479.004ZM479.004 97.3652H480.004V97.1204L479.891 96.9033L479.004 97.3652ZM463.721 68.0195L463.31 67.1076L462.345 67.5422L462.834 68.4814L463.721 68.0195ZM468.994 64.8945L468.392 64.0965L468.384 64.1025L468.994 64.8945ZM473.096 60.6465L473.915 61.22L473.917 61.2166L473.096 60.6465ZM475.635 55.2266L474.677 54.9378L474.674 54.9478L475.635 55.2266ZM474.707 39.0645L473.795 39.4758L473.8 39.4849L474.707 39.0645ZM469.531 32.375L470.155 31.593L470.149 31.5887L469.531 32.375ZM461.328 28.3223L461.044 29.2812L461.053 29.2838L461.328 28.3223ZM426.807 26.9062V25.9062H425.807V26.9062H426.807ZM426.807 98H425.807V99H426.807V98ZM440.527 98V99H441.527V98H440.527ZM440.527 71.4375V70.4375H439.527V71.4375H440.527ZM440.527 60.3047H439.527V61.3047H440.527V60.3047ZM440.527 38.0391V37.0391H439.527V38.0391H440.527ZM459.375 40.6758L458.732 41.442L458.737 41.4458L459.375 40.6758ZM461.914 44.2891L460.979 44.6425L460.983 44.6551L460.989 44.6677L461.914 44.2891ZM462.109 53.5176L461.168 53.1797L461.164 53.1905L461.161 53.2014L462.109 53.5176ZM460.205 56.7891L459.472 56.1086L459.464 56.1172L459.456 56.126L460.205 56.7891ZM456.25 59.4258L456.595 60.3645L456.605 60.3606L456.25 59.4258ZM450.035 71.8873L463.414 98.4498L465.2 97.5502L451.821 70.9877L450.035 71.8873ZM464.307 99H479.004V97H464.307V99ZM480.004 98V97.3652H478.004V98H480.004ZM479.891 96.9033L464.608 67.5576L462.834 68.4814L478.117 97.8271L479.891 96.9033ZM464.131 68.9315C466.149 68.0232 467.975 66.9425 469.605 65.6865L468.384 64.1025C466.888 65.2554 465.198 66.258 463.31 67.1076L464.131 68.9315ZM469.597 65.6926C471.275 64.4255 472.715 62.9338 473.915 61.2199L472.276 60.073C471.198 61.6144 469.904 62.9547 468.392 64.0965L469.597 65.6926ZM473.917 61.2166C475.091 59.5255 475.981 57.619 476.595 55.5054L474.674 54.9478C474.116 56.8706 473.314 58.5773 472.274 60.0764L473.917 61.2166ZM476.592 55.5153C477.244 53.3554 477.562 50.9611 477.562 48.3418H475.562C475.562 50.8006 475.263 52.9961 474.677 54.9378L476.592 55.5153ZM477.562 48.3418C477.562 44.7089 476.923 41.4682 475.614 38.644L473.8 39.4849C474.965 41.9992 475.562 44.9435 475.562 48.3418H477.562ZM475.619 38.6532C474.35 35.8421 472.527 33.4843 470.155 31.593L468.908 33.157C471.027 34.8464 472.655 36.9482 473.796 39.4757L475.619 38.6532ZM470.149 31.5887C467.755 29.7075 464.9 28.3027 461.603 27.3607L461.053 29.2838C464.137 30.1648 466.75 31.4618 468.913 33.1613L470.149 31.5887ZM461.612 27.3634C458.315 26.3876 454.653 25.9062 450.635 25.9062V27.9062C454.495 27.9062 457.961 28.3689 461.044 29.2812L461.612 27.3634ZM450.635 25.9062H426.807V27.9062H450.635V25.9062ZM425.807 26.9062V98H427.807V26.9062H425.807ZM426.807 99H440.527V97H426.807V99ZM441.527 98V71.4375H439.527V98H441.527ZM440.527 72.4375H450.928V70.4375H440.527V72.4375ZM441.527 60.3047V38.0391H439.527V60.3047H441.527ZM440.527 39.0391H450.635V37.0391H440.527V39.0391ZM450.635 39.0391C452.444 39.0391 454.018 39.2577 455.367 39.6775L455.961 37.7678C454.381 37.2762 452.601 37.0391 450.635 37.0391V39.0391ZM455.367 39.6775C456.726 40.1003 457.84 40.6936 458.732 41.442L460.018 39.9096C458.892 38.9652 457.532 38.2565 455.961 37.7678L455.367 39.6775ZM458.737 41.4458C459.735 42.2726 460.483 43.3301 460.979 44.6425L462.85 43.9357C462.239 42.3183 461.294 40.967 460.013 39.9058L458.737 41.4458ZM460.989 44.6677C461.516 45.9565 461.793 47.4836 461.793 49.2695H463.793C463.793 47.2795 463.484 45.4862 462.84 43.9104L460.989 44.6677ZM461.793 49.2695C461.793 50.7348 461.579 52.0342 461.168 53.1797L463.051 53.8554C463.551 52.4618 463.793 50.9293 463.793 49.2695H461.793ZM461.161 53.2014C460.779 54.3459 460.214 55.3095 459.472 56.1086L460.938 57.4695C461.889 56.4457 462.593 55.2283 463.058 53.8338L461.161 53.2014ZM459.456 56.126C458.569 57.1279 457.393 57.9216 455.895 58.491L456.605 60.3606C458.362 59.693 459.823 58.7289 460.954 57.4521L459.456 56.126ZM455.905 58.4871C454.444 59.0239 452.71 59.3047 450.684 59.3047V61.3047C452.889 61.3047 454.866 60.9995 456.595 60.3645L455.905 58.4871ZM450.684 59.3047H440.527V61.3047H450.684V59.3047ZM539.111 38.0879V39.0879H540.111V38.0879H539.111ZM539.111 26.9062H540.111V25.9062H539.111V26.9062ZM481.787 26.9062V25.9062H480.787V26.9062H481.787ZM481.787 38.0879H480.787V39.0879H481.787V38.0879ZM503.418 38.0879H504.418V37.0879H503.418V38.0879ZM503.418 98H502.418V99H503.418V98ZM517.188 98V99H518.188V98H517.188ZM517.188 38.0879V37.0879H516.188V38.0879H517.188ZM540.111 38.0879V26.9062H538.111V38.0879H540.111ZM539.111 25.9062H481.787V27.9062H539.111V25.9062ZM480.787 26.9062V38.0879H482.787V26.9062H480.787ZM481.787 39.0879H503.418V37.0879H481.787V39.0879ZM502.418 38.0879V98H504.418V38.0879H502.418ZM503.418 99H517.188V97H503.418V99ZM518.188 98V38.0879H516.188V98H518.188ZM517.188 39.0879H539.111V37.0879H517.188V39.0879ZM549.951 26.9062V25.9062H548.951V26.9062H549.951ZM549.951 37.9902H548.951V38.9902H549.951V37.9902ZM563.477 37.9902H564.477V36.9902H563.477V37.9902ZM563.477 86.9648V87.9648H564.477V86.9648H563.477ZM549.951 86.9648V85.9648H548.951V86.9648H549.951ZM549.951 98H548.951V99H549.951V98ZM591.064 98V99H592.064V98H591.064ZM591.064 86.9648H592.064V85.9648H591.064V86.9648ZM577.197 86.9648H576.197V87.9648H577.197V86.9648ZM577.197 37.9902V36.9902H576.197V37.9902H577.197ZM591.064 37.9902V38.9902H592.064V37.9902H591.064ZM591.064 26.9062H592.064V25.9062H591.064V26.9062ZM548.951 26.9062V37.9902H550.951V26.9062H548.951ZM549.951 38.9902H563.477V36.9902H549.951V38.9902ZM562.477 37.9902V86.9648H564.477V37.9902H562.477ZM563.477 85.9648H549.951V87.9648H563.477V85.9648ZM548.951 86.9648V98H550.951V86.9648H548.951ZM549.951 99H591.064V97H549.951V99ZM592.064 98V86.9648H590.064V98H592.064ZM591.064 85.9648H577.197V87.9648H591.064V85.9648ZM578.197 86.9648V37.9902H576.197V86.9648H578.197ZM577.197 38.9902H591.064V36.9902H577.197V38.9902ZM592.064 37.9902V26.9062H590.064V37.9902H592.064ZM591.064 25.9062H549.951V27.9062H591.064V25.9062ZM643.115 82.9609L644.01 83.4082L644.015 83.3972L643.115 82.9609ZM640.869 85.6465L640.261 84.8529L640.869 85.6465ZM637.256 87.4043L636.973 86.4453L636.966 86.4471L637.256 87.4043ZM626.758 87.3555L626.498 88.3211L626.502 88.3223L626.758 87.3555ZM622.412 85.207L623.042 84.4302L623.032 84.4221L622.412 85.207ZM618.408 75.9297L619.408 75.8994L619.378 74.9297H618.408V75.9297ZM604.932 75.9297V74.9297H603.932V75.9297H604.932ZM607.031 85.5488L606.141 86.0045L606.145 86.0128L607.031 85.5488ZM612.842 92.6777L612.205 93.4485L612.211 93.4541L612.218 93.4596L612.842 92.6777ZM621.875 97.3652L621.578 98.3201L621.588 98.3233L621.875 97.3652ZM642.432 97.6582L642.698 98.6221L642.708 98.6193L642.432 97.6582ZM650.342 93.8008L649.742 93.0007L649.734 93.0064L650.342 93.8008ZM655.518 87.6973L654.63 87.2359L654.628 87.2405L655.518 87.6973ZM648.242 62.502L648.839 61.6997L648.823 61.6879L648.807 61.6766L648.242 62.502ZM635.156 56.6426L635.426 55.6796L635.418 55.6775L635.156 56.6426ZM629.004 54.6406L628.633 55.5691L628.638 55.5714L629.004 54.6406ZM624.414 52.248L624.983 51.4259L624.976 51.4209L624.969 51.416L624.414 52.248ZM621.484 49.3672L620.629 49.8855L620.635 49.8948L620.641 49.9041L621.484 49.3672ZM621.24 42.2383L620.335 41.8124L620.33 41.8245L621.24 42.2383ZM623.486 39.3574L622.862 38.5766L622.854 38.5828L622.846 38.5892L623.486 39.3574ZM627.051 37.5508L627.34 38.508L627.347 38.5059L627.354 38.5037L627.051 37.5508ZM637.109 37.6973L636.756 38.6327L636.768 38.6374L636.781 38.6418L637.109 37.6973ZM640.869 39.8945L641.576 39.1874L641.564 39.1756L641.552 39.1643L640.869 39.8945ZM643.066 43.3613L642.127 43.7049L642.131 43.7149L642.135 43.7249L643.066 43.3613ZM643.945 47.7559L642.946 47.7966L642.985 48.7559H643.945V47.7559ZM657.324 47.7559V48.7559H658.324V47.7559H657.324ZM650.293 32.0332L650.955 31.2833L650.948 31.2779L650.293 32.0332ZM642.334 27.541L642.003 28.4846L642.006 28.4856L642.334 27.541ZM622.217 27.3457L622.502 28.3041L622.512 28.3013L622.217 27.3457ZM608.496 52.9316L607.576 53.324L607.581 53.3353L608.496 52.9316ZM612.793 58.9863L612.098 59.7057L612.793 58.9863ZM620.068 64.0156L619.609 64.9041L619.613 64.9061L620.068 64.0156ZM630.469 67.9219L630.206 68.8866L630.209 68.8875L630.469 67.9219ZM636.816 70.168L636.383 71.0692L636.393 71.0742L636.404 71.0789L636.816 70.168ZM641.016 72.7559L641.7 72.0263L641.688 72.0153L641.676 72.0047L641.016 72.7559ZM643.213 75.8809L642.279 76.238L642.283 76.2499L642.288 76.2616L643.213 75.8809ZM642.896 79.4453C642.896 80.5735 642.666 81.595 642.215 82.5247L644.015 83.3972C644.606 82.1785 644.896 80.8562 644.896 79.4453H642.896ZM642.221 82.5137C641.772 83.4121 641.124 84.1911 640.261 84.8529L641.478 86.4401C642.568 85.6045 643.417 84.5931 644.01 83.4082L642.221 82.5137ZM640.261 84.8529C639.4 85.5129 638.312 86.0496 636.973 86.4453L637.539 88.3633C639.065 87.9126 640.385 87.2774 641.478 86.4401L640.261 84.8529ZM636.966 86.4471C635.68 86.8359 634.17 87.0391 632.422 87.0391V89.0391C634.32 89.0391 636.032 88.819 637.545 88.3615L636.966 86.4471ZM632.422 87.0391C630.445 87.0391 628.644 86.8194 627.013 86.3886L626.502 88.3223C628.322 88.803 630.297 89.0391 632.422 89.0391V87.0391ZM627.018 86.3899C625.443 85.9658 624.124 85.3079 623.042 84.4303L621.782 85.9838C623.109 87.0593 624.688 87.8337 626.498 88.3211L627.018 86.3899ZM623.032 84.4221C621.93 83.552 621.066 82.4314 620.444 81.0393L618.618 81.8552C619.363 83.5231 620.421 84.9089 621.792 85.9919L623.032 84.4221ZM620.444 81.0393C619.827 79.6569 619.47 77.9528 619.408 75.8994L617.409 75.96C617.477 78.2035 617.869 80.1778 618.618 81.8552L620.444 81.0393ZM618.408 74.9297H604.932V76.9297H618.408V74.9297ZM603.932 75.9297C603.932 79.7355 604.656 83.1038 606.141 86.0045L607.921 85.0932C606.607 82.5251 605.932 79.4807 605.932 75.9297H603.932ZM606.145 86.0128C607.641 88.8681 609.664 91.3478 612.205 93.4485L613.479 91.907C611.137 89.9712 609.286 87.6983 607.917 85.0848L606.145 86.0128ZM612.218 93.4596C614.896 95.5951 618.02 97.2126 621.578 98.32L622.172 96.4104C618.829 95.3695 615.931 93.862 613.465 91.8959L612.218 93.4596ZM621.588 98.3233C625.162 99.3921 628.774 99.9277 632.422 99.9277V97.9277C628.973 97.9277 625.554 97.4217 622.162 96.4072L621.588 98.3233ZM632.422 99.9277C636.113 99.9277 639.54 99.4954 642.698 98.622L642.165 96.6944C639.203 97.5137 635.957 97.9277 632.422 97.9277V99.9277ZM642.708 98.6193C645.871 97.7109 648.624 96.3736 650.949 94.5951L649.734 93.0064C647.633 94.6134 645.112 95.8477 642.156 96.6971L642.708 98.6193ZM650.942 94.6008C653.274 92.8517 655.099 90.7008 656.407 88.1541L654.628 87.2405C653.462 89.5114 651.837 91.4295 649.742 93.0008L650.942 94.6008ZM656.405 88.1586C657.758 85.5564 658.422 82.6113 658.422 79.3477H656.422C656.422 82.334 655.816 84.9553 654.63 87.2359L656.405 88.1586ZM658.422 79.3477C658.422 75.5754 657.553 72.2032 655.789 69.2628L654.074 70.2918C655.63 72.8853 656.422 75.8934 656.422 79.3477H658.422ZM655.789 69.2628C654.056 66.3751 651.735 63.8546 648.839 61.6997L647.645 63.3042C650.348 65.3159 652.487 67.6458 654.074 70.2918L655.789 69.2628ZM648.807 61.6766C646.897 60.3698 644.808 59.2174 642.542 58.2179L641.735 60.0477C643.896 61.0013 645.877 62.095 647.678 63.3273L648.807 61.6766ZM642.542 58.2179C640.283 57.2213 637.911 56.3754 635.426 55.6796L634.887 57.6055C637.284 58.2769 639.567 59.0912 641.735 60.0477L642.542 58.2179ZM635.418 55.6775C633.168 55.0667 631.153 54.4103 629.37 53.7099L628.638 55.5714C630.501 56.3032 632.587 56.9815 634.894 57.6077L635.418 55.6775ZM629.375 53.7121C627.638 53.0173 626.178 52.253 624.983 51.4259L623.845 53.0702C625.189 54.0009 626.789 54.8316 628.633 55.5691L629.375 53.7121ZM624.969 51.416C623.792 50.6318 622.924 49.7662 622.328 48.8303L620.641 49.9041C621.412 51.1166 622.497 52.1716 623.859 53.0801L624.969 51.416ZM622.34 48.8489C621.789 47.9408 621.508 46.9177 621.508 45.7539H619.508C619.508 47.2594 619.877 48.6451 620.629 49.8855L622.34 48.8489ZM621.508 45.7539C621.508 44.6161 621.726 43.5867 622.151 42.6521L620.33 41.8245C619.778 43.0383 619.508 44.3526 619.508 45.7539H621.508ZM622.145 42.6641C622.601 41.6946 623.258 40.8498 624.127 40.1256L622.846 38.5892C621.762 39.4927 620.921 40.5684 620.335 41.8125L622.145 42.6641ZM624.111 40.1383C624.973 39.4489 626.042 38.9004 627.34 38.508L626.761 36.5936C625.26 37.0475 623.953 37.7034 622.862 38.5766L624.111 40.1383ZM627.354 38.5037C628.67 38.085 630.192 37.8672 631.934 37.8672V35.8672C630.029 35.8672 628.296 36.1051 626.748 36.5979L627.354 38.5037ZM631.934 37.8672C633.83 37.8672 635.43 38.1317 636.756 38.6327L637.463 36.7618C635.859 36.156 634.009 35.8672 631.934 35.8672V37.8672ZM636.781 38.6418C638.166 39.1235 639.293 39.7892 640.186 40.6248L641.552 39.1643C640.427 38.1118 639.048 37.3127 637.438 36.7528L636.781 38.6418ZM640.162 40.6016C641.033 41.4723 641.687 42.5028 642.127 43.7049L644.006 43.0177C643.469 41.5506 642.659 40.2699 641.576 39.1874L640.162 40.6016ZM642.135 43.7249C642.611 44.9453 642.885 46.2996 642.946 47.7966L644.944 47.7151C644.875 46.022 644.563 44.4466 643.998 42.9978L642.135 43.7249ZM643.945 48.7559H657.324V46.7559H643.945V48.7559ZM658.324 47.7559C658.324 44.433 657.679 41.3582 656.376 38.5463L654.561 39.3873C655.732 41.9139 656.324 44.6986 656.324 47.7559H658.324ZM656.376 38.5463C655.081 35.751 653.272 33.3278 650.955 31.2834L649.631 32.783C651.741 34.6449 653.383 36.844 654.561 39.3873L656.376 38.5463ZM650.948 31.2779C648.628 29.2648 645.861 27.7075 642.662 26.5964L642.006 28.4856C644.992 29.523 647.531 30.9605 649.638 32.7885L650.948 31.2779ZM642.665 26.5975C639.485 25.4809 635.985 24.9297 632.178 24.9297V26.9297C635.792 26.9297 639.063 27.4527 642.003 28.4846L642.665 26.5975ZM632.178 24.9297C628.509 24.9297 625.088 25.4134 621.922 26.3901L622.512 28.3013C625.465 27.39 628.685 26.9297 632.178 26.9297V24.9297ZM621.931 26.3873C618.769 27.3292 616.003 28.6992 613.649 30.5077L614.867 32.0938C617.005 30.4519 619.545 29.1851 622.502 28.3041L621.931 26.3873ZM613.649 30.5077C611.29 32.3193 609.436 34.5146 608.097 37.0894L609.872 38.0121C611.072 35.7041 612.733 33.7328 614.867 32.0938L613.649 30.5077ZM608.097 37.0894C606.747 39.6857 606.08 42.5642 606.08 45.7051H608.08C608.08 42.8564 608.683 40.2987 609.872 38.0121L608.097 37.0894ZM606.08 45.7051C606.08 48.4329 606.575 50.9765 607.576 53.3239L609.416 52.5394C608.529 50.4597 608.08 48.1856 608.08 45.7051H606.08ZM607.581 53.3353C608.614 55.6771 610.125 57.8005 612.098 59.7057L613.488 58.2669C611.685 56.5263 610.331 54.6133 609.411 52.528L607.581 53.3353ZM612.098 59.7057C614.072 61.6115 616.583 63.341 619.609 64.9041L620.527 63.1271C617.629 61.6304 615.29 60.007 613.488 58.2669L612.098 59.7057ZM619.613 64.9061C622.681 66.4732 626.214 67.798 630.206 68.8866L630.732 66.9571C626.846 65.8973 623.446 64.618 620.523 63.1251L619.613 64.9061ZM630.209 68.8875C632.71 69.5609 634.763 70.2904 636.383 71.0692L637.25 69.2667C635.484 68.4179 633.306 67.6501 630.729 66.9563L630.209 68.8875ZM636.404 71.0789C638.066 71.8318 639.375 72.6454 640.356 73.507L641.676 72.0047C640.508 70.9783 639.017 70.0666 637.229 69.257L636.404 71.0789ZM640.332 73.4854C641.285 74.3793 641.92 75.2988 642.279 76.238L644.147 75.5237C643.66 74.2494 642.829 73.0855 641.7 72.0263L640.332 73.4854ZM642.288 76.2616C642.691 77.2404 642.896 78.2984 642.896 79.4453H644.896C644.896 78.0532 644.646 76.7349 644.138 75.5001L642.288 76.2616ZM719.287 38.0879V39.0879H720.287V38.0879H719.287ZM719.287 26.9062H720.287V25.9062H719.287V26.9062ZM661.963 26.9062V25.9062H660.963V26.9062H661.963ZM661.963 38.0879H660.963V39.0879H661.963V38.0879ZM683.594 38.0879H684.594V37.0879H683.594V38.0879ZM683.594 98H682.594V99H683.594V98ZM697.363 98V99H698.363V98H697.363ZM697.363 38.0879V37.0879H696.363V38.0879H697.363ZM720.287 38.0879V26.9062H718.287V38.0879H720.287ZM719.287 25.9062H661.963V27.9062H719.287V25.9062ZM660.963 26.9062V38.0879H662.963V26.9062H660.963ZM661.963 39.0879H683.594V37.0879H661.963V39.0879ZM682.594 38.0879V98H684.594V38.0879H682.594ZM683.594 99H697.363V97H683.594V99ZM698.363 98V38.0879H696.363V98H698.363ZM697.363 39.0879H719.287V37.0879H697.363V39.0879ZM730.127 26.9062V25.9062H729.127V26.9062H730.127ZM730.127 37.9902H729.127V38.9902H730.127V37.9902ZM743.652 37.9902H744.652V36.9902H743.652V37.9902ZM743.652 86.9648V87.9648H744.652V86.9648H743.652ZM730.127 86.9648V85.9648H729.127V86.9648H730.127ZM730.127 98H729.127V99H730.127V98ZM771.24 98V99H772.24V98H771.24ZM771.24 86.9648H772.24V85.9648H771.24V86.9648ZM757.373 86.9648H756.373V87.9648H757.373V86.9648ZM757.373 37.9902V36.9902H756.373V37.9902H757.373ZM771.24 37.9902V38.9902H772.24V37.9902H771.24ZM771.24 26.9062H772.24V25.9062H771.24V26.9062ZM729.127 26.9062V37.9902H731.127V26.9062H729.127ZM730.127 38.9902H743.652V36.9902H730.127V38.9902ZM742.652 37.9902V86.9648H744.652V37.9902H742.652ZM743.652 85.9648H730.127V87.9648H743.652V85.9648ZM729.127 86.9648V98H731.127V86.9648H729.127ZM730.127 99H771.24V97H730.127V99ZM772.24 98V86.9648H770.24V98H772.24ZM771.24 85.9648H757.373V87.9648H771.24V85.9648ZM758.373 86.9648V37.9902H756.373V86.9648H758.373ZM757.373 38.9902H771.24V36.9902H757.373V38.9902ZM772.24 37.9902V26.9062H770.24V37.9902H772.24ZM771.24 25.9062H730.127V27.9062H771.24V25.9062ZM836.523 75.7344L837.521 75.7979L837.589 74.7344H836.523V75.7344ZM822.803 75.7344V74.7344H821.862L821.805 75.6739L822.803 75.7344ZM821.729 81.252L820.795 80.8943L821.729 81.252ZM807.178 87.4043L806.888 88.3613L806.905 88.3665L806.922 88.371L807.178 87.4043ZM804.248 85.9395L804.843 85.1358L804.832 85.1279L804.248 85.9395ZM802.051 83.7422L801.233 84.3177L801.24 84.3276L801.247 84.3374L802.051 83.7422ZM800.439 80.7148L799.508 81.0799L799.511 81.0862L800.439 80.7148ZM798.975 74.9043L797.983 75.0336L797.984 75.0417L797.985 75.0498L798.975 74.9043ZM798.828 51.8086L799.822 51.917L799.822 51.9151L798.828 51.8086ZM799.756 46.8281L798.795 46.5512L798.794 46.5562L799.756 46.8281ZM801.953 41.7988L801.113 41.2571L801.109 41.262L801.953 41.7988ZM805.371 38.4297L804.867 37.5659L804.866 37.5667L805.371 38.4297ZM807.91 37.4043L807.676 36.4322L807.668 36.4342L807.91 37.4043ZM816.113 37.8926L815.753 38.8254L815.766 38.8303L815.778 38.8348L816.113 37.8926ZM819.775 40.2363L820.527 39.5762L820.516 39.5641L820.505 39.5524L819.775 40.2363ZM821.924 44.2402L820.968 44.5329L820.97 44.5418L820.973 44.5506L821.924 44.2402ZM822.9 49.8066L821.902 49.8681L821.96 50.8066H822.9V49.8066ZM836.572 49.8066V50.8066H837.664L837.568 49.7193L836.572 49.8066ZM821.338 27.541L820.995 28.4802L820.998 28.4814L821.338 27.541ZM803.516 26.9062L803.79 27.8678L803.799 27.8652L803.516 26.9062ZM797.217 29.7383L796.675 28.8976L796.664 28.9047L796.653 28.9121L797.217 29.7383ZM791.455 35.1094L790.674 34.4847L791.455 35.1094ZM787.354 42.3359L788.278 42.7167L788.283 42.7062L788.287 42.6957L787.354 42.3359ZM785.303 49.5625L786.287 49.737L786.288 49.7349L785.303 49.5625ZM785.352 75.9785L784.367 76.1543L784.369 76.1656L785.352 75.9785ZM787.549 83.498L786.625 83.8808L786.63 83.892L787.549 83.498ZM791.113 89.748L790.31 90.3436L790.317 90.3524L791.113 89.748ZM795.996 94.582L795.405 95.3889L795.411 95.3931L795.996 94.582ZM802.686 97.9023L802.384 98.8559L802.392 98.8583L802.399 98.8605L802.686 97.9023ZM820.996 97.4141L821.327 98.3576L821.336 98.3544L820.996 97.4141ZM828.906 92.7266L829.58 93.4655L828.906 92.7266ZM834.18 85.4023L833.273 84.98L833.269 84.9885L834.18 85.4023ZM836.523 74.7344H822.803V76.7344H836.523V74.7344ZM821.805 75.6739C821.679 77.7506 821.335 79.484 820.795 80.8943L822.662 81.6096C823.294 79.96 823.666 78.0151 823.801 75.7949L821.805 75.6739ZM820.795 80.8943C820.252 82.3105 819.529 83.4336 818.641 84.2931L820.031 85.7303C821.161 84.6367 822.033 83.2533 822.662 81.6096L820.795 80.8943ZM818.641 84.2931C817.75 85.1549 816.666 85.7949 815.371 86.2072L815.977 88.1131C817.546 87.6139 818.904 86.8217 820.031 85.7303L818.641 84.2931ZM815.371 86.2072C814.053 86.6265 812.546 86.8438 810.84 86.8438V88.8438C812.714 88.8438 814.43 88.6053 815.977 88.1131L815.371 86.2072ZM810.84 86.8438C809.578 86.8438 808.444 86.7052 807.434 86.4376L806.922 88.371C808.125 88.6894 809.433 88.8438 810.84 88.8438V86.8438ZM807.468 86.4473C806.5 86.1541 805.628 85.7169 804.843 85.1359L803.653 86.743C804.626 87.4641 805.707 88.0034 806.888 88.3613L807.468 86.4473ZM804.832 85.1279C804.11 84.6075 803.449 83.9504 802.854 83.147L801.247 84.3374C801.954 85.2918 802.759 86.0995 803.664 86.751L804.832 85.1279ZM802.869 83.1667C802.301 82.3595 801.799 81.4206 801.368 80.3435L799.511 81.0862C799.992 82.2877 800.564 83.3671 801.233 84.3177L802.869 83.1667ZM801.37 80.3498C800.753 78.7756 800.281 76.9153 799.964 74.7588L797.985 75.0498C798.319 77.3204 798.824 79.3338 799.508 81.0799L801.37 80.3498ZM799.966 74.775C799.68 72.5808 799.535 70.0861 799.535 67.2871H797.535C797.535 70.1522 797.683 72.7356 797.983 75.0336L799.966 74.775ZM799.535 67.2871V57.6191H797.535V67.2871H799.535ZM799.535 57.6191C799.535 55.5666 799.631 53.6663 799.822 51.917L797.834 51.7001C797.634 53.5316 797.535 55.505 797.535 57.6191H799.535ZM799.822 51.9151C800.013 50.1386 800.313 48.5348 800.718 47.1001L798.794 46.5562C798.353 48.1162 798.034 49.8328 797.834 51.7021L799.822 51.9151ZM800.717 47.105C801.248 45.2604 801.945 43.6746 802.797 42.3357L801.109 41.262C800.139 42.7877 799.37 44.5547 798.795 46.5513L800.717 47.105ZM802.794 42.3405C803.664 40.9907 804.693 39.9851 805.876 39.2927L804.866 37.5667C803.379 38.4368 802.131 39.6772 801.113 41.2571L802.794 42.3405ZM805.875 39.2935C806.571 38.8872 807.329 38.5803 808.153 38.3744L807.668 36.4342C806.668 36.6841 805.733 37.0607 804.867 37.5659L805.875 39.2935ZM808.145 38.3764C809.004 38.1689 809.934 38.0625 810.938 38.0625V36.0625C809.792 36.0625 808.704 36.184 807.676 36.4322L808.145 38.3764ZM810.938 38.0625C812.869 38.0625 814.465 38.3279 815.753 38.8254L816.474 36.9598C814.897 36.3504 813.042 36.0625 810.938 36.0625V38.0625ZM815.778 38.8348C817.107 39.3071 818.188 40.005 819.046 40.9203L820.505 39.5524C819.41 38.3843 818.05 37.5198 816.448 36.9504L815.778 38.8348ZM819.024 40.8964C819.86 41.8478 820.514 43.0511 820.968 44.5329L822.88 43.9475C822.357 42.2392 821.579 40.7733 820.527 39.5762L819.024 40.8964ZM820.973 44.5506C821.462 46.0472 821.776 47.8157 821.902 49.8681L823.899 49.7452C823.764 47.5658 823.427 45.6234 822.874 43.9298L820.973 44.5506ZM822.9 50.8066H836.572V48.8066H822.9V50.8066ZM837.568 49.7193C837.235 45.9219 836.434 42.4826 835.151 39.4115L833.306 40.1822C834.497 43.0357 835.258 46.2695 835.576 49.894L837.568 49.7193ZM835.151 39.4115C833.865 36.3322 832.097 33.7077 829.841 31.554L828.46 33.0007C830.501 34.9486 832.118 37.3371 833.306 40.1822L835.151 39.4115ZM829.841 31.554C827.583 29.3985 824.856 27.7501 821.678 26.6006L820.998 28.4814C823.94 29.5455 826.421 31.0546 828.46 33.0007L829.841 31.554ZM821.681 26.6018C818.523 25.4473 814.937 24.8809 810.938 24.8809V26.8809C814.751 26.8809 818.098 27.4212 820.995 28.4802L821.681 26.6018ZM810.938 24.8809C808.214 24.8809 805.643 25.2341 803.232 25.9473L803.799 27.8652C806.01 27.2113 808.388 26.8809 810.938 26.8809V24.8809ZM803.241 25.9447C800.871 26.6217 798.681 27.6055 796.675 28.8976L797.758 30.579C799.593 29.3971 801.603 28.4929 803.79 27.8678L803.241 25.9447ZM796.653 28.9121C794.419 30.4352 792.426 32.2945 790.674 34.4847L792.236 35.7341C793.869 33.6925 795.717 31.971 797.78 30.5645L796.653 28.9121ZM790.674 34.4847C788.913 36.6859 787.496 39.1854 786.42 41.9762L788.287 42.6957C789.294 40.0829 790.611 37.7646 792.236 35.7341L790.674 34.4847ZM786.429 41.9552C785.487 44.2423 784.785 46.7218 784.318 49.3901L786.288 49.7349C786.732 47.1948 787.397 44.8566 788.278 42.7167L786.429 41.9552ZM784.318 49.388C783.851 52.0225 783.619 54.7993 783.619 57.7168H785.619C785.619 54.9052 785.843 52.2458 786.287 49.737L784.318 49.388ZM783.619 57.7168V67.2871H785.619V57.7168H783.619ZM783.619 67.2871C783.619 70.4001 783.868 73.3564 784.367 76.1543L786.336 75.8027C785.859 73.1319 785.619 70.2939 785.619 67.2871H783.619ZM784.369 76.1656C784.901 78.9586 785.652 81.5317 786.625 83.8808L788.473 83.1153C787.558 80.9071 786.844 78.4672 786.334 75.7914L784.369 76.1656ZM786.63 83.892C787.635 86.2382 788.861 88.3898 790.31 90.3436L791.917 89.1525C790.566 87.3303 789.416 85.3152 788.468 83.1041L786.63 83.892ZM790.317 90.3524C791.805 92.3138 793.501 93.9943 795.405 95.3889L796.587 93.7752C794.846 92.5004 793.287 90.9584 791.91 89.1437L790.317 90.3524ZM795.411 95.3931C797.488 96.8913 799.815 98.0445 802.384 98.8559L802.987 96.9488C800.608 96.1977 798.475 95.1373 796.581 93.771L795.411 95.3931ZM802.399 98.8605C805.009 99.64 807.825 100.025 810.84 100.025V98.0254C807.996 98.0254 805.375 97.662 802.972 96.9442L802.399 98.8605ZM810.84 100.025C814.648 100.025 818.147 99.4742 821.327 98.3576L820.665 96.4705C817.726 97.5024 814.454 98.0254 810.84 98.0254V100.025ZM821.336 98.3544C824.509 97.2069 827.261 95.5795 829.58 93.4655L828.232 91.9876C826.124 93.9101 823.603 95.4077 820.656 96.4737L821.336 98.3544ZM829.58 93.4655C831.899 91.3515 833.735 88.7977 835.09 85.8161L833.269 84.9885C832.02 87.7362 830.341 90.0652 828.232 91.9876L829.58 93.4655ZM835.086 85.8247C836.48 82.833 837.287 79.4862 837.521 75.7979L835.525 75.6709C835.304 79.144 834.549 82.2425 833.273 84.98L835.086 85.8247Z" fill="black"/>
</g>
<defs>
<clipPath id="clip0_8_105">
<rect width="841" height="119" fill="white"/>
</clipPath>
</defs>
</svg>
