<svg width="961" height="189" viewBox="0 0 961 189" fill="none" xmlns="http://www.w3.org/2000/svg">
<g clip-path="url(#clip0_8_108)">
<path d="M82.7148 121.312L91.0156 151H119.922L74.2188 8.8125H49.3164L2.73438 151H31.6406L40.0391 121.312H82.7148ZM46.7773 97.9727L61.7188 45.6289L76.2695 97.9727H46.7773ZM181.152 97.875L207.91 151H237.305V149.73L206.738 91.0391C210.645 89.2812 214.16 87.1979 217.285 84.7891C220.475 82.3802 223.21 79.5482 225.488 76.293C227.702 73.1029 229.395 69.4896 230.566 65.4531C231.803 61.3516 232.422 56.7617 232.422 51.6836C232.422 44.6523 231.185 38.4674 228.711 33.1289C226.302 27.7904 222.852 23.3307 218.359 19.75C213.802 16.1693 208.333 13.4674 201.953 11.6445C195.573 9.75651 188.444 8.8125 180.566 8.8125H132.91V151H160.352V97.875H181.152ZM160.352 75.6094V31.0781H180.566C184.342 31.0781 187.695 31.5339 190.625 32.4453C193.555 33.3568 196.029 34.6589 198.047 36.3516C200.326 38.2396 202.018 40.6484 203.125 43.5781C204.297 46.4427 204.883 49.763 204.883 53.5391C204.883 56.6641 204.427 59.4961 203.516 62.0352C202.669 64.5742 201.4 66.7552 199.707 68.5781C197.689 70.8568 195.052 72.6146 191.797 73.8516C188.607 75.0234 184.896 75.6094 180.664 75.6094H160.352ZM357.52 31.1758V8.8125H242.871V31.1758H286.133V151H313.672V31.1758H357.52ZM379.199 8.8125V30.9805H406.25V128.93H379.199V151H461.426V128.93H433.691V30.9805H461.426V8.8125H379.199ZM567.09 113.891C567.09 116.43 566.569 118.773 565.527 120.922C564.486 123.005 562.988 124.796 561.035 126.293C559.082 127.79 556.673 128.962 553.809 129.809C551.009 130.655 547.786 131.078 544.141 131.078C540.039 131.078 536.263 130.622 532.812 129.711C529.427 128.799 526.53 127.367 524.121 125.414C521.647 123.461 519.727 120.954 518.359 117.895C516.992 114.835 516.243 111.156 516.113 106.859H489.16C489.16 114.216 490.56 120.629 493.359 126.098C496.224 131.566 500.098 136.319 504.98 140.355C510.124 144.457 516.146 147.582 523.047 149.73C530.013 151.814 537.044 152.855 544.141 152.855C551.367 152.855 558.04 152.009 564.16 150.316C570.28 148.559 575.553 145.987 579.98 142.602C584.408 139.281 587.858 135.212 590.332 130.395C592.871 125.512 594.141 119.945 594.141 113.695C594.141 106.469 592.48 100.089 589.16 94.5547C585.84 89.0208 581.38 84.1706 575.781 80.0039C572.07 77.4648 568.001 75.2188 563.574 73.2656C559.147 71.3125 554.492 69.6523 549.609 68.2852C545.052 67.0482 540.951 65.7135 537.305 64.2812C533.724 62.849 530.664 61.2539 528.125 59.4961C525.586 57.8034 523.633 55.8828 522.266 53.7344C520.964 51.5859 520.312 49.1771 520.312 46.5078C520.312 43.9688 520.801 41.625 521.777 39.4766C522.819 37.263 524.316 35.3424 526.27 33.7148C528.223 32.1523 530.599 30.9479 533.398 30.1016C536.263 29.1901 539.518 28.7344 543.164 28.7344C547.135 28.7344 550.586 29.2878 553.516 30.3945C556.51 31.4362 559.017 32.901 561.035 34.7891C562.988 36.7422 564.453 39.0534 565.43 41.7227C566.471 44.3919 567.057 47.3216 567.188 50.5117H593.945C593.945 44.1315 592.708 38.2721 590.234 32.9336C587.76 27.5951 584.31 22.9727 579.883 19.0664C575.456 15.2253 570.15 12.2305 563.965 10.082C557.845 7.93359 551.074 6.85938 543.652 6.85938C536.491 6.85938 529.85 7.80339 523.73 9.69141C517.611 11.5143 512.305 14.151 507.812 17.6016C503.32 21.0521 499.805 25.2188 497.266 30.1016C494.727 34.9844 493.457 40.4206 493.457 46.4102C493.457 51.6185 494.401 56.4362 496.289 60.8633C498.242 65.2904 501.107 69.3268 504.883 72.9727C508.659 76.6185 513.509 79.9714 519.434 83.0312C525.423 86.0911 532.357 88.6953 540.234 90.8438C545.312 92.2109 549.544 93.7083 552.93 95.3359C556.38 96.8984 559.18 98.6237 561.328 100.512C563.411 102.465 564.876 104.548 565.723 106.762C566.634 108.975 567.09 111.352 567.09 113.891ZM717.871 31.1758V8.8125H603.223V31.1758H646.484V151H674.023V31.1758H717.871ZM739.551 8.8125V30.9805H766.602V128.93H739.551V151H821.777V128.93H794.043V30.9805H821.777V8.8125H739.551ZM952.344 106.469H924.902C924.642 110.766 923.926 114.444 922.754 117.504C921.582 120.564 919.987 123.07 917.969 125.023C915.951 126.977 913.509 128.409 910.645 129.32C907.78 130.232 904.557 130.688 900.977 130.688C898.307 130.688 895.866 130.395 893.652 129.809C891.504 129.158 889.551 128.181 887.793 126.879C886.165 125.707 884.701 124.242 883.398 122.484C882.161 120.727 881.087 118.708 880.176 116.43C878.874 113.109 877.897 109.236 877.246 104.809C876.66 100.316 876.367 95.2383 876.367 89.5742V70.2383C876.367 66.0716 876.562 62.1979 876.953 58.6172C877.344 54.9714 877.962 51.651 878.809 48.6562C879.915 44.8151 881.38 41.4622 883.203 38.5977C885.091 35.668 887.37 33.4219 890.039 31.8594C891.602 30.9479 893.294 30.2643 895.117 29.8086C897.005 29.3529 899.023 29.125 901.172 29.125C905.208 29.125 908.659 29.6784 911.523 30.7852C914.453 31.8268 916.895 33.3893 918.848 35.4727C920.736 37.6211 922.168 40.2904 923.145 43.4805C924.186 46.6706 924.837 50.3815 925.098 54.6133H952.441C951.79 47.1914 950.228 40.5182 947.754 34.5938C945.28 28.6693 941.895 23.6562 937.598 19.5547C933.301 15.4531 928.092 12.2956 921.973 10.082C915.918 7.86849 908.984 6.76172 901.172 6.76172C895.898 6.76172 890.951 7.44531 886.328 8.8125C881.771 10.1146 877.572 12.0026 873.73 14.4766C869.434 17.4062 865.592 20.987 862.207 25.2188C858.822 29.4505 856.087 34.2682 854.004 39.6719C852.181 44.099 850.814 48.9167 849.902 54.125C848.991 59.2682 848.535 64.7044 848.535 70.4336V89.5742C848.535 95.694 849.023 101.488 850 106.957C851.042 112.426 852.507 117.439 854.395 121.996C856.348 126.553 858.724 130.72 861.523 134.496C864.388 138.272 867.643 141.495 871.289 144.164C875.26 147.029 879.72 149.242 884.668 150.805C889.681 152.302 895.117 153.051 900.977 153.051C908.398 153.051 915.169 151.977 921.289 149.828C927.409 147.615 932.682 144.49 937.109 140.453C941.536 136.417 945.052 131.534 947.656 125.805C950.326 120.076 951.888 113.63 952.344 106.469Z" fill="white"/>
<path d="M79.7852 179L78.8907 179.447L79.1671 180H79.7852V179ZM107.324 179V180H108.324V179H107.324ZM107.324 177.34H108.324V177.099L108.214 176.884L107.324 177.34ZM99.707 92.2812L98.8076 92.7184L98.8101 92.7234L99.707 92.2812ZM90.2344 80.6602L90.8385 79.8633L90.2344 80.6602ZM75.8789 73.7266L75.6042 74.6881L75.6072 74.6889L75.8789 73.7266ZM39.1602 74.1172L39.4662 75.0692L39.473 75.067L39.1602 74.1172ZM25.293 81.3438L25.9161 82.1259L25.9226 82.1207L25.293 81.3438ZM16.5039 91.9883L15.6094 91.541L15.6037 91.5527L16.5039 91.9883ZM13.5742 104.781H12.5742V105.781H13.5742V104.781ZM40.7227 104.781V105.781H41.7227V104.781H40.7227ZM41.5039 99.6055L40.5676 99.2543L40.5611 99.2717L40.5552 99.2892L41.5039 99.6055ZM44.1406 95.6016L44.8273 96.3286L44.8294 96.3266L44.1406 95.6016ZM49.2188 92.7695L49.517 93.724L49.5305 93.7198L49.5438 93.7152L49.2188 92.7695ZM65.1367 92.9648L64.8052 93.9083L64.8203 93.9136L64.8356 93.9184L65.1367 92.9648ZM71.2891 96.3828L70.612 97.1187L70.6133 97.12L71.2891 96.3828ZM74.8047 101.559L73.8721 101.92L73.8762 101.93L74.8047 101.559ZM75.9766 114.449V115.449H76.9766V114.449H75.9766ZM40.0391 116.598L40.2616 117.573L40.2693 117.571L40.0391 116.598ZM24.9023 122.652L25.4431 123.494L25.4478 123.49L24.9023 122.652ZM14.6484 133.883L15.5403 134.335L15.5429 134.33L14.6484 133.883ZM13.9648 162.105L13.0586 162.528L13.0614 162.534L13.9648 162.105ZM21.582 172.066L20.93 172.825L21.582 172.066ZM33.2031 178.609L32.8746 179.554L32.8788 179.555L33.2031 178.609ZM57.4219 179.977L57.2215 178.997L57.2108 178.999L57.2003 179.001L57.4219 179.977ZM65.332 177.438L64.9259 176.524L64.9145 176.529L65.332 177.438ZM76.9531 169.137L77.9386 168.967L77.5933 166.964L76.2172 168.46L76.9531 169.137ZM78.125 174.508L77.1594 174.768L78.125 174.508ZM47.168 159.078L46.842 160.023L46.8612 160.03L46.8806 160.036L47.168 159.078ZM42.3828 156.539L41.7352 157.301L41.7465 157.311L41.7581 157.32L42.3828 156.539ZM39.3555 152.535L38.427 152.907L38.4361 152.929L38.4464 152.952L39.3555 152.535ZM39.7461 140.621L40.6575 141.033L40.6623 141.022L39.7461 140.621ZM43.9453 135.25L43.3409 134.453L43.3324 134.46L43.3239 134.467L43.9453 135.25ZM51.2695 131.93L51.522 132.897L51.5317 132.895L51.5415 132.892L51.2695 131.93ZM75.9766 130.66H76.9766V129.66H75.9766V130.66ZM75.9766 148.824L76.8448 149.32L76.9766 149.09V148.824H75.9766ZM72.7539 152.926L73.4436 153.65L73.4524 153.642L73.461 153.633L72.7539 152.926ZM79.7852 180H107.324V178H79.7852V180ZM108.324 179V177.34H106.324V179H108.324ZM108.214 176.884C106.9 174.317 105.884 171.221 105.181 167.58L103.217 167.959C103.947 171.74 105.014 175.024 106.434 177.796L108.214 176.884ZM105.181 167.58C104.481 163.954 104.125 159.336 104.125 153.707H102.125C102.125 159.407 102.485 164.163 103.217 167.959L105.181 167.58ZM104.125 153.707V108.395H102.125V153.707H104.125ZM104.125 108.395C104.125 102.15 102.962 96.6225 100.604 91.8391L98.8101 92.7234C101.009 97.1848 102.125 102.4 102.125 108.395H104.125ZM100.606 91.8441C98.2611 87.0193 95.004 83.021 90.8385 79.8633L89.6303 81.4571C93.5377 84.4191 96.5957 88.1682 98.8077 92.7184L100.606 91.8441ZM90.8385 79.8633C86.69 76.7184 81.7885 74.3561 76.1506 72.7642L75.6072 74.6889C81.037 76.2221 85.7058 78.4821 89.6303 81.4571L90.8385 79.8633ZM76.1536 72.765C70.5854 71.1741 64.5675 70.3828 58.1055 70.3828V72.3828C64.4039 72.3828 70.2349 73.154 75.6042 74.6881L76.1536 72.765ZM58.1055 70.3828C50.9252 70.3828 44.5013 71.3049 38.8473 73.1674L39.473 75.067C44.8867 73.2837 51.0931 72.3828 58.1055 72.3828V70.3828ZM38.8541 73.1652C33.2886 74.9541 28.5513 77.4163 24.6634 80.5668L25.9226 82.1207C29.5867 79.1514 34.0942 76.7959 39.4662 75.0692L38.8541 73.1652ZM24.6699 80.5616C20.7252 83.704 17.6983 87.3634 15.6095 91.5411L17.3983 92.4355C19.346 88.5402 22.1785 85.1033 25.916 82.1259L24.6699 80.5616ZM15.6037 91.5527C13.5848 95.7252 12.5742 100.138 12.5742 104.781H14.5742C14.5742 100.44 15.5168 96.3243 17.4041 92.4238L15.6037 91.5527ZM13.5742 105.781H40.7227V103.781H13.5742V105.781ZM41.7227 104.781C41.7227 102.985 41.9703 101.369 42.4526 99.9217L40.5552 99.2892C39.9958 100.967 39.7227 102.801 39.7227 104.781H41.7227ZM42.4402 99.9566C42.9746 98.5316 43.7701 97.327 44.8272 96.3286L43.454 94.8745C42.1674 96.0897 41.2051 97.5543 40.5676 99.2543L42.4402 99.9566ZM44.8294 96.3266C45.9992 95.2152 47.5487 94.3391 49.517 93.724L48.9205 91.8151C46.7221 92.502 44.8862 93.514 43.4519 94.8766L44.8294 96.3266ZM49.5438 93.7152C51.4965 93.044 53.8553 92.6953 56.6406 92.6953V90.6953C53.6968 90.6953 51.1077 91.0628 48.8937 91.8238L49.5438 93.7152ZM56.6406 92.6953C59.8125 92.6953 62.5276 93.1081 64.8052 93.9083L65.4682 92.0214C62.9281 91.1289 59.9792 90.6953 56.6406 90.6953V92.6953ZM64.8356 93.9184C67.1938 94.6631 69.1094 95.7363 70.612 97.1187L71.9661 95.6469C70.2136 94.0345 68.0276 92.8291 65.4379 92.0113L64.8356 93.9184ZM70.6133 97.12C72.06 98.4461 73.1452 100.042 73.8721 101.92L75.7373 101.198C74.9017 99.039 73.6431 97.1841 71.9648 95.6457L70.6133 97.12ZM73.8762 101.93C74.6027 103.746 74.9766 105.83 74.9766 108.199H76.9766C76.9766 105.62 76.5692 103.277 75.7332 101.187L73.8762 101.93ZM74.9766 108.199V114.449H76.9766V108.199H74.9766ZM75.9766 113.449H60.8398V115.449H75.9766V113.449ZM60.8398 113.449C52.9686 113.449 45.9553 114.171 39.8089 115.625L40.2693 117.571C46.2322 116.16 53.0861 115.449 60.8398 115.449V113.449ZM39.8165 115.623C33.7402 117.01 28.5788 119.067 24.3569 121.814L25.4478 123.49C29.429 120.9 34.3587 118.92 40.2616 117.573L39.8165 115.623ZM24.3616 121.811C19.6631 124.832 16.1181 128.707 13.754 133.436L15.5429 134.33C17.736 129.944 21.027 126.332 25.4431 123.494L24.3616 121.811ZM13.7566 133.43C11.3961 138.084 10.2305 143.419 10.2305 149.41H12.2305C12.2305 143.682 13.3435 138.666 15.5403 134.335L13.7566 133.43ZM10.2305 149.41C10.2305 154.105 11.1704 158.482 13.0587 162.528L14.871 161.683C13.1134 157.916 12.2305 153.83 12.2305 149.41H10.2305ZM13.0614 162.534C14.9448 166.503 17.57 169.935 20.93 172.825L22.2341 171.308C19.0837 168.599 16.6307 165.39 14.8683 161.677L13.0614 162.534ZM20.93 172.825C24.2901 175.714 28.2766 177.955 32.8746 179.554L33.5316 177.665C29.1453 176.139 25.3843 174.017 22.2341 171.308L20.93 172.825ZM32.8788 179.555C37.5523 181.158 42.6438 181.953 48.1445 181.953V179.953C42.838 179.953 37.9685 179.186 33.5274 177.663L32.8788 179.555ZM48.1445 181.953C51.5299 181.953 54.6975 181.621 57.6435 180.952L57.2003 179.001C54.4171 179.634 51.3998 179.953 48.1445 179.953V181.953ZM57.6223 180.956C60.5541 180.357 63.2646 179.488 65.7495 178.346L64.9145 176.529C62.5818 177.601 60.0188 178.425 57.2215 178.997L57.6223 180.956ZM65.7382 178.351C68.1435 177.282 70.3546 176.01 72.3687 174.533L71.186 172.92C69.2939 174.308 67.2081 175.509 64.9259 176.524L65.7382 178.351ZM72.3687 174.533C74.3692 173.066 76.1439 171.493 77.6891 169.814L76.2172 168.46C74.7676 170.035 73.0917 171.523 71.186 172.92L72.3687 174.533ZM75.9677 169.307C76.2979 171.222 76.695 173.043 77.1594 174.768L79.0906 174.248C78.6436 172.587 78.2594 170.827 77.9386 168.967L75.9677 169.307ZM77.1594 174.768C77.6291 176.513 78.2044 178.075 78.8907 179.447L80.6796 178.553C80.0638 177.321 79.5323 175.889 79.0906 174.248L77.1594 174.768ZM53.9062 158.957C51.4417 158.957 49.2957 158.672 47.4553 158.12L46.8806 160.036C48.9465 160.656 51.2926 160.957 53.9062 160.957V158.957ZM47.494 158.133C45.6934 157.512 44.2045 156.716 43.0075 155.758L41.7581 157.32C43.1653 158.446 44.8665 159.342 46.842 160.023L47.494 158.133ZM43.0305 155.777C41.8404 154.766 40.9202 153.549 40.2645 152.119L38.4464 152.952C39.2231 154.646 40.3211 156.099 41.7352 157.301L43.0305 155.777ZM40.2839 152.164C39.6837 150.663 39.3789 149.032 39.3789 147.262H37.3789C37.3789 149.267 37.7252 151.152 38.427 152.907L40.2839 152.164ZM39.3789 147.262C39.3789 144.982 39.8094 142.911 40.6575 141.033L38.8347 140.21C37.8599 142.368 37.3789 144.724 37.3789 147.262H39.3789ZM40.6623 141.022C41.5043 139.097 42.7989 137.436 44.5667 136.033L43.3239 134.467C41.3157 136.059 39.8108 137.978 38.8299 140.22L40.6623 141.022ZM44.5497 136.047C46.306 134.714 48.6175 133.655 51.522 132.897L51.0171 130.962C47.932 131.767 45.3606 132.921 43.3409 134.453L44.5497 136.047ZM51.5415 132.892C54.4225 132.078 57.939 131.66 62.1094 131.66V129.66C57.8163 129.66 54.1061 130.089 50.9976 130.967L51.5415 132.892ZM62.1094 131.66H75.9766V129.66H62.1094V131.66ZM74.9766 130.66V148.824H76.9766V130.66H74.9766ZM75.1083 148.328C74.3798 149.603 73.3648 150.901 72.0468 152.219L73.461 153.633C74.8774 152.217 76.0108 150.78 76.8448 149.32L75.1083 148.328ZM72.0643 152.202C70.7672 153.437 69.2114 154.56 67.388 155.566L68.3542 157.317C70.3068 156.24 72.0062 155.019 73.4436 153.65L72.0643 152.202ZM67.388 155.566C65.5762 156.565 63.5339 157.384 61.2558 158.017L61.7911 159.944C64.2004 159.275 66.39 158.401 68.3542 157.317L67.388 155.566ZM61.2558 158.017C59.0092 158.641 56.5612 158.957 53.9062 158.957V160.957C56.72 160.957 59.3502 160.622 61.7911 159.944L61.2558 158.017ZM190.137 76.5586L190.629 77.4292L190.636 77.4251L190.137 76.5586ZM174.707 90.6211L173.71 90.7041L173.936 93.4113L175.52 91.204L174.707 90.6211ZM174.512 88.2773L173.514 88.3491L173.515 88.3604L174.512 88.2773ZM173.438 73.3359L174.435 73.2642L174.368 72.3359H173.438V73.3359ZM148.145 73.3359V72.3359H147.145V73.3359H148.145ZM148.145 179H147.145V180H148.145V179ZM175.293 179V180H176.293V179H175.293ZM175.293 115.523L174.369 115.142L174.293 115.325V115.523H175.293ZM186.816 102.242L187.289 103.123L187.297 103.119L187.304 103.115L186.816 102.242ZM194.336 99.5078L194.541 100.487L194.549 100.485L194.558 100.483L194.336 99.5078ZM214.551 99.2148L214.429 100.207L214.438 100.209L214.448 100.21L214.551 99.2148ZM225.586 101.07L225.356 102.043L226.416 102.294L226.575 101.217L225.586 101.07ZM229.59 74.0195L230.579 74.166L230.705 73.3127L229.88 73.0625L229.59 74.0195ZM221.094 72.2617L220.926 73.2476L220.937 73.2494L220.947 73.2509L221.094 72.2617ZM209.766 70.3828C202.499 70.3828 195.783 72.1517 189.638 75.6921L190.636 77.4251C196.469 74.0644 202.84 72.3828 209.766 72.3828V70.3828ZM189.645 75.688C183.52 79.1499 178.27 83.9392 173.894 90.0382L175.52 91.204C179.738 85.3239 184.775 80.7381 190.629 77.4292L189.645 75.688ZM175.704 90.538L175.508 88.1943L173.515 88.3604L173.71 90.7041L175.704 90.538ZM175.509 88.2056L174.435 73.2642L172.44 73.4076L173.514 88.3491L175.509 88.2056ZM173.438 72.3359H148.145V74.3359H173.438V72.3359ZM147.145 73.3359V179H149.145V73.3359H147.145ZM148.145 180H175.293V178H148.145V180ZM176.293 179V115.523H174.293V179H176.293ZM176.217 115.905C177.419 112.997 178.929 110.485 180.741 108.36L179.22 107.062C177.256 109.364 175.641 112.061 174.369 115.142L176.217 115.905ZM180.741 108.36C182.545 106.245 184.725 104.499 187.289 103.123L186.344 101.361C183.569 102.85 181.192 104.75 179.22 107.062L180.741 108.36ZM187.304 103.115C189.419 101.933 191.828 101.054 194.541 100.487L194.131 98.529C191.245 99.1331 188.641 100.077 186.329 101.369L187.304 103.115ZM194.558 100.483C197.337 99.8513 200.451 99.5312 203.906 99.5312V97.5312C200.33 97.5312 197.064 97.8623 194.114 98.5327L194.558 100.483ZM203.906 99.5312C207.247 99.5312 210.754 99.7561 214.429 100.207L214.673 98.2223C210.925 97.7621 207.336 97.5312 203.906 97.5312V99.5312ZM214.448 100.21C218.182 100.596 221.818 101.207 225.356 102.043L225.816 100.097C222.192 99.2406 218.471 98.6151 214.654 98.2202L214.448 100.21ZM226.575 101.217L230.579 74.166L228.601 73.8731L224.597 100.924L226.575 101.217ZM229.88 73.0625C227.666 72.3915 224.78 71.7969 221.24 71.2725L220.947 73.2509C224.439 73.7682 227.217 74.3455 229.3 74.9766L229.88 73.0625ZM221.261 71.2758C217.747 70.6791 213.914 70.3828 209.766 70.3828V72.3828C213.82 72.3828 217.54 72.6725 220.926 73.2476L221.261 71.2758ZM303.809 47.457H304.809V46.457H303.809V47.457ZM276.66 47.457V46.457H275.66V47.457H276.66ZM276.66 73.3359V74.3359H277.66V73.3359H276.66ZM252.539 73.3359V72.3359H251.539V73.3359H252.539ZM252.539 93.3555H251.539V94.3555H252.539V93.3555ZM276.66 93.3555H277.66V92.3555H276.66V93.3555ZM279.395 159.371L278.455 159.713L278.456 159.717L279.395 159.371ZM287.207 171.578L287.907 170.864L287.9 170.857L287.893 170.85L287.207 171.578ZM299.219 178.805L298.903 179.753L298.91 179.756L298.918 179.758L299.219 178.805ZM324.121 180.562L324.038 179.566L324.027 179.567L324.015 179.568L324.121 180.562ZM341.211 177.438L341.505 178.393L341.516 178.39L341.527 178.386L341.211 177.438ZM347.852 174.508L348.357 175.371L348.936 175.032L348.842 174.368L347.852 174.508ZM345.215 155.855L346.205 155.715L346.048 154.602L344.96 154.888L345.215 155.855ZM340.723 156.832L340.541 155.849L340.534 155.85L340.723 156.832ZM335.254 157.711L335.122 156.72L335.108 156.722L335.095 156.724L335.254 157.711ZM328.906 158.492L328.818 157.496L328.816 157.496L328.906 158.492ZM314.746 157.809L314.471 158.77L314.478 158.772L314.746 157.809ZM308.887 154.488L309.579 153.767L309.572 153.76L309.564 153.752L308.887 154.488ZM305.078 148.434L304.127 148.743L304.132 148.757L304.137 148.771L305.078 148.434ZM303.809 93.3555V92.3555H302.809V93.3555H303.809ZM343.262 93.3555V94.3555H344.262V93.3555H343.262ZM343.262 73.3359H344.262V72.3359H343.262V73.3359ZM303.809 73.3359H302.809V74.3359H303.809V73.3359ZM303.809 46.457H276.66V48.457H303.809V46.457ZM275.66 47.457V73.3359H277.66V47.457H275.66ZM276.66 72.3359H252.539V74.3359H276.66V72.3359ZM251.539 73.3359V93.3555H253.539V73.3359H251.539ZM252.539 94.3555H276.66V92.3555H252.539V94.3555ZM275.66 93.3555V141.402H277.66V93.3555H275.66ZM275.66 141.402C275.66 148.451 276.582 154.563 278.455 159.713L280.334 159.029C278.561 154.154 277.66 148.286 277.66 141.402H275.66ZM278.456 159.717C280.325 164.79 283.009 168.996 286.521 172.306L287.893 170.85C284.634 167.78 282.109 163.848 280.333 159.025L278.456 159.717ZM286.507 172.292C289.942 175.66 294.08 178.146 298.903 179.753L299.535 177.856C294.982 176.338 291.112 174.006 287.907 170.864L286.507 172.292ZM298.918 179.758C303.782 181.291 309.159 182.051 315.039 182.051V180.051C309.331 180.051 304.16 179.313 299.519 177.851L298.918 179.758ZM315.039 182.051C318.07 182.051 321.133 181.886 324.227 181.557L324.015 179.568C320.99 179.89 317.998 180.051 315.039 180.051V182.051ZM324.204 181.559C327.359 181.296 330.386 180.902 333.284 180.374L332.927 178.407C330.096 178.921 327.133 179.308 324.038 179.566L324.204 181.559ZM333.284 180.374C336.184 179.847 338.925 179.187 341.505 178.393L340.917 176.482C338.419 177.25 335.756 177.892 332.927 178.407L333.284 180.374ZM341.527 178.386C344.118 177.523 346.398 176.519 348.357 175.371L347.346 173.645C345.529 174.71 343.382 175.66 340.895 176.489L341.527 178.386ZM348.842 174.368L346.205 155.715L344.225 155.995L346.861 174.648L348.842 174.368ZM344.96 154.888C343.755 155.206 342.283 155.526 340.541 155.849L340.905 157.815C342.678 157.487 344.201 157.156 345.469 156.823L344.96 154.888ZM340.534 155.85C338.862 156.171 337.059 156.461 335.122 156.72L335.386 158.702C337.356 158.44 339.198 158.144 340.912 157.814L340.534 155.85ZM335.095 156.724C333.102 157.045 331.01 157.303 328.818 157.496L328.994 159.488C331.23 159.291 333.369 159.028 335.413 158.698L335.095 156.724ZM328.816 157.496C326.696 157.689 324.611 157.785 322.559 157.785V159.785C324.673 159.785 326.819 159.686 328.997 159.488L328.816 157.496ZM322.559 157.785C319.769 157.785 317.257 157.468 315.014 156.845L314.478 158.772C316.923 159.451 319.619 159.785 322.559 159.785V157.785ZM315.021 156.847C312.891 156.238 311.083 155.211 309.579 153.767L308.194 155.21C309.945 156.891 312.044 158.077 314.471 158.77L315.021 156.847ZM309.564 153.752C308.078 152.386 306.888 150.516 306.019 148.096L304.137 148.771C305.091 151.43 306.44 153.596 308.21 155.224L309.564 153.752ZM306.029 148.125C305.225 145.651 304.809 142.541 304.809 138.766H302.809C302.809 142.673 303.238 146.007 304.127 148.743L306.029 148.125ZM304.809 138.766V93.3555H302.809V138.766H304.809ZM303.809 94.3555H343.262V92.3555H303.809V94.3555ZM344.262 93.3555V73.3359H342.262V93.3555H344.262ZM343.262 72.3359H303.809V74.3359H343.262V72.3359ZM304.809 73.3359V47.457H302.809V73.3359H304.809ZM381.348 73.3359V72.3359H380.348V73.3359H381.348ZM381.348 95.5039H380.348V96.5039H381.348V95.5039ZM411.426 95.5039H412.426V94.5039H411.426V95.5039ZM411.426 156.93V157.93H412.426V156.93H411.426ZM381.348 156.93V155.93H380.348V156.93H381.348ZM381.348 179H380.348V180H381.348V179ZM467.48 179V180H468.48V179H467.48ZM467.48 156.93H468.48V155.93H467.48V156.93ZM438.867 156.93H437.867V157.93H438.867V156.93ZM438.867 73.3359H439.867V72.3359H438.867V73.3359ZM410.547 52.1445L409.616 52.5102L409.624 52.5306L409.633 52.5507L410.547 52.1445ZM413.77 56.6367L414.459 55.9126L414.45 55.9038L414.44 55.8952L413.77 56.6367ZM418.652 59.6641L418.298 60.5991L418.308 60.6029L418.652 59.6641ZM436.523 56.7344L437.214 57.4581L437.214 57.4577L436.523 56.7344ZM436.523 35.9336L435.825 36.649L435.833 36.6572L435.842 36.6652L436.523 35.9336ZM418.652 32.9062L418.308 31.9673L418.298 31.9713L418.652 32.9062ZM413.77 35.8359L413.099 35.0944L413.089 35.103L413.08 35.1118L413.77 35.8359ZM410.547 40.5234L409.628 40.1295L409.624 40.1378L409.621 40.1461L410.547 40.5234ZM380.348 73.3359V95.5039H382.348V73.3359H380.348ZM381.348 96.5039H411.426V94.5039H381.348V96.5039ZM410.426 95.5039V156.93H412.426V95.5039H410.426ZM411.426 155.93H381.348V157.93H411.426V155.93ZM380.348 156.93V179H382.348V156.93H380.348ZM381.348 180H467.48V178H381.348V180ZM468.48 179V156.93H466.48V179H468.48ZM467.48 155.93H438.867V157.93H467.48V155.93ZM439.867 156.93V73.3359H437.867V156.93H439.867ZM438.867 72.3359H381.348V74.3359H438.867V72.3359ZM408.473 46.2852C408.473 48.4856 408.851 50.5635 409.616 52.5102L411.478 51.7789C410.81 50.0797 410.473 48.2514 410.473 46.2852H408.473ZM409.633 52.5507C410.468 54.4304 411.623 56.0436 413.099 57.3783L414.44 55.8952C413.181 54.7559 412.188 53.3743 411.461 51.7384L409.633 52.5507ZM413.08 57.3609C414.55 58.7611 416.294 59.839 418.298 60.5991L419.007 58.7291C417.235 58.0569 415.723 57.1165 414.459 55.9126L413.08 57.3609ZM418.308 60.6029C420.385 61.3643 422.651 61.7383 425.098 61.7383V59.7383C422.857 59.7383 420.826 59.3961 418.997 58.7252L418.308 60.6029ZM425.098 61.7383C430.106 61.7383 434.185 60.3457 437.214 57.4581L435.833 56.0106C433.263 58.4616 429.725 59.7383 425.098 59.7383V61.7383ZM437.214 57.4577C440.291 54.5207 441.82 50.7693 441.82 46.2852H439.82C439.82 50.2646 438.485 53.4793 435.833 56.011L437.214 57.4577ZM441.82 46.2852C441.82 41.801 440.29 38.0768 437.205 35.202L435.842 36.6652C438.486 39.1289 439.82 42.3058 439.82 46.2852H441.82ZM437.222 35.2182C434.195 32.2612 430.113 30.832 425.098 30.832V32.832C429.718 32.832 433.253 34.1373 435.825 36.649L437.222 35.2182ZM425.098 30.832C422.651 30.832 420.385 31.206 418.308 31.9674L418.997 33.8451C420.826 33.1742 422.857 32.832 425.098 32.832V30.832ZM418.298 31.9713C416.304 32.7274 414.567 33.7662 413.099 35.0944L414.44 36.5775C415.707 35.4318 417.224 34.5174 419.007 33.8412L418.298 31.9713ZM413.08 35.1118C411.61 36.512 410.46 38.1885 409.628 40.1295L411.466 40.9174C412.197 39.2125 413.195 37.7641 414.459 36.5601L413.08 35.1118ZM409.621 40.1461C408.851 42.035 408.473 44.0851 408.473 46.2852H410.473C410.473 44.3185 410.81 42.5275 411.473 40.9007L409.621 40.1461ZM561.133 154.488L560.283 153.962L560.273 153.977L560.265 153.992L561.133 154.488ZM557.52 158.102L558.044 158.953L558.051 158.949L558.059 158.944L557.52 158.102ZM550.977 160.641L551.196 161.616L551.205 161.614L551.214 161.612L550.977 160.641ZM533.203 160.641L532.994 161.618L532.998 161.619L533.203 160.641ZM525.879 157.809L526.397 156.953L526.388 156.948L526.378 156.942L525.879 157.809ZM520.605 152.926L519.769 153.474L519.773 153.481L519.778 153.487L520.605 152.926ZM518.262 145.504L519.259 145.436L519.196 144.504H518.262V145.504ZM492.383 145.504V144.504H491.383V145.504H492.383ZM495.508 158.395L494.608 158.831L494.612 158.839L494.616 158.847L495.508 158.395ZM504.883 169.723L505.519 168.951L505.512 168.945L504.883 169.723ZM520.117 177.926L519.792 178.871L519.795 178.872L520.117 177.926ZM560.84 178.707L561.098 179.673L561.107 179.671L560.84 178.707ZM575.879 171.969L576.445 172.793L576.451 172.789L575.879 171.969ZM585.352 161.812L584.484 161.315L584.482 161.319L585.352 161.812ZM585.352 135.738L584.493 136.251L584.498 136.259L584.504 136.268L585.352 135.738ZM576.074 126.266L576.623 125.429L576.613 125.423L576.074 126.266ZM544.141 116.012L544.302 115.025L544.294 115.024L544.286 115.022L544.141 116.012ZM533.203 113.766L532.9 114.719L532.91 114.722L532.92 114.725L533.203 113.766ZM526.465 110.738L527.027 109.911L527.008 109.899L526.989 109.887L526.465 110.738ZM522.949 107.223L522.046 107.653L522.05 107.661L522.055 107.67L522.949 107.223ZM523.047 98.4336L522.169 97.9547L522.165 97.9621L522.161 97.9696L523.047 98.4336ZM526.367 94.7227L526.955 95.5314L526.961 95.5271L526.967 95.5227L526.367 94.7227ZM532.422 91.9883L532.167 91.0212L532.422 91.9883ZM551.074 92.4766L550.738 93.4183L550.745 93.4208L551.074 92.4766ZM557.715 96.3828L558.441 95.6951L558.432 95.6853L558.422 95.6757L557.715 96.3828ZM560.352 100.582L559.415 100.933L559.418 100.94L559.42 100.946L560.352 100.582ZM561.23 105.465H560.23V106.465H561.23V105.465ZM588.379 105.465V106.465H589.379V105.465H588.379ZM575.879 81.0508L576.483 80.2539L576.476 80.2485L576.469 80.2432L575.879 81.0508ZM560.938 74.0195L560.65 74.9774L560.66 74.9802L560.938 74.0195ZM507.91 81.1484L508.519 81.942L507.91 81.1484ZM498.828 116.012L497.965 116.517L497.972 116.529L498.828 116.012ZM507.422 125.094L508.013 124.287L508.003 124.28L507.422 125.094ZM520.508 131.93L520.159 132.867L520.167 132.87L520.174 132.872L520.508 131.93ZM537.5 136.52L537.304 137.5L537.317 137.503L537.5 136.52ZM557.324 142.184L557.83 141.321L557.813 141.311L557.795 141.301L557.324 142.184ZM561.23 145.699L560.365 146.2L560.375 146.217L560.385 146.233L561.23 145.699ZM561.402 149.996C561.402 151.44 561.03 152.755 560.283 153.962L561.983 155.015C562.929 153.487 563.402 151.807 563.402 149.996H561.402ZM560.265 153.992C559.58 155.191 558.502 156.285 556.98 157.259L558.059 158.944C559.792 157.835 561.123 156.52 562.001 154.984L560.265 153.992ZM556.995 157.25C555.418 158.22 553.343 159.034 550.74 159.669L551.214 161.612C553.948 160.945 556.235 160.066 558.044 158.953L556.995 157.25ZM550.757 159.665C548.243 160.231 545.26 160.52 541.797 160.52V162.52C545.365 162.52 548.501 162.223 551.196 161.616L550.757 159.665ZM541.797 160.52C538.934 160.52 536.138 160.233 533.408 159.662L532.998 161.619C535.867 162.22 538.8 162.52 541.797 162.52V160.52ZM533.413 159.663C530.775 159.098 528.44 158.192 526.397 156.953L525.361 158.664C527.615 160.03 530.162 161.012 532.994 161.618L533.413 159.663ZM526.378 156.942C524.359 155.779 522.714 154.255 521.433 152.365L519.778 153.487C521.231 155.633 523.102 157.364 525.38 158.675L526.378 156.942ZM521.442 152.377C520.182 150.458 519.445 148.155 519.259 145.436L517.264 145.572C517.469 148.582 518.294 151.227 519.769 153.474L521.442 152.377ZM518.262 144.504H492.383V146.504H518.262V144.504ZM491.383 145.504C491.383 149.968 492.466 154.413 494.608 158.831L496.408 157.958C494.383 153.782 493.383 149.634 493.383 145.504H491.383ZM494.616 158.847C496.835 163.218 500.055 167.101 504.254 170.5L505.512 168.945C501.507 165.704 498.477 162.035 496.399 157.942L494.616 158.847ZM504.246 170.494C508.457 173.969 513.646 176.757 519.792 178.871L520.443 176.98C514.479 174.928 509.512 172.247 505.519 168.951L504.246 170.494ZM519.795 178.872C526.039 180.998 533.183 182.051 541.211 182.051V180.051C533.354 180.051 526.435 179.02 520.439 176.979L519.795 178.872ZM541.211 182.051C548.508 182.051 555.14 181.262 561.098 179.673L560.582 177.741C554.821 179.277 548.367 180.051 541.211 180.051V182.051ZM561.107 179.671C567.053 178.019 572.171 175.731 576.445 172.793L575.312 171.145C571.253 173.935 566.346 176.14 560.572 177.744L561.107 179.671ZM576.451 172.789C580.661 169.848 583.926 166.356 586.222 162.306L584.482 161.319C582.35 165.082 579.3 168.36 575.306 171.149L576.451 172.789ZM586.219 162.31C588.587 158.184 589.77 153.682 589.77 148.824H587.77C587.77 153.341 586.674 157.499 584.484 161.315L586.219 162.31ZM589.77 148.824C589.77 143.593 588.594 139.04 586.2 135.208L584.504 136.268C586.666 139.728 587.77 143.899 587.77 148.824H589.77ZM586.21 135.226C583.912 131.372 580.708 128.108 576.623 125.429L575.526 127.102C579.383 129.631 582.364 132.682 584.493 136.251L586.21 135.226ZM576.613 125.423C572.548 122.825 567.739 120.706 562.199 119.057L561.629 120.974C567.026 122.58 571.657 124.629 575.536 127.108L576.613 125.423ZM562.199 119.057C556.685 117.416 550.718 116.072 544.302 115.025L543.979 116.999C550.323 118.034 556.206 119.36 561.629 120.974L562.199 119.057ZM544.286 115.022C539.885 114.375 536.29 113.635 533.486 112.807L532.92 114.725C535.846 115.589 539.542 116.346 543.995 117.001L544.286 115.022ZM533.506 112.813C530.691 111.917 528.545 110.943 527.027 109.911L525.903 111.565C527.64 112.747 529.986 113.792 532.9 114.719L533.506 112.813ZM526.989 109.887C525.399 108.908 524.386 107.86 523.844 106.775L522.055 107.67C522.814 109.189 524.145 110.485 525.941 111.59L526.989 109.887ZM523.852 106.793C523.267 105.564 522.973 104.247 522.973 102.828H520.973C520.973 104.534 521.329 106.147 522.046 107.653L523.852 106.793ZM522.973 102.828C522.973 101.425 523.293 100.12 523.933 98.8976L522.161 97.9696C521.369 99.4818 520.973 101.106 520.973 102.828H522.973ZM523.925 98.9124C524.629 97.6211 525.632 96.4935 526.955 95.5314L525.779 93.9139C524.237 95.0352 523.027 96.3815 522.169 97.9547L523.925 98.9124ZM526.967 95.5227C528.4 94.4482 530.291 93.5832 532.676 92.9554L532.167 91.0212C529.605 91.6954 527.46 92.6534 525.767 93.9227L526.967 95.5227ZM532.676 92.9554C535.047 92.3315 537.855 92.0117 541.113 92.0117V90.0117C537.731 90.0117 534.745 90.3429 532.167 91.0212L532.676 92.9554ZM541.113 92.0117C544.942 92.0117 548.142 92.491 550.738 93.4183L551.411 91.5348C548.538 90.509 545.097 90.0117 541.113 90.0117V92.0117ZM550.745 93.4208C553.442 94.3615 555.513 95.5949 557.008 97.0899L558.422 95.6757C556.662 93.9156 554.306 92.5447 551.404 91.5324L550.745 93.4208ZM556.989 97.0706C558.071 98.2126 558.877 99.4985 559.415 100.933L561.288 100.231C560.654 98.5406 559.703 97.027 558.441 95.6951L556.989 97.0706ZM559.42 100.946C559.957 102.317 560.23 103.82 560.23 105.465H562.23C562.23 103.594 561.918 101.842 561.283 100.218L559.42 100.946ZM561.23 106.465H588.379V104.465H561.23V106.465ZM589.379 105.465C589.379 100.429 588.27 95.7467 586.045 91.4323L584.267 92.3489C586.34 96.3679 587.379 100.735 587.379 105.465H589.379ZM586.045 91.4323C583.823 87.1225 580.629 83.3966 576.483 80.2539L575.275 81.8477C579.202 84.8248 582.193 88.3254 584.267 92.3489L586.045 91.4323ZM576.469 80.2432C572.256 77.1672 567.165 74.7776 561.215 73.0588L560.66 74.9802C566.429 76.6469 571.299 78.9448 575.289 81.8584L576.469 80.2432ZM561.225 73.0617C555.256 71.2709 548.548 70.3828 541.113 70.3828V72.3828C548.392 72.3828 554.901 73.2525 560.65 74.9774L561.225 73.0617ZM541.113 70.3828C534 70.3828 527.581 71.2719 521.868 73.0654L522.468 74.9736C527.953 73.2516 534.164 72.3828 541.113 72.3828V70.3828ZM521.868 73.0654C516.179 74.8517 511.317 77.2767 507.302 80.3548L508.519 81.942C512.316 79.0306 516.959 76.703 522.468 74.9736L521.868 73.0654ZM507.302 80.3548C503.292 83.4292 500.197 87.0212 498.04 91.1331L499.811 92.0622C501.821 88.2314 504.716 84.8573 508.519 81.942L507.302 80.3548ZM498.04 91.1331C495.884 95.2436 494.801 99.5692 494.801 104.098H496.801C496.801 99.9022 497.801 95.8944 499.811 92.0622L498.04 91.1331ZM494.801 104.098C494.801 108.745 495.846 112.895 497.965 116.517L499.691 115.507C497.773 112.228 496.801 108.435 496.801 104.098H494.801ZM497.972 116.529C500.133 120.108 503.096 123.233 506.841 125.907L508.003 124.28C504.456 121.746 501.69 118.816 499.684 115.495L497.972 116.529ZM506.831 125.901C510.564 128.634 515.011 130.953 520.159 132.867L520.856 130.992C515.848 129.13 511.571 126.892 508.013 124.287L506.831 125.901ZM520.174 132.872C525.368 134.713 531.079 136.255 537.304 137.5L537.696 135.539C531.551 134.31 525.934 132.792 520.842 130.987L520.174 132.872ZM537.317 137.503C542.182 138.411 546.185 139.316 549.335 140.215L549.884 138.292C546.653 137.369 542.584 136.451 537.683 135.537L537.317 137.503ZM549.335 140.215C552.487 141.116 554.985 142.07 556.854 143.066L557.795 141.301C555.757 140.214 553.112 139.215 549.884 138.292L549.335 140.215ZM556.818 143.046C558.63 144.108 559.77 145.172 560.365 146.2L562.096 145.198C561.259 143.753 559.794 142.473 557.83 141.321L556.818 143.046ZM560.385 146.233C561.054 147.293 561.402 148.536 561.402 149.996H563.402C563.402 148.201 562.969 146.58 562.076 145.165L560.385 146.233ZM664.16 47.457H665.16V46.457H664.16V47.457ZM637.012 47.457V46.457H636.012V47.457H637.012ZM637.012 73.3359V74.3359H638.012V73.3359H637.012ZM612.891 73.3359V72.3359H611.891V73.3359H612.891ZM612.891 93.3555H611.891V94.3555H612.891V93.3555ZM637.012 93.3555H638.012V92.3555H637.012V93.3555ZM639.746 159.371L638.806 159.713L638.808 159.717L639.746 159.371ZM647.559 171.578L648.259 170.864L648.252 170.857L648.244 170.85L647.559 171.578ZM659.57 178.805L659.254 179.753L659.262 179.756L659.27 179.758L659.57 178.805ZM684.473 180.562L684.39 179.566L684.378 179.567L684.367 179.568L684.473 180.562ZM701.562 177.438L701.857 178.393L701.868 178.39L701.879 178.386L701.562 177.438ZM708.203 174.508L708.709 175.371L709.287 175.032L709.193 174.368L708.203 174.508ZM705.566 155.855L706.557 155.715L706.399 154.602L705.312 154.888L705.566 155.855ZM701.074 156.832L700.892 155.849L700.885 155.85L701.074 156.832ZM695.605 157.711L695.473 156.72L695.46 156.722L695.446 156.724L695.605 157.711ZM689.258 158.492L689.17 157.496L689.167 157.496L689.258 158.492ZM675.098 157.809L674.823 158.77L674.83 158.772L675.098 157.809ZM669.238 154.488L669.931 153.767L669.923 153.76L669.915 153.752L669.238 154.488ZM665.43 148.434L664.479 148.743L664.483 148.757L664.488 148.771L665.43 148.434ZM664.16 93.3555V92.3555H663.16V93.3555H664.16ZM703.613 93.3555V94.3555H704.613V93.3555H703.613ZM703.613 73.3359H704.613V72.3359H703.613V73.3359ZM664.16 73.3359H663.16V74.3359H664.16V73.3359ZM664.16 46.457H637.012V48.457H664.16V46.457ZM636.012 47.457V73.3359H638.012V47.457H636.012ZM637.012 72.3359H612.891V74.3359H637.012V72.3359ZM611.891 73.3359V93.3555H613.891V73.3359H611.891ZM612.891 94.3555H637.012V92.3555H612.891V94.3555ZM636.012 93.3555V141.402H638.012V93.3555H636.012ZM636.012 141.402C636.012 148.451 636.933 154.563 638.806 159.713L640.686 159.029C638.913 154.154 638.012 148.286 638.012 141.402H636.012ZM638.808 159.717C640.677 164.79 643.361 168.996 646.873 172.306L648.244 170.85C644.986 167.78 642.461 163.848 640.684 159.025L638.808 159.717ZM646.859 172.292C650.294 175.66 654.432 178.146 659.254 179.753L659.887 177.856C655.334 176.338 651.464 174.006 648.259 170.864L646.859 172.292ZM659.27 179.758C664.134 181.291 669.511 182.051 675.391 182.051V180.051C669.682 180.051 664.512 179.313 659.871 177.851L659.27 179.758ZM675.391 182.051C678.422 182.051 681.484 181.886 684.578 181.557L684.367 179.568C681.341 179.89 678.349 180.051 675.391 180.051V182.051ZM684.556 181.559C687.71 181.296 690.737 180.902 693.636 180.374L693.278 178.407C690.448 178.921 687.485 179.308 684.39 179.566L684.556 181.559ZM693.636 180.374C696.536 179.847 699.276 179.187 701.857 178.393L701.268 176.482C698.771 177.25 696.107 177.892 693.278 178.407L693.636 180.374ZM701.879 178.386C704.47 177.523 706.749 176.519 708.709 175.371L707.697 173.645C705.881 174.71 703.733 175.66 701.246 176.489L701.879 178.386ZM709.193 174.368L706.557 155.715L704.576 155.995L707.213 174.648L709.193 174.368ZM705.312 154.888C704.106 155.206 702.634 155.526 700.892 155.849L701.256 157.815C703.03 157.487 704.553 157.156 705.821 156.823L705.312 154.888ZM700.885 155.85C699.214 156.171 697.41 156.461 695.473 156.72L695.738 158.702C697.707 158.44 699.549 158.144 701.263 157.814L700.885 155.85ZM695.446 156.724C693.454 157.045 691.362 157.303 689.17 157.496L689.346 159.488C691.581 159.291 693.721 159.028 695.765 158.698L695.446 156.724ZM689.167 157.496C687.048 157.689 684.962 157.785 682.91 157.785V159.785C685.025 159.785 687.171 159.686 689.348 159.488L689.167 157.496ZM682.91 157.785C680.12 157.785 677.608 157.468 675.365 156.845L674.83 158.772C677.275 159.451 679.971 159.785 682.91 159.785V157.785ZM675.372 156.847C673.242 156.238 671.435 155.211 669.931 153.767L668.546 155.21C670.297 156.891 672.396 158.077 674.823 158.77L675.372 156.847ZM669.915 153.752C668.43 152.386 667.24 150.516 666.371 148.096L664.488 148.771C665.443 151.43 666.791 153.596 668.561 155.224L669.915 153.752ZM666.381 148.125C665.577 145.651 665.16 142.541 665.16 138.766H663.16C663.16 142.673 663.59 146.007 664.479 148.743L666.381 148.125ZM665.16 138.766V93.3555H663.16V138.766H665.16ZM664.16 94.3555H703.613V92.3555H664.16V94.3555ZM704.613 93.3555V73.3359H702.613V93.3555H704.613ZM703.613 72.3359H664.16V74.3359H703.613V72.3359ZM665.16 73.3359V47.457H663.16V73.3359H665.16ZM741.699 73.3359V72.3359H740.699V73.3359H741.699ZM741.699 95.5039H740.699V96.5039H741.699V95.5039ZM771.777 95.5039H772.777V94.5039H771.777V95.5039ZM771.777 156.93V157.93H772.777V156.93H771.777ZM741.699 156.93V155.93H740.699V156.93H741.699ZM741.699 179H740.699V180H741.699V179ZM827.832 179V180H828.832V179H827.832ZM827.832 156.93H828.832V155.93H827.832V156.93ZM799.219 156.93H798.219V157.93H799.219V156.93ZM799.219 73.3359H800.219V72.3359H799.219V73.3359ZM770.898 52.1445L769.968 52.5102L769.976 52.5306L769.985 52.5507L770.898 52.1445ZM774.121 56.6367L774.811 55.9126L774.801 55.9038L774.792 55.8952L774.121 56.6367ZM779.004 59.6641L778.649 60.5991L778.66 60.6029L779.004 59.6641ZM796.875 56.7344L797.565 57.4581L797.565 57.4577L796.875 56.7344ZM796.875 35.9336L796.176 36.649L796.185 36.6572L796.193 36.6652L796.875 35.9336ZM779.004 32.9062L778.66 31.9673L778.649 31.9713L779.004 32.9062ZM774.121 35.8359L773.45 35.0944L773.441 35.103L773.431 35.1118L774.121 35.8359ZM770.898 40.5234L769.979 40.1295L769.976 40.1378L769.972 40.1461L770.898 40.5234ZM740.699 73.3359V95.5039H742.699V73.3359H740.699ZM741.699 96.5039H771.777V94.5039H741.699V96.5039ZM770.777 95.5039V156.93H772.777V95.5039H770.777ZM771.777 155.93H741.699V157.93H771.777V155.93ZM740.699 156.93V179H742.699V156.93H740.699ZM741.699 180H827.832V178H741.699V180ZM828.832 179V156.93H826.832V179H828.832ZM827.832 155.93H799.219V157.93H827.832V155.93ZM800.219 156.93V73.3359H798.219V156.93H800.219ZM799.219 72.3359H741.699V74.3359H799.219V72.3359ZM768.824 46.2852C768.824 48.4856 769.203 50.5635 769.968 52.5102L771.829 51.7789C771.162 50.0797 770.824 48.2514 770.824 46.2852H768.824ZM769.985 52.5507C770.82 54.4304 771.975 56.0436 773.45 57.3783L774.792 55.8952C773.533 54.7559 772.539 53.3743 771.812 51.7384L769.985 52.5507ZM773.431 57.3609C774.902 58.7611 776.645 59.839 778.649 60.5991L779.359 58.7291C777.586 58.0569 776.075 57.1165 774.811 55.9126L773.431 57.3609ZM778.66 60.6029C780.736 61.3643 783.003 61.7383 785.449 61.7383V59.7383C783.208 59.7383 781.178 59.3961 779.348 58.7252L778.66 60.6029ZM785.449 61.7383C790.458 61.7383 794.537 60.3457 797.565 57.4581L796.185 56.0106C793.614 58.4616 790.076 59.7383 785.449 59.7383V61.7383ZM797.565 57.4577C800.642 54.5207 802.172 50.7693 802.172 46.2852H800.172C800.172 50.2646 798.837 53.4793 796.185 56.011L797.565 57.4577ZM802.172 46.2852C802.172 41.801 800.642 38.0768 797.557 35.202L796.193 36.6652C798.837 39.1289 800.172 42.3058 800.172 46.2852H802.172ZM797.574 35.2182C794.546 32.2612 790.464 30.832 785.449 30.832V32.832C790.07 32.832 793.605 34.1373 796.176 36.649L797.574 35.2182ZM785.449 30.832C783.003 30.832 780.736 31.206 778.66 31.9674L779.348 33.8451C781.178 33.1742 783.208 32.832 785.449 32.832V30.832ZM778.649 31.9713C776.656 32.7274 774.918 33.7662 773.45 35.0944L774.792 36.5775C776.058 35.4318 777.576 34.5174 779.359 33.8412L778.649 31.9713ZM773.431 35.1118C771.961 36.512 770.811 38.1885 769.979 40.1295L771.818 40.9174C772.548 39.2125 773.547 37.7641 774.811 36.5601L773.431 35.1118ZM769.972 40.1461C769.203 42.035 768.824 44.0851 768.824 46.2852H770.824C770.824 44.3185 771.162 42.5275 771.825 40.9007L769.972 40.1461ZM890.527 156.637L889.996 157.484L890.004 157.489L890.527 156.637ZM883.887 149.605L884.761 149.12L884.754 149.108L884.748 149.097L883.887 149.605ZM880.371 139.645L879.385 139.812L879.386 139.814L880.371 139.645ZM880.371 113.082L879.389 112.896L879.387 112.904L879.386 112.912L880.371 113.082ZM883.984 103.023L884.85 103.524L884.854 103.516L884.859 103.509L883.984 103.023ZM890.625 95.9922L891.157 96.8391L890.625 95.9922ZM909.375 94.918L908.987 95.8396L908.997 95.844L909.008 95.8481L909.375 94.918ZM920.898 112.398L919.9 112.348L919.847 113.398H920.898V112.398ZM946.484 112.398V113.398H947.464L947.484 112.419L946.484 112.398ZM943.359 95.5039L942.443 95.9035L942.445 95.9078L943.359 95.5039ZM934.082 82.5156L934.752 81.7729L934.745 81.7672L934.739 81.7615L934.082 82.5156ZM880.176 75.582L879.763 74.671L879.76 74.6727L880.176 75.582ZM864.746 87.0078L863.99 86.3537L864.746 87.0078ZM855.371 104L856.323 104.308L856.324 104.305L855.371 104ZM855.371 148.629L854.419 148.934L854.422 148.945L855.371 148.629ZM864.844 165.523L865.605 164.875L865.6 164.869L864.844 165.523ZM880.273 176.949L879.861 177.86L879.869 177.864L880.273 176.949ZM919.043 178.219L919.373 179.163L919.379 179.16L919.043 178.219ZM943.066 158.102L942.177 157.644L942.172 157.654L943.066 158.102ZM946.484 142.867L947.484 142.843L947.461 141.867H946.484V142.867ZM920.898 142.867V141.867H919.844L919.9 142.92L920.898 142.867ZM919.531 149.605L918.643 149.147L918.637 149.158L918.631 149.17L919.531 149.605ZM915.332 154.781L915.95 155.568L915.332 154.781ZM901.367 158.273C897.136 158.273 893.717 157.421 891.05 155.784L890.004 157.489C893.067 159.368 896.875 160.273 901.367 160.273V158.273ZM891.059 155.79C888.404 154.123 886.308 151.904 884.761 149.12L883.013 150.091C884.721 153.166 887.051 155.635 889.996 157.484L891.059 155.79ZM884.748 149.097C883.125 146.351 881.99 143.149 881.357 139.475L879.386 139.814C880.054 143.692 881.263 147.131 883.026 150.114L884.748 149.097ZM881.357 139.477C880.716 135.694 880.395 131.779 880.395 127.73H878.395C878.395 131.885 878.724 135.912 879.385 139.812L881.357 139.477ZM880.395 127.73V124.801H878.395V127.73H880.395ZM880.395 124.801C880.395 120.818 880.716 116.969 881.357 113.252L879.386 112.912C878.724 116.747 878.395 120.71 878.395 124.801H880.395ZM881.354 113.268C882.052 109.588 883.221 106.344 884.85 103.524L883.119 102.523C881.362 105.562 880.123 109.024 879.389 112.896L881.354 113.268ZM884.859 103.509C886.405 100.725 888.502 98.506 891.157 96.8391L890.093 95.1453C887.149 96.994 884.818 99.4629 883.11 102.538L884.859 103.509ZM891.157 96.8391C893.756 95.2072 897.105 94.3555 901.27 94.3555V92.3555C896.84 92.3555 893.093 93.2616 890.093 95.1453L891.157 96.8391ZM901.27 94.3555C904.078 94.3555 906.647 94.8542 908.987 95.8396L909.763 93.9963C907.155 92.8984 904.32 92.3555 901.27 92.3555V94.3555ZM909.008 95.8481C911.371 96.7811 913.373 98.0479 915.029 99.6422L916.416 98.2016C914.556 96.4104 912.327 95.008 909.742 93.9878L909.008 95.8481ZM915.029 99.6422C916.679 101.231 917.934 103.126 918.795 105.339L920.659 104.614C919.696 102.139 918.282 99.998 916.416 98.2016L915.029 99.6422ZM918.795 105.339C919.653 107.547 920.023 109.88 919.9 112.348L921.897 112.448C922.034 109.709 921.623 107.094 920.659 104.614L918.795 105.339ZM920.898 113.398H946.484V111.398H920.898V113.398ZM947.484 112.419C947.617 106.044 946.555 100.264 944.274 95.1L942.445 95.9078C944.591 100.77 945.612 106.253 945.485 112.378L947.484 112.419ZM944.276 95.1043C942.008 89.9003 938.833 85.4526 934.752 81.7729L933.412 83.2583C937.274 86.7401 940.284 90.9512 942.443 95.9035L944.276 95.1043ZM934.739 81.7615C930.598 78.1554 925.701 75.3606 920.059 73.3695L919.394 75.2555C924.82 77.1707 929.493 79.8446 933.425 83.2697L934.739 81.7615ZM920.059 73.3695C914.408 71.3748 908.272 70.3828 901.66 70.3828V72.3828C908.07 72.3828 913.978 73.344 919.394 75.2555L920.059 73.3695ZM901.66 70.3828C893.408 70.3828 886.101 71.8024 879.763 74.671L880.588 76.4931C886.62 73.7627 893.637 72.3828 901.66 72.3828V70.3828ZM879.76 74.6727C873.517 77.5284 868.256 81.4214 863.99 86.3537L865.502 87.662C869.57 82.9588 874.595 79.2347 880.592 76.4914L879.76 74.6727ZM863.99 86.3537C859.729 91.2807 856.54 97.0658 854.419 103.695L856.324 104.305C858.369 97.9133 861.43 92.3703 865.502 87.662L863.99 86.3537ZM854.42 103.692C852.301 110.246 851.246 117.284 851.246 124.801H853.246C853.246 117.473 854.274 110.644 856.323 104.308L854.42 103.692ZM851.246 124.801V127.73H853.246V124.801H851.246ZM851.246 127.73C851.246 135.247 852.301 142.317 854.419 148.934L856.324 148.324C854.274 141.92 853.246 135.058 853.246 127.73H851.246ZM854.422 148.945C856.609 155.506 859.83 161.254 864.087 166.178L865.6 164.869C861.525 160.157 858.43 154.642 856.32 148.313L854.422 148.945ZM864.082 166.172C868.286 171.11 873.552 175.004 879.861 177.86L880.686 176.038C874.625 173.295 869.604 169.573 865.605 164.875L864.082 166.172ZM879.869 177.864C886.205 180.665 893.542 182.051 901.855 182.051V180.051C893.763 180.051 886.711 178.702 880.678 176.035L879.869 177.864ZM901.855 182.051C908.016 182.051 913.857 181.09 919.373 179.163L918.713 177.275C913.422 179.124 907.804 180.051 901.855 180.051V182.051ZM919.379 179.16C924.947 177.172 929.836 174.448 934.035 170.982L932.762 169.44C928.758 172.745 924.076 175.359 918.707 177.277L919.379 179.16ZM934.035 170.982C938.243 167.509 941.554 163.363 943.961 158.549L942.172 157.654C939.892 162.215 936.757 166.142 932.762 169.44L934.035 170.982ZM943.956 158.559C946.444 153.717 947.618 148.473 947.484 142.843L945.485 142.891C945.611 148.199 944.507 153.111 942.177 157.644L943.956 158.559ZM946.484 141.867H920.898V143.867H946.484V141.867ZM919.9 142.92C920.022 145.233 919.596 147.3 918.643 149.147L920.42 150.064C921.55 147.874 922.036 145.449 921.897 142.815L919.9 142.92ZM918.631 149.17C917.723 151.047 916.422 152.653 914.714 153.995L915.95 155.568C917.888 154.045 919.386 152.201 920.431 150.041L918.631 149.17ZM914.714 153.995C912.992 155.348 910.983 156.402 908.676 157.15L909.293 159.053C911.803 158.239 914.026 157.079 915.95 155.568L914.714 153.995ZM908.676 157.15C906.372 157.898 903.937 158.273 901.367 158.273V160.273C904.136 160.273 906.779 159.868 909.293 159.053L908.676 157.15Z" fill="white"/>
</g>
<defs>
<clipPath id="clip0_8_108">
<rect width="961" height="189" fill="white"/>
</clipPath>
</defs>
</svg>
